{
    "asset": {
        "version": "2.0",
        "generator": "Open Asset Import Library (assimp v5.0.5eb040c7)"
    },
    "accessors": [
        {
            "bufferView": 0,
            "byteOffset": 0,
            "componentType": 5126,
            "count": 1021,
            "type": "VEC3",
            "max": [
                24.411481857299806,
                11.180837631225586,
                6.271677494049072
            ],
            "min": [
                -24.411394119262697,
                -9.439862251281739,
                -6.2716779708862309
            ]
        },
        {
            "bufferView": 1,
            "byteOffset": 0,
            "componentType": 5126,
            "count": 1021,
            "type": "VEC3",
            "max": [
                1.0,
                0.9997575283050537,
                1.0
            ],
            "min": [
                -1.0,
                -1.0,
                -1.0
            ]
        },
        {
            "bufferView": 2,
            "byteOffset": 0,
            "componentType": 5125,
            "count": 5040,
            "type": "SCALAR",
            "max": [
                1020
            ],
            "min": [
                0
            ]
        },
        {
            "bufferView": 3,
            "byteOffset": 0,
            "componentType": 5126,
            "count": 604,
            "type": "VEC3",
            "max": [
                24.029638290405275,
                11.216728210449219,
                6.259657859802246
            ],
            "min": [
                -24.029638290405275,
                -9.169852256774903,
                -6.2596755027771
            ]
        },
        {
            "bufferView": 4,
            "byteOffset": 0,
            "componentType": 5126,
            "count": 604,
            "type": "VEC3",
            "max": [
                0.9974579811096191,
                0.9983100891113281,
                0.9971566796302795
            ],
            "min": [
                -0.9987702369689941,
                -0.9984784126281738,
                -0.9972631931304932
            ]
        },
        {
            "bufferView": 5,
            "byteOffset": 0,
            "componentType": 5125,
            "count": 3330,
            "type": "SCALAR",
            "max": [
                603
            ],
            "min": [
                0
            ]
        },
        {
            "bufferView": 6,
            "byteOffset": 0,
            "componentType": 5126,
            "count": 1930,
            "type": "VEC3",
            "max": [
                11.489724159240723,
                29.83236312866211,
                6.531595706939697
            ],
            "min": [
                -11.171208381652832,
                -9.760201454162598,
                -6.531597137451172
            ]
        },
        {
            "bufferView": 7,
            "byteOffset": 0,
            "componentType": 5126,
            "count": 1930,
            "type": "VEC3",
            "max": [
                1.0,
                1.0,
                1.0
            ],
            "min": [
                -1.0,
                -1.0,
                -1.0
            ]
        },
        {
            "bufferView": 8,
            "byteOffset": 0,
            "componentType": 5125,
            "count": 8286,
            "type": "SCALAR",
            "max": [
                1929
            ],
            "min": [
                0
            ]
        }
    ],
    "buffers": [
        {
            "byteLength": 151944,
            "uri": "result.bin"
        }
    ],
    "bufferViews": [
        {
            "buffer": 0,
            "byteOffset": 0,
            "byteLength": 12252,
            "target": 34962
        },
        {
            "buffer": 0,
            "byteOffset": 12252,
            "byteLength": 12252,
            "target": 34962
        },
        {
            "buffer": 0,
            "byteOffset": 24504,
            "byteLength": 20160,
            "target": 34963
        },
        {
            "buffer": 0,
            "byteOffset": 44664,
            "byteLength": 7248,
            "target": 34962
        },
        {
            "buffer": 0,
            "byteOffset": 51912,
            "byteLength": 7248,
            "target": 34962
        },
        {
            "buffer": 0,
            "byteOffset": 59160,
            "byteLength": 13320,
            "target": 34963
        },
        {
            "buffer": 0,
            "byteOffset": 72480,
            "byteLength": 23160,
            "target": 34962
        },
        {
            "buffer": 0,
            "byteOffset": 95640,
            "byteLength": 23160,
            "target": 34962
        },
        {
            "buffer": 0,
            "byteOffset": 118800,
            "byteLength": 33144,
            "target": 34963
        }
    ],
    "materials": [
        {
            "name": "VRayMtl2",
            "pbrMetallicRoughness": {
                "baseColorFactor": [
                    0.5,
                    0.5,
                    0.5,
                    1.0
                ],
                "metallicFactor": 0.0
            }
        },
        {
            "name": "VRayMtl1",
            "pbrMetallicRoughness": {
                "baseColorFactor": [
                    0.5,
                    0.5,
                    0.5,
                    1.0
                ],
                "metallicFactor": 0.0
            }
        },
        {
            "name": "Leather_B01_Brown_25cm",
            "pbrMetallicRoughness": {
                "baseColorFactor": [
                    0.5,
                    0.5,
                    0.5,
                    1.0
                ],
                "metallicFactor": 0.0
            }
        }
    ],
    "meshes": [
        {
            "name": "polySurface1",
            "primitives": [
                {
                    "mode": 4,
                    "material": 0,
                    "indices": 2,
                    "attributes": {
                        "POSITION": 0,
                        "NORMAL": 1
                    }
                }
            ]
        },
        {
            "name": "polySurface2",
            "primitives": [
                {
                    "mode": 4,
                    "material": 1,
                    "indices": 5,
                    "attributes": {
                        "POSITION": 3,
                        "NORMAL": 4
                    }
                }
            ]
        },
        {
            "name": "pCube2",
            "primitives": [
                {
                    "mode": 4,
                    "material": 2,
                    "indices": 8,
                    "attributes": {
                        "POSITION": 6,
                        "NORMAL": 7
                    }
                }
            ]
        }
    ],
    "nodes": [
        {
            "name": "RootNode",
            "children": [
                1
            ]
        },
        {
            "name": "PT_bag",
            "children": [
                2,
                7,
                12
            ]
        },
        {
            "name": "polySurface1_$AssimpFbx$_RotationPivot",
            "matrix": [
                1.0,
                0.0,
                0.0,
                0.0,
                0.0,
                1.0,
                0.0,
                0.0,
                0.0,
                0.0,
                1.0,
                0.0,
                0.0,
                0.7794748544692993,
                0.0,
                1.0
            ],
            "children": [
                3
            ]
        },
        {
            "name": "polySurface1_$AssimpFbx$_RotationPivotInverse",
            "matrix": [
                1.0,
                0.0,
                0.0,
                0.0,
                0.0,
                1.0,
                0.0,
                0.0,
                0.0,
                0.0,
                1.0,
                0.0,
                -0.0,
                -0.7794748544692993,
                -0.0,
                1.0
            ],
            "children": [
                4
            ]
        },
        {
            "name": "polySurface1_$AssimpFbx$_ScalingPivot",
            "matrix": [
                1.0,
                0.0,
                0.0,
                0.0,
                0.0,
                1.0,
                0.0,
                0.0,
                0.0,
                0.0,
                1.0,
                0.0,
                0.0,
                0.7794748544692993,
                0.0,
                1.0
            ],
            "children": [
                5
            ]
        },
        {
            "name": "polySurface1_$AssimpFbx$_ScalingPivotInverse",
            "matrix": [
                1.0,
                0.0,
                0.0,
                0.0,
                0.0,
                1.0,
                0.0,
                0.0,
                0.0,
                0.0,
                1.0,
                0.0,
                -0.0,
                -0.7794748544692993,
                -0.0,
                1.0
            ],
            "children": [
                6
            ]
        },
        {
            "name": "polySurface1",
            "mesh": 0
        },
        {
            "name": "polySurface2_$AssimpFbx$_RotationPivot",
            "matrix": [
                1.0,
                0.0,
                0.0,
                0.0,
                0.0,
                1.0,
                0.0,
                0.0,
                0.0,
                0.0,
                1.0,
                0.0,
                0.0,
                0.7794748544692993,
                0.0,
                1.0
            ],
            "children": [
                8
            ]
        },
        {
            "name": "polySurface2_$AssimpFbx$_RotationPivotInverse",
            "matrix": [
                1.0,
                0.0,
                0.0,
                0.0,
                0.0,
                1.0,
                0.0,
                0.0,
                0.0,
                0.0,
                1.0,
                0.0,
                -0.0,
                -0.7794748544692993,
                -0.0,
                1.0
            ],
            "children": [
                9
            ]
        },
        {
            "name": "polySurface2_$AssimpFbx$_ScalingPivot",
            "matrix": [
                1.0,
                0.0,
                0.0,
                0.0,
                0.0,
                1.0,
                0.0,
                0.0,
                0.0,
                0.0,
                1.0,
                0.0,
                0.0,
                0.7794748544692993,
                0.0,
                1.0
            ],
            "children": [
                10
            ]
        },
        {
            "name": "polySurface2_$AssimpFbx$_ScalingPivotInverse",
            "matrix": [
                1.0,
                0.0,
                0.0,
                0.0,
                0.0,
                1.0,
                0.0,
                0.0,
                0.0,
                0.0,
                1.0,
                0.0,
                -0.0,
                -0.7794748544692993,
                -0.0,
                1.0
            ],
            "children": [
                11
            ]
        },
        {
            "name": "polySurface2",
            "mesh": 1
        },
        {
            "name": "pCube2_$AssimpFbx$_RotationPivot",
            "matrix": [
                1.0,
                0.0,
                0.0,
                0.0,
                0.0,
                1.0,
                0.0,
                0.0,
                0.0,
                0.0,
                1.0,
                0.0,
                -9.554251670837403,
                0.4726485013961792,
                6.401116847991943,
                1.0
            ],
            "children": [
                13
            ]
        },
        {
            "name": "pCube2_$AssimpFbx$_RotationPivotInverse",
            "matrix": [
                1.0,
                0.0,
                0.0,
                0.0,
                0.0,
                1.0,
                0.0,
                0.0,
                0.0,
                0.0,
                1.0,
                0.0,
                9.554251670837403,
                -0.4726485013961792,
                -6.401116847991943,
                1.0
            ],
            "children": [
                14
            ]
        },
        {
            "name": "pCube2_$AssimpFbx$_ScalingPivot",
            "matrix": [
                1.0,
                0.0,
                0.0,
                0.0,
                0.0,
                1.0,
                0.0,
                0.0,
                0.0,
                0.0,
                1.0,
                0.0,
                -9.554251670837403,
                0.4726485013961792,
                6.401116847991943,
                1.0
            ],
            "children": [
                15
            ]
        },
        {
            "name": "pCube2_$AssimpFbx$_ScalingPivotInverse",
            "matrix": [
                1.0,
                0.0,
                0.0,
                0.0,
                0.0,
                1.0,
                0.0,
                0.0,
                0.0,
                0.0,
                1.0,
                0.0,
                9.554251670837403,
                -0.4726485013961792,
                -6.401116847991943,
                1.0
            ],
            "children": [
                16
            ]
        },
        {
            "name": "pCube2",
            "mesh": 2
        }
    ],
    "scenes": [
        {
            "nodes": [
                0
            ]
        }
    ],
    "scene": 0
}