{
	"asset":{
		"generator":"Khronos glTF Blender I/O v3.6.27",
		"version":"2.0"
	},
	"scene":0,
	"scenes":[
		{
			"name":"Scene",
			"nodes":[
				0
			]
		}
	],
	"nodes":[
		{
			"mesh":0,
			"name":"CUSTOM_smilewithteeth_mouth",
			"rotation":[
				0.7071068286895752,
				0,
				0,
				0.7071068286895752
			],
			"scale":[
				0.009999999776482582,
				0.009999999776482582,
				0.009999999776482582
			]
		}
	],
	"materials":[
		{
			"doubleSided":true,
			"emissiveFactor":[
				1,
				1,
				1
			],
			"name":"lambert4.002",
			"pbrMetallicRoughness":{
				"metallicFactor":0,
				"roughnessFactor":0.5527864098548889
			}
		},
		{
			"doubleSided":true,
			"name":"lambert1.002",
			"pbrMetallicRoughness":{
				"baseColorFactor":[
					0.07500000298023224,
					0.07500000298023224,
					0.07500000298023224,
					1
				],
				"metallicFactor":0,
				"roughnessFactor":0.5527864098548889
			}
		},
		{
			"doubleSided":true,
			"emissiveFactor":[
				0.10489510744810104,
				0.10489510744810104,
				0.10489510744810104
			],
			"name":"lambert_innerear",
			"pbrMetallicRoughness":{
				"baseColorFactor":[
					1,
					0.3970000147819519,
					0.3970000147819519,
					1
				],
				"metallicFactor":0,
				"roughnessFactor":0.5527864098548889
			}
		}
	],
	"meshes":[
		{
			"name":"Mesh.008",
			"primitives":[
				{
					"attributes":{
						"POSITION":0,
						"NORMAL":1,
						"TEXCOORD_0":2
					},
					"indices":3,
					"material":0
				},
				{
					"attributes":{
						"POSITION":4,
						"NORMAL":5,
						"TEXCOORD_0":6
					},
					"indices":7,
					"material":1
				},
				{
					"attributes":{
						"POSITION":8,
						"NORMAL":9,
						"TEXCOORD_0":10
					},
					"indices":11,
					"material":2
				}
			]
		}
	],
	"accessors":[
		{
			"bufferView":0,
			"componentType":5126,
			"count":93,
			"max":[
				0.1079297736287117,
				3.5614585876464844,
				-8.122724533081055
			],
			"min":[
				-0.1079297736287117,
				3.4732532501220703,
				-8.347186088562012
			],
			"type":"VEC3"
		},
		{
			"bufferView":1,
			"componentType":5126,
			"count":93,
			"type":"VEC3"
		},
		{
			"bufferView":2,
			"componentType":5126,
			"count":93,
			"type":"VEC2"
		},
		{
			"bufferView":3,
			"componentType":5123,
			"count":306,
			"type":"SCALAR"
		},
		{
			"bufferView":4,
			"componentType":5126,
			"count":174,
			"max":[
				0.3737628757953644,
				3.5673418045043945,
				-7.567429542541504
			],
			"min":[
				-0.3737628757953644,
				3.2412734031677246,
				-8.36041259765625
			],
			"type":"VEC3"
		},
		{
			"bufferView":5,
			"componentType":5126,
			"count":174,
			"type":"VEC3"
		},
		{
			"bufferView":6,
			"componentType":5126,
			"count":174,
			"type":"VEC2"
		},
		{
			"bufferView":7,
			"componentType":5123,
			"count":648,
			"type":"SCALAR"
		},
		{
			"bufferView":8,
			"componentType":5126,
			"count":76,
			"max":[
				0.294423907995224,
				3.512911319732666,
				-7.54977560043335
			],
			"min":[
				-0.294423907995224,
				3.2144358158111572,
				-7.998034954071045
			],
			"type":"VEC3"
		},
		{
			"bufferView":9,
			"componentType":5126,
			"count":76,
			"type":"VEC3"
		},
		{
			"bufferView":10,
			"componentType":5126,
			"count":76,
			"type":"VEC2"
		},
		{
			"bufferView":11,
			"componentType":5123,
			"count":228,
			"type":"SCALAR"
		}
	],
	"bufferViews":[
		{
			"buffer":0,
			"byteLength":1116,
			"byteOffset":0,
			"target":34962
		},
		{
			"buffer":0,
			"byteLength":1116,
			"byteOffset":1116,
			"target":34962
		},
		{
			"buffer":0,
			"byteLength":744,
			"byteOffset":2232,
			"target":34962
		},
		{
			"buffer":0,
			"byteLength":612,
			"byteOffset":2976,
			"target":34963
		},
		{
			"buffer":0,
			"byteLength":2088,
			"byteOffset":3588,
			"target":34962
		},
		{
			"buffer":0,
			"byteLength":2088,
			"byteOffset":5676,
			"target":34962
		},
		{
			"buffer":0,
			"byteLength":1392,
			"byteOffset":7764,
			"target":34962
		},
		{
			"buffer":0,
			"byteLength":1296,
			"byteOffset":9156,
			"target":34963
		},
		{
			"buffer":0,
			"byteLength":912,
			"byteOffset":10452,
			"target":34962
		},
		{
			"buffer":0,
			"byteLength":912,
			"byteOffset":11364,
			"target":34962
		},
		{
			"buffer":0,
			"byteLength":608,
			"byteOffset":12276,
			"target":34962
		},
		{
			"buffer":0,
			"byteLength":456,
			"byteOffset":12884,
			"target":34963
		}
	],
	"buffers":[
		{
			"byteLength":13340,
			"uri":"data:application/octet-stream;base64,"
		}
	]
}
