{
	"asset":{
		"generator":"Khronos glTF Blender I/O v3.6.27",
		"version":"2.0"
	},
	"scene":0,
	"scenes":[
		{
			"name":"Scene",
			"nodes":[
				2
			]
		}
	],
	"nodes":[
		{
			"mesh":0,
			"name":"HAERIN_mouth",
			"rotation":[
				0.15642553567886353,
				0,
				0,
				0.9876897931098938
			],
			"scale":[
				1,
				0.06666668504476547,
				0.11111116409301758
			],
			"translation":[
				0,
				3.553391933441162,
				-8.310418128967285
			]
		},
		{
			"mesh":1,
			"name":"nose",
			"scale":[
				0.2884367108345032,
				0.16024258732795715,
				0.16024261713027954
			],
			"translation":[
				0,
				3.489818811416626,
				-8.57448959350586
			]
		},
		{
			"children":[
				0,
				1
			],
			"name":"HAERIN_FACE1",
			"rotation":[
				0.7071068286895752,
				0,
				0,
				0.7071068286895752
			],
			"scale":[
				0.009999999776482582,
				0.009999999776482582,
				0.009999999776482582
			]
		}
	],
	"materials":[
		{
			"doubleSided":true,
			"name":"lambert1.016",
			"pbrMetallicRoughness":{
				"baseColorFactor":[
					0.07500000298023224,
					0.07500000298023224,
					0.07500000298023224,
					1
				],
				"metallicFactor":0,
				"roughnessFactor":0.5527864098548889
			}
		}
	],
	"meshes":[
		{
			"name":"Mesh.028",
			"primitives":[
				{
					"attributes":{
						"POSITION":0,
						"NORMAL":1,
						"TEXCOORD_0":2
					},
					"indices":3,
					"material":0
				}
			]
		},
		{
			"name":"Mesh.027",
			"primitives":[
				{
					"attributes":{
						"POSITION":4,
						"NORMAL":5,
						"TEXCOORD_0":6
					},
					"indices":7,
					"material":0
				}
			]
		}
	],
	"accessors":[
		{
			"bufferView":0,
			"componentType":5126,
			"count":64,
			"max":[
				0.208380788564682,
				0.796850323677063,
				2.118274688720703
			],
			"min":[
				-0.208380788564682,
				-1.4418511390686035,
				-0.8223161101341248
			],
			"type":"VEC3"
		},
		{
			"bufferView":1,
			"componentType":5126,
			"count":64,
			"type":"VEC3"
		},
		{
			"bufferView":2,
			"componentType":5126,
			"count":64,
			"type":"VEC2"
		},
		{
			"bufferView":3,
			"componentType":5123,
			"count":156,
			"type":"SCALAR"
		},
		{
			"bufferView":4,
			"componentType":5126,
			"count":52,
			"max":[
				0.6333333253860474,
				0.5000114440917969,
				0.9813140630722046
			],
			"min":[
				-0.6333333253860474,
				-0.5,
				-0.5
			],
			"type":"VEC3"
		},
		{
			"bufferView":5,
			"componentType":5126,
			"count":52,
			"type":"VEC3"
		},
		{
			"bufferView":6,
			"componentType":5126,
			"count":52,
			"type":"VEC2"
		},
		{
			"bufferView":7,
			"componentType":5123,
			"count":132,
			"type":"SCALAR"
		}
	],
	"bufferViews":[
		{
			"buffer":0,
			"byteLength":768,
			"byteOffset":0,
			"target":34962
		},
		{
			"buffer":0,
			"byteLength":768,
			"byteOffset":768,
			"target":34962
		},
		{
			"buffer":0,
			"byteLength":512,
			"byteOffset":1536,
			"target":34962
		},
		{
			"buffer":0,
			"byteLength":312,
			"byteOffset":2048,
			"target":34963
		},
		{
			"buffer":0,
			"byteLength":624,
			"byteOffset":2360,
			"target":34962
		},
		{
			"buffer":0,
			"byteLength":624,
			"byteOffset":2984,
			"target":34962
		},
		{
			"buffer":0,
			"byteLength":416,
			"byteOffset":3608,
			"target":34962
		},
		{
			"buffer":0,
			"byteLength":264,
			"byteOffset":4024,
			"target":34963
		}
	],
	"buffers":[
		{
			"byteLength":4288,
			"uri":"data:application/octet-stream;base64,"
		}
	]
}
