{
	"asset":{
		"generator":"Khronos glTF Blender I/O v3.6.27",
		"version":"2.0"
	},
	"scene":0,
	"scenes":[
		{
			"name":"Scene",
			"nodes":[
				2
			]
		}
	],
	"nodes":[
		{
			"mesh":0,
			"name":"HYEIN_mouth",
			"rotation":[
				-0.6476494669914246,
				0.009885871782898903,
				-0.006297029554843903,
				0.7618483901023865
			],
			"scale":[
				0.28873124718666077,
				0.23740123212337494,
				0.28873127698898315
			],
			"translation":[
				0,
				3.4529290199279785,
				-8.114849090576172
			]
		},
		{
			"mesh":1,
			"name":"nose",
			"scale":[
				0.2884367108345032,
				0.16024258732795715,
				0.16024261713027954
			],
			"translation":[
				0,
				3.489818811416626,
				-8.57448959350586
			]
		},
		{
			"children":[
				0,
				1
			],
			"name":"HYEIN_FACE1",
			"rotation":[
				0.7071068286895752,
				0,
				0,
				0.7071068286895752
			],
			"scale":[
				0.009999999776482582,
				0.009999999776482582,
				0.009999999776482582
			]
		}
	],
	"materials":[
		{
			"doubleSided":true,
			"emissiveFactor":[
				0.1538461595773697,
				0.1538461595773697,
				0.1538461595773697
			],
			"name":"lambert_rabbit.001",
			"pbrMetallicRoughness":{
				"baseColorTexture":{
					"index":0
				},
				"metallicFactor":0,
				"roughnessFactor":0.5527864098548889
			}
		},
		{
			"doubleSided":true,
			"name":"lambert1.022",
			"pbrMetallicRoughness":{
				"baseColorFactor":[
					0.07500000298023224,
					0.07500000298023224,
					0.07500000298023224,
					1
				],
				"metallicFactor":0,
				"roughnessFactor":0.5527864098548889
			}
		}
	],
	"meshes":[
		{
			"name":"Mesh.052",
			"primitives":[
				{
					"attributes":{
						"POSITION":0,
						"NORMAL":1,
						"TEXCOORD_0":2
					},
					"indices":3,
					"material":0
				}
			]
		},
		{
			"name":"Mesh.051",
			"primitives":[
				{
					"attributes":{
						"POSITION":4,
						"NORMAL":5,
						"TEXCOORD_0":6
					},
					"indices":7,
					"material":1
				}
			]
		}
	],
	"textures":[
		{
			"sampler":0,
			"source":0
		}
	],
	"images":[
		{
			"bufferView":4,
			"mimeType":"image/jpeg",
			"name":"colored_tex"
		}
	],
	"accessors":[
		{
			"bufferView":0,
			"componentType":5126,
			"count":384,
			"max":[
				1.0499999523162842,
				1.0499999523162842,
				0.4999999403953552
			],
			"min":[
				-1.0499999523162842,
				-1.0499999523162842,
				-0.4999999701976776
			],
			"type":"VEC3"
		},
		{
			"bufferView":1,
			"componentType":5126,
			"count":384,
			"type":"VEC3"
		},
		{
			"bufferView":2,
			"componentType":5126,
			"count":384,
			"type":"VEC2"
		},
		{
			"bufferView":3,
			"componentType":5123,
			"count":576,
			"type":"SCALAR"
		},
		{
			"bufferView":5,
			"componentType":5126,
			"count":52,
			"max":[
				0.6333333253860474,
				0.5000114440917969,
				0.9813140630722046
			],
			"min":[
				-0.6333333253860474,
				-0.5,
				-0.5
			],
			"type":"VEC3"
		},
		{
			"bufferView":6,
			"componentType":5126,
			"count":52,
			"type":"VEC3"
		},
		{
			"bufferView":7,
			"componentType":5126,
			"count":52,
			"type":"VEC2"
		},
		{
			"bufferView":8,
			"componentType":5123,
			"count":132,
			"type":"SCALAR"
		}
	],
	"bufferViews":[
		{
			"buffer":0,
			"byteLength":4608,
			"byteOffset":0,
			"target":34962
		},
		{
			"buffer":0,
			"byteLength":4608,
			"byteOffset":4608,
			"target":34962
		},
		{
			"buffer":0,
			"byteLength":3072,
			"byteOffset":9216,
			"target":34962
		},
		{
			"buffer":0,
			"byteLength":1152,
			"byteOffset":12288,
			"target":34963
		},
		{
			"buffer":0,
			"byteLength":1087844,
			"byteOffset":13440
		},
		{
			"buffer":0,
			"byteLength":624,
			"byteOffset":1101284,
			"target":34962
		},
		{
			"buffer":0,
			"byteLength":624,
			"byteOffset":1101908,
			"target":34962
		},
		{
			"buffer":0,
			"byteLength":416,
			"byteOffset":1102532,
			"target":34962
		},
		{
			"buffer":0,
			"byteLength":264,
			"byteOffset":1102948,
			"target":34963
		}
	],
	"samplers":[
		{
			"magFilter":9729,
			"minFilter":9987
		}
	],
	"buffers":[
		{
			"byteLength":1103212,
			"uri":"data:application/octet-stream;base64,"
		}
	]
}
