<svg width="18" height="18" viewBox="0 0 18 18" fill="none" xmlns="http://www.w3.org/2000/svg">
<path d="M9.0013 0.666748C4.40964 0.666748 0.667969 4.40841 0.667969 9.00008C0.667969 13.5917 4.40964 17.3334 9.0013 17.3334C13.593 17.3334 17.3346 13.5917 17.3346 9.00008C17.3346 4.40841 13.593 0.666748 9.0013 0.666748ZM9.01796 3.44176C9.71796 3.44176 10.2846 4.04176 10.2846 4.74176C10.2846 5.43343 9.71796 6.00839 9.01796 6.00839C8.28463 6.00839 7.71796 5.43343 7.71796 4.74176C7.71796 4.04176 8.28463 3.44176 9.01796 3.44176ZM12.418 7.59175C11.6013 7.79175 10.768 7.91676 9.91797 7.96676C10.0013 9.00842 10.193 10.0418 10.5096 11.0334C10.7513 11.7918 11.0596 12.5417 11.4346 13.2501C11.6013 13.5584 11.4846 13.9334 11.1763 14.1001C11.0846 14.1417 10.9846 14.1668 10.8846 14.1668C10.6596 14.1668 10.443 14.0501 10.3346 13.8334C9.92631 13.0584 9.57631 12.2418 9.31797 11.4084C9.19297 11.0168 9.09297 10.6251 9.0013 10.2251C8.90964 10.6251 8.80963 11.0168 8.68463 11.4084C8.4263 12.2418 8.08463 13.0584 7.66796 13.8334C7.55963 14.0501 7.34296 14.1668 7.11796 14.1668C7.01796 14.1668 6.91798 14.1501 6.82631 14.1001C6.51798 13.9334 6.40129 13.5584 6.56796 13.2501C6.94296 12.5417 7.2513 11.7918 7.49297 11.0334C7.80964 10.0418 8.00963 9.00842 8.08463 7.96676C7.23463 7.91676 6.4013 7.79175 5.58463 7.59175C5.2513 7.51675 5.04297 7.17506 5.11797 6.84173C5.2013 6.50839 5.54297 6.30007 5.8763 6.3834C7.90964 6.86674 10.1013 6.86674 12.1263 6.3834C12.4596 6.30007 12.8013 6.50839 12.8846 6.84173C12.9596 7.17506 12.7596 7.51675 12.418 7.59175Z" fill="currentcolor"/>
</svg>
