<svg width="36" height="36" viewBox="0 0 36 36" fill="none" xmlns="http://www.w3.org/2000/svg">
<path fill-rule="evenodd" clip-rule="evenodd" d="M31.5 9V10.5H33V30H31.5V31.5H4.5V30H3V10.5H4.5V9H10.5V6H25.5V9H31.5ZM28.5 27H30V13.5H28.5V12H22.5V10.5V9H13.5V10.5V12H7.5V13.5H6V27H7.5V28.5H28.5V27ZM13.5 13.5H22.5V15H24V24H22.5V25.5H13.5V24H12V15H13.5V13.5ZM19.5 21H21V18H19.5V16.5H16.5V18H15V21H16.5V22.5H19.5V21Z" fill="currentcolor"/>
<path d="M5.5 12L12 8H23.5V10L26.5 9.5L32 13V28L29 30.5H7L4.5 28L5.5 12Z" fill="currentcolor"/>
</svg>
