<svg width="28" height="28" viewBox="0 0 28 28" fill="none" xmlns="http://www.w3.org/2000/svg">
<rect x="4.66602" y="19.833" width="18.6667" height="2.33333" fill="currentcolor"/>
<rect x="4.66602" y="8.16699" width="18.6667" height="2.33333" fill="currentcolor"/>
<rect x="9.33398" y="5.83301" width="2.33333" height="2.33333" fill="currentcolor"/>
<rect x="16.334" y="5.83301" width="2.33333" height="2.33333" fill="currentcolor"/>
<rect x="10.5" y="4.66699" width="7" height="2.33333" fill="currentcolor"/>
<rect x="5.83398" y="9.33301" width="11.6667" height="2.33333" transform="rotate(90 5.83398 9.33301)" fill="currentcolor"/>
<rect x="24.5" y="9.33301" width="11.6667" height="2.33333" transform="rotate(90 24.5 9.33301)" fill="currentcolor"/>
<rect width="2.33333" height="2.33333" transform="matrix(-1 -8.74228e-08 -8.74228e-08 1 15.166 11.667)" fill="currentcolor"/>
<rect width="1.16667" height="1.16667" transform="matrix(-1 -8.74228e-08 -8.74228e-08 1 16.334 12.833)" fill="currentcolor"/>
<rect width="2.33333" height="2.33333" transform="matrix(-1 -8.74228e-08 -8.74228e-08 1 17.5 14)" fill="currentcolor"/>
<rect width="2.33333" height="2.33333" transform="matrix(-1 -8.74228e-08 -8.74228e-08 1 19.834 11.667)" fill="currentcolor"/>
<rect width="1.16667" height="1.16667" transform="matrix(-1 -8.74228e-08 -8.74228e-08 1 16.334 16.333)" fill="currentcolor"/>
<rect width="2.33333" height="2.33333" transform="matrix(-1 -8.74228e-08 -8.74228e-08 1 15.166 16.333)" fill="currentcolor"/>
<rect width="1.16667" height="1.16667" transform="matrix(-1 -8.74228e-08 -8.74228e-08 1 12.834 16.333)" fill="currentcolor"/>
<rect width="1.16667" height="1.16667" transform="matrix(-1 -8.74228e-08 -8.74228e-08 1 12.834 12.833)" fill="currentcolor"/>
<rect width="2.33333" height="2.33333" transform="matrix(-1 -8.74228e-08 -8.74228e-08 1 12.834 14)" fill="currentcolor"/>
</svg>
