<svg width="28" height="28" viewBox="0 0 28 28" fill="none" xmlns="http://www.w3.org/2000/svg">
<rect x="6.41602" y="6.41669" width="2.33333" height="2.33333" fill="currentcolor"/>
<rect x="7.58398" y="7.58331" width="2.33333" height="2.33333" fill="currentcolor"/>
<rect x="8.75" y="8.75" width="2.33333" height="2.33333" fill="currentcolor"/>
<rect x="9.91602" y="9.91669" width="2.33333" height="2.33333" fill="currentcolor"/>
<rect x="15.75" y="15.75" width="2.33333" height="2.33333" fill="currentcolor"/>
<rect x="16.916" y="16.9167" width="2.33333" height="2.33333" fill="currentcolor"/>
<rect x="18.084" y="18.0833" width="2.33333" height="2.33333" fill="currentcolor"/>
<rect x="19.25" y="19.25" width="2.33333" height="2.33333" fill="currentcolor"/>
<rect x="11.084" y="11.0833" width="2.33333" height="2.33333" fill="currentcolor"/>
<rect x="14.584" y="14.5833" width="2.33333" height="2.33333" fill="currentcolor"/>
<rect x="21.584" y="6.41669" width="2.33333" height="2.33333" transform="rotate(90 21.584 6.41669)" fill="currentcolor"/>
<rect x="20.416" y="7.58331" width="2.33333" height="2.33333" transform="rotate(90 20.416 7.58331)" fill="currentcolor"/>
<rect x="19.25" y="8.75" width="2.33333" height="2.33333" transform="rotate(90 19.25 8.75)" fill="currentcolor"/>
<rect x="18.084" y="9.91669" width="2.33333" height="2.33333" transform="rotate(90 18.084 9.91669)" fill="currentcolor"/>
<rect x="12.25" y="15.75" width="2.33333" height="2.33333" transform="rotate(90 12.25 15.75)" fill="currentcolor"/>
<rect x="11.084" y="16.9167" width="2.33333" height="2.33333" transform="rotate(90 11.084 16.9167)" fill="currentcolor"/>
<rect x="9.91602" y="18.0833" width="2.33333" height="2.33333" transform="rotate(90 9.91602 18.0833)" fill="currentcolor"/>
<rect x="8.75" y="19.25" width="2.33333" height="2.33333" transform="rotate(90 8.75 19.25)" fill="currentcolor"/>
<rect x="16.916" y="11.0833" width="2.33333" height="2.33333" transform="rotate(90 16.916 11.0833)" fill="currentcolor"/>
<rect x="14.584" y="13.4167" width="2.33333" height="2.33333" transform="rotate(90 14.584 13.4167)" fill="currentcolor"/>
<rect x="15.75" y="12.25" width="2.33333" height="2.33333" transform="rotate(90 15.75 12.25)" fill="currentcolor"/>
<rect x="13.416" y="14.5833" width="2.33333" height="2.33333" transform="rotate(90 13.416 14.5833)" fill="currentcolor"/>
</svg>
