<svg width="66" height="66" viewBox="0 0 66 66" fill="none" xmlns="http://www.w3.org/2000/svg">
<path d="M24.0996 26.0737H26.214V28.1389H24.0996V26.0737Z" fill="currentcolor"/>
<path d="M22.0352 28.1392H24.1003V30.2535H22.0352V28.1392Z" fill="currentcolor"/>
<path d="M29.3613 44.6113H31.4265V46.7257H29.3613V44.6113Z" fill="currentcolor"/>
<path d="M27.5898 41.4155H29.655V44.6117H27.5898V41.4155Z" fill="currentcolor"/>
<path d="M25.918 39.3013H27.9832V41.4156H25.918V39.3013Z" fill="currentcolor"/>
<path d="M24.1484 37.1865H26.2136V39.3009H24.1484V37.1865Z" fill="currentcolor"/>
<path d="M37.7695 37.1865H39.8347V39.3009H37.7695V37.1865Z" fill="currentcolor"/>
<path d="M35.7051 38.9077H37.7703V41.0221H35.7051V38.9077Z" fill="currentcolor"/>
<path d="M33.8359 40.5303H35.9011V42.6446H33.8359V40.5303Z" fill="currentcolor"/>
<path d="M31.7695 40.5303H33.8347V42.6446H31.7695V40.5303Z" fill="currentcolor"/>
<path d="M30.3926 38.6123H32.4578V40.7267H30.3926V38.6123Z" fill="currentcolor"/>
<path d="M29.4102 36.498H31.4753V38.6124H29.4102V36.498Z" fill="currentcolor"/>
<path d="M30.7383 34.3838H34.377V36.4982H30.7383V34.3838Z" fill="currentcolor"/>
<path d="M24.1484 35.0723H26.2136V37.1866H24.1484V35.0723Z" fill="currentcolor"/>
<path d="M37.7695 35.0723H39.8347V37.1866H37.7695V35.0723Z" fill="currentcolor"/>
<path d="M25.918 32.958H27.9832V35.0724H25.918V32.958Z" fill="currentcolor"/>
<path d="M38.5547 32.958H36.4895V35.0724H38.5547V32.958Z" fill="currentcolor"/>
<path d="M27.2949 30.8433H29.3601V32.9576H27.2949V30.8433Z" fill="currentcolor"/>
<path d="M37.1797 30.8433H35.1145V32.9576H37.1797V30.8433Z" fill="currentcolor"/>
<path d="M29.3613 29.7617H35.1144V31.8761H29.3613V29.7617Z" fill="currentcolor"/>
<path d="M19.9199 30.2534H22.0343V32.3678H19.9199V30.2534Z" fill="currentcolor"/>
<path d="M42.9824 30.2534H45.0968V32.3678H42.9824V30.2534Z" fill="currentcolor"/>
<path d="M19.9199 32.3677H22.0343V34.4329H19.9199V32.3677Z" fill="currentcolor"/>
<path d="M42.9824 32.3677H45.0968V34.4329H42.9824V32.3677Z" fill="currentcolor"/>
<path d="M19.9199 34.4331H22.0343V36.5475H19.9199V34.4331Z" fill="currentcolor"/>
<path d="M42.9824 34.4331H45.0968V36.5475H42.9824V34.4331Z" fill="currentcolor"/>
<path d="M19.9199 36.5474H22.0343V38.6617H19.9199V36.5474Z" fill="currentcolor"/>
<path d="M42.9824 36.5474H45.0968V38.6617H42.9824V36.5474Z" fill="currentcolor"/>
<path d="M19.9199 38.6616H22.0343V40.7268H19.9199V38.6616Z" fill="currentcolor"/>
<path d="M42.9824 38.6616H45.0968V40.7268H42.9824V38.6616Z" fill="currentcolor"/>
<path d="M19.9199 40.7271H22.0343V42.8414H19.9199V40.7271Z" fill="currentcolor"/>
<path d="M42.9824 40.7271H45.0968V42.8414H42.9824V40.7271Z" fill="currentcolor"/>
<path d="M40.916 42.8413H42.9812V44.9557H40.916V42.8413Z" fill="currentcolor"/>
<path d="M38.8008 44.9556H40.9151V47.0208H38.8008V44.9556Z" fill="currentcolor"/>
<path d="M22.0352 42.8413H24.1003V44.9557H22.0352V42.8413Z" fill="currentcolor"/>
<path d="M24.0996 44.9556H26.214V47.0208H24.0996V44.9556Z" fill="currentcolor"/>
<path d="M26.2129 47.021H28.3273V49.1354H26.2129V47.021Z" fill="currentcolor"/>
<path d="M28.3281 47.021H30.3933V49.1354H28.3281V47.021Z" fill="currentcolor"/>
<path d="M30.3926 47.021H32.5069V49.1354H30.3926V47.021Z" fill="currentcolor"/>
<path d="M26.2129 23.9595H34.6212V26.0738H26.2129V23.9595Z" fill="currentcolor"/>
<path d="M32.5078 47.021H34.6222V49.1354H32.5078V47.021Z" fill="currentcolor"/>
<path d="M34.623 23.9595H36.6882V26.0738H34.623V23.9595Z" fill="currentcolor"/>
<path d="M34.623 47.021H36.6882V49.1354H34.623V47.021Z" fill="currentcolor"/>
<path d="M36.6875 23.9595H38.8019V26.0738H36.6875V23.9595Z" fill="currentcolor"/>
<path d="M38.8008 26.0737H40.9151V28.1389H38.8008V26.0737Z" fill="currentcolor"/>
<path d="M40.916 28.1392H42.9812V30.2535H40.916V28.1392Z" fill="currentcolor"/>
<path d="M36.6875 47.021H38.8019V49.1354H36.6875V47.021Z" fill="currentcolor"/>
<path d="M13.3145 21.7061H9.27391V23.804H13.3145V21.7061Z" fill="currentcolor"/>
<path d="M51.7148 21.7061H55.7554V23.804H51.7148V21.7061Z" fill="currentcolor"/>
<path d="M13.3145 51H9.27391V48.902H13.3145V51Z" fill="currentcolor"/>
<path d="M51.7148 51H55.7554V48.902H51.7148V51Z" fill="currentcolor"/>
<path d="M7.09766 32.1958L7.09766 25.6688L4.99968 25.6688L4.99968 32.1958L7.09766 32.1958Z" fill="currentcolor"/>
<path d="M57.9316 32.1958L57.9316 25.6688L60.0296 25.6688L60.0296 32.1958L57.9316 32.1958Z" fill="currentcolor"/>
<path d="M7.09766 40.5103L7.09766 47.0373L4.99968 47.0373L4.99968 40.5103L7.09766 40.5103Z" fill="currentcolor"/>
<path d="M57.9316 40.5103L57.9316 47.0373L60.0296 47.0373L60.0296 40.5103L57.9316 40.5103Z" fill="currentcolor"/>
<path d="M39.9041 5H37.3242V7.57241H39.9041V5Z" fill="currentcolor"/>
<path d="M13.8446 7.56396H8.66782V10.1533H6.08789V15.2981H8.66782V12.7257H11.2647V10.1533H13.8446V7.56396Z" fill="currentcolor"/>
<path d="M36.951 17.8208H34.3711V20.3932H36.951V17.8208Z" fill="currentcolor"/>
<path d="M59.4081 13.936H56.8281V16.5084H59.4081V13.936Z" fill="currentcolor"/>
<path d="M21.0233 16.5H18.4434V19.0724H21.0233V16.5Z" fill="currentcolor"/>
<path d="M43.2459 13.936V16.5254H40.666V19.0978H43.2459V21.6702H45.8259V19.0978H48.4228V16.5254H45.8259V13.936H43.2459Z" fill="currentcolor"/>
<path d="M28.1268 7.48633H25.5469V10.0587H28.1268V7.48633Z" fill="currentcolor"/>
<path d="M30.7069 10.0586H28.127V12.6479H30.7069V10.0586Z" fill="currentcolor"/>
<path d="M28.1268 12.6479H25.5469V15.2204H28.1268V12.6479Z" fill="currentcolor"/>
<path d="M25.5481 10.0586H22.9512V12.6479H25.5481V10.0586Z" fill="currentcolor"/>
<path d="M15.5059 25.9795L15.5059 28.1552L17.6815 28.1552L17.6815 25.9795L15.5059 25.9795Z" fill="currentcolor"/>
<path d="M49.5234 25.9795L49.5234 28.1552L47.3478 28.1552L47.3478 25.9795L49.5234 25.9795Z" fill="currentcolor"/>
<path d="M13.3145 23.8042L13.3145 25.9799L15.4901 25.9799L15.4901 23.8042L13.3145 23.8042Z" fill="currentcolor"/>
<path d="M51.7148 23.8042L51.7148 25.9799L49.5392 25.9799L49.5392 23.8042L51.7148 23.8042Z" fill="currentcolor"/>
<path d="M7.09766 23.5708L7.09766 25.7465L9.27333 25.7465L9.27333 23.5708L7.09766 23.5708Z" fill="currentcolor"/>
<path d="M57.9316 23.5708L57.9316 25.7465L55.756 25.7465L55.756 23.5708L57.9316 23.5708Z" fill="currentcolor"/>
<path d="M7.09766 49.1353L7.09766 46.9596L9.27333 46.9596L9.27333 49.1353L7.09766 49.1353Z" fill="currentcolor"/>
<path d="M57.9316 49.1353L57.9316 46.9596L55.756 46.9596L55.756 49.1353L57.9316 49.1353Z" fill="currentcolor"/>
<path d="M7.09766 32.1182L7.09766 34.2938L9.27333 34.2938L9.27333 32.1182L7.09766 32.1182Z" fill="currentcolor"/>
<path d="M57.9316 32.1182L57.9316 34.2938L55.756 34.2938L55.756 32.1182L57.9316 32.1182Z" fill="currentcolor"/>
<path d="M7.09766 38.3345L7.09766 40.5101L9.27333 40.5101L9.27333 38.3345L7.09766 38.3345Z" fill="currentcolor"/>
<path d="M57.9316 38.3345L57.9316 40.5101L55.756 40.5101L55.756 38.3345L57.9316 38.3345Z" fill="currentcolor"/>
<path d="M5 34.2163L5 38.8008L7.17568 38.8008L7.17568 34.2163L5 34.2163Z" fill="currentcolor"/>
<path d="M60.0137 34.1382L60.0137 38.7226L57.838 38.7226L57.838 34.1382L60.0137 34.1382Z" fill="currentcolor"/>
<path d="M15.5059 47.2705L15.5059 45.0948L17.6815 45.0948L17.6815 47.2705L15.5059 47.2705Z" fill="currentcolor"/>
<path d="M49.5234 47.2705L49.5234 45.0948L47.3478 45.0948L47.3478 47.2705L49.5234 47.2705Z" fill="currentcolor"/>
<path d="M13.3145 49.2129L13.3145 47.0372L15.4901 47.0372L15.4901 49.2129L13.3145 49.2129Z" fill="currentcolor"/>
<path d="M51.7148 49.2129L51.7148 47.0372L49.5392 47.0372L49.5392 49.2129L51.7148 49.2129Z" fill="currentcolor"/>
<path d="M17.6816 28.1553L17.6816 30.4087L19.935 30.4087L19.935 28.1553L17.6816 28.1553Z" fill="currentcolor"/>
<path d="M47.3477 28.1553L47.3477 30.4087L45.0943 30.4087L45.0943 28.1553L47.3477 28.1553Z" fill="currentcolor"/>
<path d="M17.6816 45.0947L17.6816 42.8413L19.935 42.8413L19.935 45.0947L17.6816 45.0947Z" fill="currentcolor"/>
<path d="M47.3477 45.0947L47.3477 42.8413L45.0943 42.8413L45.0943 45.0947L47.3477 45.0947Z" fill="currentcolor"/>
</svg>
