<svg width="66" height="66" viewBox="0 0 66 66" fill="none" xmlns="http://www.w3.org/2000/svg">
<path d="M24.0977 25.3677H26.212V27.4329H24.0977V25.3677Z" fill="currentcolor"/>
<path d="M22.0332 27.4331H24.0984V29.5475H22.0332V27.4331Z" fill="currentcolor"/>
<path d="M29.3594 43.9053H31.4246V46.0196H29.3594V43.9053Z" fill="currentcolor"/>
<path d="M27.5879 40.709H29.6531V43.9051H27.5879V40.709Z" fill="currentcolor"/>
<path d="M25.916 38.5947H27.9812V40.7091H25.916V38.5947Z" fill="currentcolor"/>
<path d="M24.1465 36.4805H26.2117V38.5948H24.1465V36.4805Z" fill="currentcolor"/>
<path d="M37.7676 36.4805H39.8328V38.5948H37.7676V36.4805Z" fill="currentcolor"/>
<path d="M35.7031 38.2017H37.7683V40.316H35.7031V38.2017Z" fill="currentcolor"/>
<path d="M33.834 39.8242H35.8992V41.9386H33.834V39.8242Z" fill="currentcolor"/>
<path d="M31.7676 39.8242H33.8328V41.9386H31.7676V39.8242Z" fill="currentcolor"/>
<path d="M30.3906 37.9062H32.4558V40.0206H30.3906V37.9062Z" fill="currentcolor"/>
<path d="M29.4082 35.792H31.4734V37.9064H29.4082V35.792Z" fill="currentcolor"/>
<path d="M30.7363 33.6777H34.375V35.7921H30.7363V33.6777Z" fill="currentcolor"/>
<path d="M24.1465 34.3662H26.2117V36.4806H24.1465V34.3662Z" fill="currentcolor"/>
<path d="M37.7676 34.3662H39.8328V36.4806H37.7676V34.3662Z" fill="currentcolor"/>
<path d="M25.916 32.252H27.9812V34.3663H25.916V32.252Z" fill="currentcolor"/>
<path d="M38.5547 32.252H36.4895V34.3663H38.5547V32.252Z" fill="currentcolor"/>
<path d="M27.293 30.1372H29.3582V32.2516H27.293V30.1372Z" fill="currentcolor"/>
<path d="M37.1777 30.1372H35.1125V32.2516H37.1777V30.1372Z" fill="currentcolor"/>
<path d="M29.3594 29.0557H35.1124V31.17H29.3594V29.0557Z" fill="currentcolor"/>
<path d="M19.918 29.5474H22.0323V31.6617H19.918V29.5474Z" fill="currentcolor"/>
<path d="M42.9805 29.5474H45.0948V31.6617H42.9805V29.5474Z" fill="currentcolor"/>
<path d="M19.918 31.6616H22.0323V33.7268H19.918V31.6616Z" fill="currentcolor"/>
<path d="M42.9805 31.6616H45.0948V33.7268H42.9805V31.6616Z" fill="currentcolor"/>
<path d="M19.918 33.7266H22.0323V35.8409H19.918V33.7266Z" fill="currentcolor"/>
<path d="M42.9805 33.7266H45.0948V35.8409H42.9805V33.7266Z" fill="currentcolor"/>
<path d="M19.918 35.8413H22.0323V37.9557H19.918V35.8413Z" fill="currentcolor"/>
<path d="M42.9805 35.8413H45.0948V37.9557H42.9805V35.8413Z" fill="currentcolor"/>
<path d="M19.918 37.9556H22.0323V40.0208H19.918V37.9556Z" fill="currentcolor"/>
<path d="M42.9805 37.9556H45.0948V40.0208H42.9805V37.9556Z" fill="currentcolor"/>
<path d="M19.918 40.021H22.0323V42.1354H19.918V40.021Z" fill="currentcolor"/>
<path d="M42.9805 40.021H45.0948V42.1354H42.9805V40.021Z" fill="currentcolor"/>
<path d="M40.9141 42.1353H42.9793V44.2496H40.9141V42.1353Z" fill="currentcolor"/>
<path d="M38.7988 44.2495H40.9132V46.3147H38.7988V44.2495Z" fill="currentcolor"/>
<path d="M22.0332 42.1353H24.0984V44.2496H22.0332V42.1353Z" fill="currentcolor"/>
<path d="M24.0977 44.2495H26.212V46.3147H24.0977V44.2495Z" fill="currentcolor"/>
<path d="M26.2109 46.3145H28.3253V48.4288H26.2109V46.3145Z" fill="currentcolor"/>
<path d="M28.3262 46.3145H30.3914V48.4288H28.3262V46.3145Z" fill="currentcolor"/>
<path d="M30.3906 46.3145H32.505V48.4288H30.3906V46.3145Z" fill="currentcolor"/>
<path d="M26.2109 23.2534H34.6192V25.3678H26.2109V23.2534Z" fill="currentcolor"/>
<path d="M32.5059 46.3145H34.6202V48.4288H32.5059V46.3145Z" fill="currentcolor"/>
<path d="M34.6211 23.2534H36.6863V25.3678H34.6211V23.2534Z" fill="currentcolor"/>
<path d="M34.6211 46.3145H36.6863V48.4288H34.6211V46.3145Z" fill="currentcolor"/>
<path d="M36.6855 23.2534H38.7999V25.3678H36.6855V23.2534Z" fill="currentcolor"/>
<path d="M38.7988 25.3677H40.9132V27.4329H38.7988V25.3677Z" fill="currentcolor"/>
<path d="M40.9141 27.4331H42.9793V29.5475H40.9141V27.4331Z" fill="currentcolor"/>
<path d="M36.6855 46.3145H38.7999V48.4288H36.6855V46.3145Z" fill="currentcolor"/>
<path d="M13.3145 21H9.27391V23.098H13.3145V21Z" fill="currentcolor"/>
<path d="M51.7148 21H55.7554V23.098H51.7148V21Z" fill="currentcolor"/>
<path d="M13.3145 50.2939H9.27391V48.196H13.3145V50.2939Z" fill="currentcolor"/>
<path d="M51.7148 50.2939H55.7554V48.196H51.7148V50.2939Z" fill="currentcolor"/>
<path d="M7.09766 31.4897L7.09766 24.9627L4.99968 24.9627L4.99968 31.4897L7.09766 31.4897Z" fill="currentcolor"/>
<path d="M57.9316 31.4897L57.9316 24.9627L60.0296 24.9627L60.0296 31.4897L57.9316 31.4897Z" fill="currentcolor"/>
<path d="M7.09766 39.8042L7.09766 46.3312L4.99968 46.3312L4.99968 39.8042L7.09766 39.8042Z" fill="currentcolor"/>
<path d="M57.9316 39.8042L57.9316 46.3312L60.0296 46.3312L60.0296 39.8042L57.9316 39.8042Z" fill="currentcolor"/>
<path d="M15.5059 25.2734L15.5059 27.4491L17.6815 27.4491L17.6815 25.2734L15.5059 25.2734Z" fill="currentcolor"/>
<path d="M49.5234 25.2734L49.5234 27.4491L47.3478 27.4491L47.3478 25.2734L49.5234 25.2734Z" fill="currentcolor"/>
<path d="M13.3145 23.0981L13.3145 25.2738L15.4901 25.2738L15.4901 23.0981L13.3145 23.0981Z" fill="currentcolor"/>
<path d="M51.7148 23.0981L51.7148 25.2738L49.5392 25.2738L49.5392 23.0981L51.7148 23.0981Z" fill="currentcolor"/>
<path d="M7.09766 22.8647L7.09766 25.0404L9.27333 25.0404L9.27333 22.8647L7.09766 22.8647Z" fill="currentcolor"/>
<path d="M57.9316 22.8647L57.9316 25.0404L55.756 25.0404L55.756 22.8647L57.9316 22.8647Z" fill="currentcolor"/>
<path d="M7.09766 48.4292L7.09766 46.2535L9.27333 46.2535L9.27333 48.4292L7.09766 48.4292Z" fill="currentcolor"/>
<path d="M57.9316 48.4292L57.9316 46.2535L55.756 46.2535L55.756 48.4292L57.9316 48.4292Z" fill="currentcolor"/>
<path d="M7.09766 31.4121L7.09766 33.5878L9.27333 33.5878L9.27333 31.4121L7.09766 31.4121Z" fill="currentcolor"/>
<path d="M57.9316 31.4121L57.9316 33.5878L55.756 33.5878L55.756 31.4121L57.9316 31.4121Z" fill="currentcolor"/>
<path d="M7.09766 37.6284L7.09766 39.8041L9.27333 39.8041L9.27333 37.6284L7.09766 37.6284Z" fill="currentcolor"/>
<path d="M57.9316 37.6284L57.9316 39.8041L55.756 39.8041L55.756 37.6284L57.9316 37.6284Z" fill="currentcolor"/>
<path d="M5 33.5103L5 38.0947L7.17568 38.0947L7.17568 33.5103L5 33.5103Z" fill="currentcolor"/>
<path d="M60.0117 33.4321L60.0117 38.0166L57.836 38.0166L57.836 33.4321L60.0117 33.4321Z" fill="currentcolor"/>
<path d="M15.5059 46.5645L15.5059 44.3888L17.6815 44.3888L17.6815 46.5645L15.5059 46.5645Z" fill="currentcolor"/>
<path d="M49.5234 46.5645L49.5234 44.3888L47.3478 44.3888L47.3478 46.5645L49.5234 46.5645Z" fill="currentcolor"/>
<path d="M13.3145 48.5068L13.3145 46.3312L15.4901 46.3312L15.4901 48.5068L13.3145 48.5068Z" fill="currentcolor"/>
<path d="M51.7148 48.5068L51.7148 46.3312L49.5392 46.3312L49.5392 48.5068L51.7148 48.5068Z" fill="currentcolor"/>
<path d="M17.6816 27.4492L17.6816 29.7026L19.935 29.7026L19.935 27.4492L17.6816 27.4492Z" fill="currentcolor"/>
<path d="M47.3477 27.4492L47.3477 29.7026L45.0943 29.7026L45.0943 27.4492L47.3477 27.4492Z" fill="currentcolor"/>
<path d="M17.6816 44.3887L17.6816 42.1353L19.935 42.1353L19.935 44.3887L17.6816 44.3887Z" fill="currentcolor"/>
<path d="M47.3477 44.3887L47.3477 42.1353L45.0943 42.1353L45.0943 44.3887L47.3477 44.3887Z" fill="currentcolor"/>
</svg>
