<svg width="32" height="32" viewBox="0 0 32 32" fill="none" xmlns="http://www.w3.org/2000/svg">
<rect width="8" height="2" transform="matrix(-1 0 0 1 29 7)" fill="currentcolor"/>
<rect width="8" height="2" transform="matrix(4.37114e-08 1 1 -4.37114e-08 28 7)" fill="currentcolor"/>
<rect x="23" y="13" width="6" height="2" fill="currentcolor"/>
<rect x="4" y="7" width="8" height="2" fill="currentcolor"/>
<rect x="5" y="7" width="8" height="2" transform="rotate(90 5 7)" fill="currentcolor"/>
<rect width="6" height="2" transform="matrix(-1 0 0 1 10 13)" fill="currentcolor"/>
<rect width="2.37548" height="2.37548" transform="matrix(-1 0 0 1 21.8477 7)" fill="currentcolor"/>
<rect width="2.37548" height="2.37548" transform="matrix(-1 0 0 1 20.2637 8.58301)" fill="currentcolor"/>
<rect x="11" y="7" width="2.37548" height="2.37548" fill="currentcolor"/>
<rect x="12.584" y="8.58301" width="2.37548" height="2.37548" fill="currentcolor"/>
<rect x="14.4043" y="9.8501" width="3.80077" height="1.90038" fill="currentcolor"/>
<rect x="9" y="13" width="2" height="13" fill="currentcolor"/>
<rect x="22" y="13" width="2" height="13" fill="currentcolor"/>
<rect x="24" y="24.1001" width="1.90038" height="14.4" transform="rotate(90 24 24.1001)" fill="currentcolor"/>
<rect x="5" y="9" width="8" height="5" fill="currentcolor"/>
<rect x="20" y="9" width="9" height="5" fill="currentcolor"/>
<rect x="11" y="10" width="12" height="15" fill="currentcolor"/>
</svg>
