<svg width="28" height="28" viewBox="0 0 28 28" fill="none" xmlns="http://www.w3.org/2000/svg">
<path d="M16.2222 9.55556H18.4444V11.7778H16.2222V9.55556Z" fill="currentcolor"/>
<path d="M17.3333 8.44444H19.5556V10.6667H17.3333V8.44444Z" fill="currentcolor"/>
<path d="M15.1111 10.6667H17.3333V12.8889H15.1111V10.6667Z" fill="currentcolor"/>
<path d="M14 11.7778H16.2222V14H14V11.7778Z" fill="currentcolor"/>
<path d="M18.4444 7.33333H20.6667V9.55556H18.4444V7.33333Z" fill="currentcolor"/>
<path d="M19.5556 6.22222H21.7778V8.44444H19.5556V6.22222Z" fill="currentcolor"/>
<path d="M20.6667 5.11111H22.8889V7.33333H20.6667V5.11111Z" fill="currentcolor"/>
<path d="M21.7778 4H22.8889V6.22222H21.7778V4Z" fill="currentcolor"/>
<path d="M24 5.11111V6.22222H21.7778V5.11111L24 5.11111Z" fill="currentcolor"/>
<rect x="6.22266" y="5.11084" width="17.7778" height="2.22222" transform="rotate(90 6.22266 5.11084)" fill="currentcolor"/>
<rect x="24" y="14" width="8.88889" height="2.22222" transform="rotate(90 24 14)" fill="currentcolor"/>
<rect x="5.11133" y="4" width="8.88889" height="2.22222" fill="currentcolor"/>
<rect x="5.11133" y="21.7778" width="17.7778" height="2.22222" fill="currentcolor"/>
</svg>
