<svg width="18" height="18" viewBox="0 0 18 18" fill="none" xmlns="http://www.w3.org/2000/svg">
<path d="M9.0013 0.666748C4.40964 0.666748 0.667969 4.40841 0.667969 9.00008C0.667969 13.5917 4.40964 17.3334 9.0013 17.3334C13.593 17.3334 17.3346 13.5917 17.3346 9.00008C17.3346 4.40841 13.593 0.666748 9.0013 0.666748ZM13.0263 11.9584C12.768 12.2834 11.3846 13.9084 9.03463 13.9084H8.99297C6.71797 13.8918 5.34297 12.3334 5.09297 12.0167C4.8763 11.7501 4.91797 11.3584 5.18463 11.1418C5.4513 10.9251 5.84297 10.9584 6.05964 11.2334C6.2513 11.4667 7.29296 12.6418 9.00963 12.6584H9.03463C10.843 12.6584 11.9263 11.3334 12.043 11.1834C12.2596 10.9167 12.6513 10.8667 12.918 11.0751C13.193 11.2917 13.243 11.6834 13.0263 11.9584ZM6.0013 6.28341C6.58463 6.28341 7.05963 6.75008 7.05963 7.33341C7.05963 7.91675 6.58463 8.38342 6.0013 8.38342C5.4263 8.38342 4.9513 7.91675 4.9513 7.33341C4.9513 6.75008 5.4263 6.28341 6.0013 6.28341ZM10.943 7.33341C10.943 6.75008 11.418 6.28341 12.0013 6.28341C12.5846 6.28341 13.0513 6.75008 13.0513 7.33341C13.0513 7.91675 12.5846 8.38342 12.0013 8.38342C11.418 8.38342 10.943 7.91675 10.943 7.33341Z" fill="currentcolor"/>
</svg>
