<svg width="38" height="40" viewBox="0 0 38 40" fill="none" xmlns="http://www.w3.org/2000/svg">
<g filter="url(#filter0_d_1988_6055)">
<path d="M32.5 10.5V9H29.5V7.5H26.5V6H23.5V4.5H14.5V6H11.5V7.5H8.5V9H5.5V10.5H4V13.5H5.5V28.5H4V31.5H17.5V21H20.5V31.5H34V28.5H32.5V13.5H34V10.5H32.5ZM29.5 28.5H23.5V18H14.5V28.5H8.5V12H11.5V10.5H14.5V9H17.5V7.5H20.5V9H23.5V10.5H26.5V12H29.5V28.5Z" fill="currentcolor"/>
</g>
<defs>
<filter id="filter0_d_1988_6055" x="-3" y="0" width="44" height="44" filterUnits="userSpaceOnUse" color-interpolation-filters="sRGB">
<feFlood flood-opacity="0" result="BackgroundImageFix"/>
<feColorMatrix in="SourceAlpha" type="matrix" values="0 0 0 0 0 0 0 0 0 0 0 0 0 0 0 0 0 0 127 0" result="hardAlpha"/>
<feOffset dy="4"/>
<feGaussianBlur stdDeviation="2"/>
<feComposite in2="hardAlpha" operator="out"/>
<feColorMatrix type="matrix" values="0 0 0 0 0 0 0 0 0 0 0 0 0 0 0 0 0 0 0.25 0"/>
<feBlend mode="normal" in2="BackgroundImageFix" result="effect1_dropShadow_1988_6055"/>
<feBlend mode="normal" in="SourceGraphic" in2="effect1_dropShadow_1988_6055" result="shape"/>
</filter>
</defs>
</svg>
