<svg width="40" height="40" viewBox="0 0 40 40" fill="none" xmlns="http://www.w3.org/2000/svg">
<rect x="8.33203" y="8.33203" width="23.3333" height="3.33333" transform="rotate(90 8.33203 8.33203)" fill="currentcolor"/>
<rect x="10" y="25" width="3.33333" height="3.33333" transform="rotate(90 10 25)" fill="currentcolor"/>
<rect x="11.668" y="23.332" width="3.33333" height="3.33333" transform="rotate(90 11.668 23.332)" fill="currentcolor"/>
<rect x="13.332" y="21.666" width="3.33333" height="3.33333" transform="rotate(90 13.332 21.666)" fill="currentcolor"/>
<rect x="15" y="20" width="3.33333" height="3.33333" transform="rotate(90 15 20)" fill="currentcolor"/>
<rect x="18.332" y="21.666" width="3.33333" height="3.33333" transform="rotate(90 18.332 21.666)" fill="currentcolor"/>
<rect x="21.668" y="23.332" width="3.33333" height="3.33333" transform="rotate(90 21.668 23.332)" fill="currentcolor"/>
<rect x="25" y="25" width="3.33333" height="3.33333" transform="rotate(90 25 25)" fill="currentcolor"/>
<rect x="28.332" y="26.666" width="3.33333" height="3.33333" transform="rotate(90 28.332 26.666)" fill="currentcolor"/>
<rect x="31.668" y="28.332" width="3.33333" height="3.33333" transform="rotate(90 31.668 28.332)" fill="currentcolor"/>
<rect x="35" y="8.33203" width="23.3333" height="3.33333" transform="rotate(90 35 8.33203)" fill="currentcolor"/>
<rect x="8.33203" y="5" width="23.3333" height="3.33333" fill="currentcolor"/>
<rect x="8.33203" y="31.666" width="23.3333" height="3.33333" fill="currentcolor"/>
<rect width="3.33333" height="3.33333" transform="matrix(-1 -8.74228e-08 -8.74228e-08 1 28.332 15)" fill="currentcolor"/>
<rect width="3.33333" height="3.33333" transform="matrix(-1 -8.74228e-08 -8.74228e-08 1 25 18.332)" fill="currentcolor"/>
<rect width="3.33333" height="3.33333" transform="matrix(-1 -8.74228e-08 -8.74228e-08 1 25 11.666)" fill="currentcolor"/>
<rect width="3.33333" height="3.33333" transform="matrix(-1 -8.74228e-08 -8.74228e-08 1 21.668 15)" fill="currentcolor"/>
<rect width="1.66667" height="1.66667" transform="matrix(-1 -8.74228e-08 -8.74228e-08 1 21.668 13.332)" fill="currentcolor"/>
<rect width="1.66667" height="1.66667" transform="matrix(-1 -8.74228e-08 -8.74228e-08 1 26.668 13.332)" fill="currentcolor"/>
<rect width="1.66667" height="1.66667" transform="matrix(-1 -8.74228e-08 -8.74228e-08 1 26.668 18.332)" fill="currentcolor"/>
<rect width="1.66667" height="1.66667" transform="matrix(-1 -8.74228e-08 -8.74228e-08 1 21.668 18.332)" fill="currentcolor"/>
</svg>
