<svg width="24" height="24" viewBox="0 0 24 24" fill="none" xmlns="http://www.w3.org/2000/svg">
<path d="M21.142 3.42773H20.002V18.2852H21.142V3.42773Z" fill="currentcolor"/>
<path d="M18.8545 20.5727H7.43203V19.4327H6.28453V20.5727H5.14453V24.0002H21.142V20.5727H20.002V18.2852H18.8545V20.5727ZM18.8545 22.8602H16.5745V21.7127H18.8545V22.8602Z" fill="currentcolor"/>
<path d="M20.0023 2.2876H17.7148V3.4276H20.0023V2.2876Z" fill="currentcolor"/>
<path d="M16.5746 13.7173H14.2871V14.8573H16.5746V13.7173Z" fill="currentcolor"/>
<path d="M11.9998 14.8574H8.57227V15.9974H11.9998V14.8574Z" fill="currentcolor"/>
<path d="M9.71227 10.2826H8.57227V11.4301H10.8598V8.00264H13.1473V11.4301H10.8598V12.5701H11.9998V14.8576H13.1473V13.7176H14.2873V8.00264H16.5748V13.7176H17.7148V3.42764H16.5748V6.85514H10.8598V1.14014H9.71227V10.2826Z" fill="currentcolor"/>
<path d="M9.71164 0H7.43164V1.14H9.71164V0Z" fill="currentcolor"/>
<path d="M8.57164 13.7173H7.43164V14.8573H8.57164V13.7173Z" fill="currentcolor"/>
<path d="M8.57203 10.2826V9.14264H7.43203V1.14014H6.28453V9.14264H5.14453V10.2826H8.57203Z" fill="currentcolor"/>
<path d="M6.28453 18.2852H5.14453V19.4327H6.28453V18.2852Z" fill="currentcolor"/>
<path d="M5.14586 15.9976H4.00586V18.2851H5.14586V15.9976Z" fill="currentcolor"/>
<path d="M5.14586 10.2827H4.00586V11.4302H5.14586V10.2827Z" fill="currentcolor"/>
<path d="M4.00492 11.4302H2.85742V15.9977H4.00492V11.4302Z" fill="currentcolor"/>
</svg>
