<svg width="32" height="32" viewBox="0 0 32 32" fill="none" xmlns="http://www.w3.org/2000/svg">
<path fill-rule="evenodd" clip-rule="evenodd" d="M27.9993 3.99984V5.33317H29.3327V26.6665H27.9993V27.9998H26.666V29.3332H5.33268V27.9998H3.99935V26.6665H2.66602V5.33317H3.99935V3.99984H5.33268V2.6665H26.666V3.99984H27.9993ZM25.3327 23.9998H26.666V7.99984H25.3327V6.6665H23.9993V5.33317H7.99935V6.6665H6.66602V7.99984H5.33268V23.9998H6.66602V25.3332H7.99935V26.6665H23.9993V25.3332H25.3327V23.9998ZM17.3327 10.6665V14.6665H21.3327V17.3332H17.3327V21.3332H14.666V17.3332H10.666V14.6665H14.666V10.6665H17.3327Z" fill="currentcolor"/>
</svg>
