<svg width="24" height="24" viewBox="0 0 24 24" fill="none" xmlns="http://www.w3.org/2000/svg">
<path d="M21.142 20.5723H20.002V23.9998H21.142V20.5723Z" fill="currentcolor"/>
<path d="M20.003 19.4326H18.8555V20.5726H20.003V19.4326Z" fill="currentcolor"/>
<path d="M18.8548 20.5723H17.7148V21.7123H18.8548V20.5723Z" fill="currentcolor"/>
<path d="M18.8548 18.2852H17.7148V19.4327H18.8548V18.2852Z" fill="currentcolor"/>
<path d="M17.7159 21.7124H16.5684V22.8599H17.7159V21.7124Z" fill="currentcolor"/>
<path d="M17.7152 17.145H15.4277V18.285H17.7152V17.145Z" fill="currentcolor"/>
<path d="M17.7159 8.00244H16.5684V11.4299H17.7159V8.00244Z" fill="currentcolor"/>
<path d="M16.5677 22.8599H15.4277V23.9999H16.5677V22.8599Z" fill="currentcolor"/>
<path d="M16.5677 11.4302H15.4277V12.5702H16.5677V11.4302Z" fill="currentcolor"/>
<path d="M16.5671 6.85498H14.2871V8.00248H16.5671V6.85498Z" fill="currentcolor"/>
<path d="M15.4271 18.2852H14.2871V19.4327H15.4271V18.2852Z" fill="currentcolor"/>
<path d="M15.4281 15.9976H13.1406V17.1451H15.4281V15.9976Z" fill="currentcolor"/>
<path d="M15.4271 12.5698H14.2871V13.7173H15.4271V12.5698Z" fill="currentcolor"/>
<path d="M14.2881 19.4326H13.1406V20.5726H14.2881V19.4326Z" fill="currentcolor"/>
<path d="M14.2881 13.7173H13.1406V14.8573H14.2881V13.7173Z" fill="currentcolor"/>
<path d="M14.2881 8.00244H13.1406V9.14244H14.2881V8.00244Z" fill="currentcolor"/>
<path d="M13.14 20.5723H12V21.7123H13.14V20.5723Z" fill="currentcolor"/>
<path d="M13.14 14.8574H12V15.9974H13.14V14.8574Z" fill="currentcolor"/>
<path d="M13.14 9.14258H12V10.2826H13.14V9.14258Z" fill="currentcolor"/>
<path d="M11.9994 15.9976H10.8594V17.1451H11.9994V15.9976Z" fill="currentcolor"/>
<path d="M11.9994 10.2827H10.8594V11.4302H11.9994V10.2827Z" fill="currentcolor"/>
<path d="M10.8604 17.145H9.71289V18.285H10.8604V17.145Z" fill="currentcolor"/>
<path d="M10.8604 11.4302H9.71289V12.5702H10.8604V11.4302Z" fill="currentcolor"/>
<path d="M9.71227 12.5698H8.57227V13.7173H9.71227V12.5698Z" fill="currentcolor"/>
<path d="M9.71227 9.14258H8.57227V11.4301H9.71227V9.14258Z" fill="currentcolor"/>
<path d="M8.57328 13.7173H7.42578V14.8573H8.57328V13.7173Z" fill="currentcolor"/>
<path d="M7.42516 0V1.14H6.28516V3.4275H7.42516V4.575H8.57266V5.715H9.71266V6.855H10.8602V5.715H12.0002V4.575H13.1402V3.4275H14.2877V1.14H13.1402V0H10.8602V1.14H9.71266V0H7.42516Z" fill="currentcolor"/>
<path d="M8.57203 8.00244H5.14453V9.14244H8.57203V8.00244Z" fill="currentcolor"/>
<path d="M6.28453 12.5698H5.14453V17.1448H6.28453V15.9973H7.42453V14.8573H6.28453V12.5698Z" fill="currentcolor"/>
<path d="M5.14555 17.145H3.99805V18.285H5.14555V17.145Z" fill="currentcolor"/>
<path d="M5.14555 9.14258H3.99805V12.5701H5.14555V9.14258Z" fill="currentcolor"/>
<path d="M3.99742 18.2852H2.85742V24.0002H3.99742V18.2852Z" fill="currentcolor"/>
</svg>
