<svg width="28" height="28" viewBox="0 0 28 28" fill="none" xmlns="http://www.w3.org/2000/svg">
<rect x="5.83398" y="10.5" width="7" height="2.33333" transform="rotate(90 5.83398 10.5)" fill="currentcolor"/>
<rect width="2.33333" height="2.33333" transform="matrix(-4.37114e-08 1 1 4.37114e-08 8.16797 4.66699)" fill="currentcolor"/>
<rect width="2.33333" height="2.33333" transform="matrix(-4.37114e-08 1 1 4.37114e-08 4.66797 8.16699)" fill="currentcolor"/>
<rect width="2.33333" height="2.33333" transform="matrix(-4.37114e-08 1 1 4.37114e-08 5.83398 5.83301)" fill="currentcolor"/>
<rect x="22.168" y="5.83301" width="2.33333" height="2.33333" transform="rotate(90 22.168 5.83301)" fill="currentcolor"/>
<rect x="19.834" y="4.66699" width="2.33333" height="2.33333" transform="rotate(90 19.834 4.66699)" fill="currentcolor"/>
<rect x="23.334" y="8.16699" width="2.33333" height="2.33333" transform="rotate(90 23.334 8.16699)" fill="currentcolor"/>
<rect x="4.66797" y="16.333" width="2.33333" height="2.33333" transform="rotate(-90 4.66797 16.333)" fill="currentcolor"/>
<rect x="2.33398" y="16.333" width="2.33333" height="2.33333" transform="rotate(-90 2.33398 16.333)" fill="currentcolor"/>
<rect x="5.83398" y="15.167" width="2.33333" height="2.33333" transform="rotate(-90 5.83398 15.167)" fill="currentcolor"/>
<rect x="1.16797" y="15.167" width="2.33333" height="2.33333" transform="rotate(-90 1.16797 15.167)" fill="currentcolor"/>
<rect x="10.502" y="3.5" width="7" height="2.33333" fill="currentcolor"/>
<rect x="22.166" y="19.834" width="7" height="2.33333" transform="rotate(-90 22.166 19.834)" fill="currentcolor"/>
<rect width="2.33333" height="2.33333" transform="matrix(4.37114e-08 -1 -1 -4.37114e-08 19.832 25.667)" fill="currentcolor"/>
<rect width="2.33333" height="2.33333" transform="matrix(4.37114e-08 -1 -1 -4.37114e-08 23.332 22.167)" fill="currentcolor"/>
<rect width="2.33333" height="2.33333" transform="matrix(4.37114e-08 -1 -1 -4.37114e-08 22.166 24.501)" fill="currentcolor"/>
<rect x="5.83203" y="24.501" width="2.33333" height="2.33333" transform="rotate(-90 5.83203 24.501)" fill="currentcolor"/>
<rect x="8.16602" y="25.667" width="2.33333" height="2.33333" transform="rotate(-90 8.16602 25.667)" fill="currentcolor"/>
<rect x="4.66602" y="22.167" width="2.33333" height="2.33333" transform="rotate(-90 4.66602 22.167)" fill="currentcolor"/>
<rect x="23.332" y="14.001" width="2.33333" height="2.33333" transform="rotate(90 23.332 14.001)" fill="currentcolor"/>
<rect x="25.666" y="14.001" width="2.33333" height="2.33333" transform="rotate(90 25.666 14.001)" fill="currentcolor"/>
<rect x="22.166" y="15.167" width="2.33333" height="2.33333" transform="rotate(90 22.166 15.167)" fill="currentcolor"/>
<rect x="26.832" y="15.167" width="2.33333" height="2.33333" transform="rotate(90 26.832 15.167)" fill="currentcolor"/>
<rect x="17.498" y="26.834" width="7" height="2.33333" transform="rotate(180 17.498 26.834)" fill="currentcolor"/>
</svg>
