<svg width="28" height="28" viewBox="0 0 28 28" fill="none" xmlns="http://www.w3.org/2000/svg">
<rect x="8.16602" y="5.8335" width="2.33333" height="2.33333" transform="rotate(90 8.16602 5.8335)" fill="currentcolor"/>
<rect x="10.5" y="7" width="2.33333" height="2.33333" transform="rotate(90 10.5 7)" fill="currentcolor"/>
<rect x="11.666" y="5.8335" width="2.33333" height="2.33333" transform="rotate(90 11.666 5.8335)" fill="currentcolor"/>
<rect x="18.666" y="5.8335" width="2.33333" height="2.33333" transform="rotate(90 18.666 5.8335)" fill="currentcolor"/>
<rect width="2.33333" height="2.33333" transform="matrix(4.37114e-08 -1 -1 -4.37114e-08 18.666 22.1665)" fill="currentcolor"/>
<rect x="19.834" y="7" width="2.33333" height="2.33333" transform="rotate(90 19.834 7)" fill="currentcolor"/>
<rect width="2.33333" height="2.33333" transform="matrix(4.37114e-08 -1 -1 -4.37114e-08 19.834 21)" fill="currentcolor"/>
<rect x="9.33398" y="22.1665" width="2.33333" height="2.33333" transform="rotate(-90 9.33398 22.1665)" fill="currentcolor"/>
<rect x="8.16602" y="21" width="2.33333" height="2.33333" transform="rotate(-90 8.16602 21)" fill="currentcolor"/>
<rect width="2.33333" height="2.33333" transform="matrix(-4.37114e-08 1 1 4.37114e-08 19.834 5.8335)" fill="currentcolor"/>
<rect x="19.834" y="22.1665" width="2.33333" height="2.33333" transform="rotate(-90 19.834 22.1665)" fill="currentcolor"/>
<rect x="7" y="7" width="2.33333" height="2.33333" transform="rotate(90 7 7)" fill="currentcolor"/>
<rect width="2.33333" height="2.33333" transform="matrix(-4.37114e-08 1 1 4.37114e-08 21 7)" fill="currentcolor"/>
<rect x="21" y="21" width="2.33333" height="2.33333" transform="rotate(-90 21 21)" fill="currentcolor"/>
<rect x="5.83398" y="8.1665" width="4.66667" height="2.33333" transform="rotate(90 5.83398 8.1665)" fill="currentcolor"/>
<rect x="7" y="11.6665" width="4.66667" height="2.33333" transform="rotate(90 7 11.6665)" fill="currentcolor"/>
<rect x="23.334" y="11.6665" width="4.66667" height="2.33333" transform="rotate(90 23.334 11.6665)" fill="currentcolor"/>
<rect width="4.66667" height="2.33333" transform="matrix(-4.37114e-08 1 1 4.37114e-08 22.166 8.1665)" fill="currentcolor"/>
<rect x="22.166" y="19.8335" width="4.66667" height="2.33333" transform="rotate(-90 22.166 19.8335)" fill="currentcolor"/>
<rect width="2.33333" height="2.33333" transform="matrix(4.37114e-08 -1 -1 -4.37114e-08 8.16602 22.1665)" fill="currentcolor"/>
<rect width="2.33333" height="2.33333" transform="matrix(4.37114e-08 -1 -1 -4.37114e-08 7 21)" fill="currentcolor"/>
<rect width="4.66667" height="2.33333" transform="matrix(2.91409e-08 -1 -1 -6.55671e-08 5.83398 19.8335)" fill="currentcolor"/>
<rect x="10.5" y="3.5" width="7" height="2.33333" fill="currentcolor"/>
<rect x="10.5" y="22.1665" width="7" height="2.33333" fill="currentcolor"/>
<rect width="2.33333" height="2.33333" transform="matrix(-1 -8.74228e-08 -8.74228e-08 1 15.166 9.3335)" fill="currentcolor"/>
<rect width="2.33333" height="2.33333" transform="matrix(-1 -8.74228e-08 -8.74228e-08 1 17.5 10.5)" fill="currentcolor"/>
<rect width="2.33333" height="2.33333" transform="matrix(-1 -8.74228e-08 -8.74228e-08 1 18.666 12.8335)" fill="currentcolor"/>
<rect width="2.33333" height="2.33333" transform="matrix(-1 -8.74228e-08 -8.74228e-08 1 17.5 15.1665)" fill="currentcolor"/>
<rect width="2.33333" height="2.33333" transform="matrix(-1 -8.74228e-08 -8.74228e-08 1 15.166 16.3335)" fill="currentcolor"/>
<rect width="2.33333" height="2.33333" transform="matrix(-1 -8.74228e-08 -8.74228e-08 1 12.834 15.1665)" fill="currentcolor"/>
<rect width="2.33333" height="2.33333" transform="matrix(-1 -8.74228e-08 -8.74228e-08 1 12.834 10.5)" fill="currentcolor"/>
<rect width="2.33333" height="2.33333" transform="matrix(-1 -8.74228e-08 -8.74228e-08 1 11.666 12.8335)" fill="currentcolor"/>
<rect x="5" y="8" width="6" height="12" fill="currentcolor"/>
<rect x="17" y="8" width="6" height="12" fill="currentcolor"/>
<rect x="17" y="5" width="6" height="6" transform="rotate(90 17 5)" fill="currentcolor"/>
<rect x="17" y="17" width="6" height="6" transform="rotate(90 17 17)" fill="currentcolor"/>
</svg>
