<svg width="28" height="28" viewBox="0 0 28 28" fill="none" xmlns="http://www.w3.org/2000/svg">
<path d="M23 5V4H17V5H16V8H15V10H13V11H11V10H5V11H4V17H5V18H11V17H13V18H15V20H16V23H17V24H23V23H24V17H23V16H18V17H17V16H15V15H14V13H15V12H17V11H18V12H23V11H24V5H23ZM22 9H21V10H19V9H18V7H19V6H21V7H22V9ZM9 15V16H7V15H6V13H7V12H9V13H10V15H9ZM19 18H21V19H22V21H21V22H19V21H18V19H19V18Z" fill="currentcolor"/>
<rect x="18" y="5" width="4" height="5" fill="currentcolor"/>
<rect x="6" y="12" width="4" height="5" fill="currentcolor"/>
<rect x="18" y="17" width="4" height="5" fill="currentcolor"/>
</svg>
