<svg width="39" height="39" viewBox="0 0 39 39" fill="none" xmlns="http://www.w3.org/2000/svg">
<rect x="32.5" y="21.125" width="17.875" height="3.25" transform="rotate(-180 32.5 21.125)" fill="currentcolor"/>
<rect x="30.877" y="22.75" width="3.25" height="3.25" transform="rotate(-180 30.877 22.75)" fill="currentcolor"/>
<rect x="30.877" y="19.5" width="3.25" height="3.25" transform="rotate(-180 30.877 19.5)" fill="currentcolor"/>
<rect x="29.25" y="17.875" width="3.25" height="3.25" transform="rotate(-180 29.25 17.875)" fill="currentcolor"/>
<rect x="27.625" y="16.25" width="3.25" height="3.25" transform="rotate(-180 27.625 16.25)" fill="currentcolor"/>
<rect x="26.002" y="14.625" width="3.25" height="3.25" transform="rotate(-180 26.002 14.625)" fill="currentcolor"/>
<rect x="29.25" y="24.375" width="3.25" height="3.25" transform="rotate(-180 29.25 24.375)" fill="currentcolor"/>
<rect x="27.625" y="26" width="3.25" height="3.25" transform="rotate(-180 27.625 26)" fill="currentcolor"/>
<rect x="26.002" y="27.625" width="3.25" height="3.25" transform="rotate(-180 26.002 27.625)" fill="currentcolor"/>
<rect x="24.375" y="13" width="3.25" height="3.25" transform="rotate(-180 24.375 13)" fill="currentcolor"/>
<rect x="9.75" y="30.875" width="3.25" height="4.875" transform="rotate(-180 9.75 30.875)" fill="currentcolor"/>
<rect x="11.377" y="26" width="3.25" height="3.25" transform="rotate(-180 11.377 26)" fill="currentcolor"/>
<rect x="14.625" y="22.75" width="3.25" height="3.25" transform="rotate(-180 14.625 22.75)" fill="currentcolor"/>
<rect x="13" y="24.375" width="3.25" height="3.25" transform="rotate(-180 13 24.375)" fill="currentcolor"/>
<rect x="24.375" y="29.25" width="3.25" height="3.25" transform="rotate(-180 24.375 29.25)" fill="currentcolor"/>
</svg>
