<svg width="28" height="28" viewBox="0 0 28 28" fill="none" xmlns="http://www.w3.org/2000/svg">
<rect width="11.6667" height="2.33333" transform="matrix(4.99559e-08 1 1 -3.82475e-08 7 11.6665)" fill="currentcolor"/>
<rect width="11.6667" height="2.33333" transform="matrix(4.99559e-08 1 1 -3.82475e-08 18.668 11.6665)" fill="currentcolor"/>
<rect width="11.6667" height="2.33333" transform="matrix(-1 -8.74228e-08 -8.74228e-08 1 19.834 22.1665)" fill="currentcolor"/>
<rect width="16.3333" height="2.33333" transform="matrix(-1 -8.74228e-08 -8.74228e-08 1 22.168 9.3335)" fill="currentcolor"/>
<rect width="2.33333" height="5.83333" transform="matrix(-1 -8.74228e-08 -8.74228e-08 1 13.125 14)" fill="currentcolor"/>
<rect width="2.33333" height="5.83333" transform="matrix(-1 -8.74228e-08 -8.74228e-08 1 17.209 14)" fill="currentcolor"/>
<rect width="2.33333" height="2.33333" transform="matrix(-1 -8.74228e-08 -8.74228e-08 1 18.668 5.8335)" fill="currentcolor"/>
<rect width="2.33333" height="2.33333" transform="matrix(-1 -8.74228e-08 -8.74228e-08 1 19.834 7)" fill="currentcolor"/>
<rect width="2.33333" height="2.33333" transform="matrix(-1 -8.74228e-08 -8.74228e-08 1 10.5 7)" fill="currentcolor"/>
<rect width="2.33333" height="2.33333" transform="matrix(-1 -8.74228e-08 -8.74228e-08 1 11.668 5.8335)" fill="currentcolor"/>
<rect width="2.33333" height="2.33333" transform="matrix(-1 -8.74228e-08 -8.74228e-08 1 12.834 4.6665)" fill="currentcolor"/>
<rect width="2.33333" height="2.33333" transform="matrix(-1 -8.74228e-08 -8.74228e-08 1 15.168 3.5)" fill="currentcolor"/>
<rect width="2.33333" height="2.33333" transform="matrix(-1 -8.74228e-08 -8.74228e-08 1 17.5 4.6665)" fill="currentcolor"/>
</svg>
