<svg width="20" height="20" viewBox="0 0 20 20" fill="none" xmlns="http://www.w3.org/2000/svg">
<path fill-rule="evenodd" clip-rule="evenodd" d="M15.8333 1.66663H11.6667V2.49996H10.8333V3.33329V4.16663H10V4.99996H9.16667V5.83329H10V6.66663H7.5V5.83329H5V4.99996H3.33333V4.16663H2.5V3.33329H1.66667V2.49996H0.833333V3.33329V4.16663V4.99996V5.83329V6.66663H1.66667V7.49996H2.5V8.33329H0.833333V9.16663V9.99996H1.66667V10.8333H3.33333V11.6666H1.66667V12.5H3.33333V13.3333H4.16667V14.1666H5.83333V15H4.16667V15.8333H0V16.6666H1.66667V17.5H4.16667V18.3333H8.33333V17.5H10.8333V16.6666H12.5V15.8333H13.3333V15H14.1667V14.1666H15V13.3333H15.8333V12.5H16.6667V11.6666V10.8333H17.5V9.99996V9.16663V8.33329H18.3333V7.49996V6.66663V5.83329V4.99996H19.1667V4.16663H20V3.33329H19.1667V2.49996H20V1.66663H18.3333V2.49996H17.5V3.33329H16.6667V2.49996H15.8333V1.66663ZM19.1667 3.33329V4.16663H18.3333V3.33329H19.1667Z" fill="currentcolor"/>
</svg>
