<svg width="24" height="21" viewBox="0 0 24 21" fill="none" xmlns="http://www.w3.org/2000/svg">
<path d="M12.844 7L12.6536 14.4268H10.7786L10.5882 7H12.844ZM10.5003 16.5068C10.4856 15.833 11.0423 15.2837 11.7308 15.291C12.3826 15.2837 12.9466 15.833 12.9466 16.5068C12.9466 17.188 12.3826 17.7373 11.7308 17.7373C11.0423 17.7373 10.4856 17.188 10.5003 16.5068Z" fill="currentcolor"/>
<path fill-rule="evenodd" clip-rule="evenodd" d="M22.057 17L13.3968 2C12.627 0.666667 10.7025 0.666667 9.93268 2L1.27243 17C0.502624 18.3333 1.46487 20 3.00447 20H20.325C21.8646 20 22.8268 18.3333 22.057 17ZM14.2628 1.5C13.1081 -0.499999 10.2214 -0.500001 9.06666 1.5L0.4064 16.5C-0.748301 18.5 0.695072 21 3.00447 21H20.325C22.6344 21 24.0778 18.5 22.9231 16.5L14.2628 1.5Z" fill="currentcolor"/>
</svg>
