{
	"asset":{
		"version":"2.0",
		"generator":"Created using the official Cinema 4D glTF Exporter 1.000x284978"
	},
	"scenes":[{
		"nodes":[0]
	}],
	"nodes":[{
		"name":"Null.1",
		"translation":[0.0,
		0.504930317401886,
		-0.0021462528966367246],
		"rotation":[0.0,
		0.0,
		0.0,
		-1.0],
		"scale":[1.0,
		1.0,
		1.0],
		"children":[1,
		2,
		3,
		4]
	},
	{
		"name":"Cloner",
		"mesh":0,
		"translation":[0.0009749683667905629,
		-0.20190589129924775,
		-0.0012532573891803623],
		"rotation":[0.0,
		0.0,
		0.0,
		-1.0],
		"scale":[1.0,
		1.0,
		1.0]
	},
	{
		"name":"glasses_geom_remesh",
		"mesh":1,
		"translation":[-0.014763693325221539,
		0.007502290420234203,
		0.14642420411109925],
		"rotation":[0.0,
		0.0,
		0.0,
		-1.0],
		"scale":[1.0,
		1.0,
		1.0]
	},
	{
		"name":"glasses_geom_remesh.1",
		"mesh":2,
		"translation":[-0.014763693325221539,
		0.007502290420234203,
		0.14642420411109925],
		"rotation":[0.0,
		0.0,
		0.0,
		-1.0],
		"scale":[1.0,
		1.0,
		1.0]
	},
	{
		"name":"BODY.6",
		"mesh":3,
		"translation":[0.0009749683667905629,
		0.01925738714635372,
		0.009973683394491673],
		"rotation":[0.0,
		0.0,
		0.0,
		-1.0],
		"scale":[1.0,
		1.0,
		1.0]
	}],
	"meshes":[{
		"name":"Cloner",
		"primitives":[{
			"attributes":{
				"POSITION":1,
				"NORMAL":2,
				"TEXCOORD_0":3
			},
			"indices":0,
			"material":0
		}]
	},
	{
		"name":"glasses_geom_remesh",
		"primitives":[{
			"attributes":{
				"POSITION":5,
				"NORMAL":6,
				"TEXCOORD_0":7
			},
			"indices":4,
			"material":1
		}]
	},
	{
		"name":"glasses_geom_remesh.1",
		"primitives":[{
			"attributes":{
				"POSITION":9,
				"NORMAL":10,
				"TEXCOORD_0":11
			},
			"indices":8,
			"material":0
		}]
	},
	{
		"name":"BODY.6",
		"primitives":[{
			"attributes":{
				"POSITION":13,
				"NORMAL":14,
				"TEXCOORD_0":15
			},
			"indices":12,
			"material":1
		}]
	}],
	"accessors":[{
		"bufferView":0,
		"type":"SCALAR",
		"componentType":5123,
		"count":26880,
		"byteOffset":0,
		"min":[0],
		"max":[6072]
	},
	{
		"bufferView":1,
		"type":"VEC3",
		"componentType":5126,
		"count":6073,
		"byteOffset":0,
		"min":[-0.11336348950862885,
		0.23395805060863496,
		-0.12284939736127854],
		"max":[0.11336348950862885,
		0.33909842371940615,
		0.11004284024238587]
	},
	{
		"bufferView":1,
		"type":"VEC3",
		"componentType":5126,
		"count":6073,
		"byteOffset":12,
		"min":[-0.9984675049781799,
		-0.9985823035240173,
		-0.999982476234436],
		"max":[0.9984675049781799,
		0.999893844127655,
		0.999982476234436]
	},
	{
		"bufferView":1,
		"type":"VEC2",
		"componentType":5126,
		"count":6073,
		"byteOffset":24,
		"min":[0.0,
		0.0],
		"max":[1.0,
		1.0]
	},
	{
		"bufferView":2,
		"type":"SCALAR",
		"componentType":5123,
		"count":3444,
		"byteOffset":0,
		"min":[0],
		"max":[575]
	},
	{
		"bufferView":3,
		"type":"VEC3",
		"componentType":5126,
		"count":576,
		"byteOffset":0,
		"min":[-0.09682396799325943,
		-0.08477496355772019,
		-0.0404481515288353],
		"max":[0.13173523545265199,
		0.1009523943066597,
		0.017741966992616655]
	},
	{
		"bufferView":3,
		"type":"VEC3",
		"componentType":5126,
		"count":576,
		"byteOffset":12,
		"min":[-0.9405296444892883,
		-0.9982801079750061,
		-0.9998079538345337],
		"max":[0.940354585647583,
		0.8964503407478333,
		0.9998079538345337]
	},
	{
		"bufferView":3,
		"type":"VEC2",
		"componentType":5126,
		"count":576,
		"byteOffset":24,
		"min":[-0.003539824392646551,
		0.04424778372049332],
		"max":[1.000885009765625,
		1.001769781112671]
	},
	{
		"bufferView":4,
		"type":"SCALAR",
		"componentType":5123,
		"count":1560,
		"byteOffset":0,
		"min":[0],
		"max":[259]
	},
	{
		"bufferView":5,
		"type":"VEC3",
		"componentType":5126,
		"count":260,
		"byteOffset":0,
		"min":[-0.10619795322418213,
		-0.09871602803468704,
		-0.0462813638150692],
		"max":[0.14110298454761506,
		0.10768701136112213,
		0.01673416793346405]
	},
	{
		"bufferView":5,
		"type":"VEC3",
		"componentType":5126,
		"count":260,
		"byteOffset":12,
		"min":[-0.9721348285675049,
		-0.9357427358627319,
		-0.999184250831604],
		"max":[0.9749708771705627,
		0.994900643825531,
		0.9871675968170166]
	},
	{
		"bufferView":5,
		"type":"VEC2",
		"componentType":5126,
		"count":260,
		"byteOffset":24,
		"min":[0.5112529397010803,
		0.07946893572807312],
		"max":[0.5479679703712463,
		0.11596697568893433]
	},
	{
		"bufferView":6,
		"type":"SCALAR",
		"componentType":5123,
		"count":13692,
		"byteOffset":0,
		"min":[0],
		"max":[2333]
	},
	{
		"bufferView":7,
		"type":"VEC3",
		"componentType":5126,
		"count":2334,
		"byteOffset":0,
		"min":[-0.1735793948173523,
		-0.06199779361486435,
		-0.14873243868350984],
		"max":[0.173579141497612,
		0.0568336546421051,
		0.14437517523765565]
	},
	{
		"bufferView":7,
		"type":"VEC3",
		"componentType":5126,
		"count":2334,
		"byteOffset":12,
		"min":[-0.9993124604225159,
		-0.980093777179718,
		-0.9999961853027344],
		"max":[0.9991706609725952,
		0.9983773827552795,
		0.9999814033508301]
	},
	{
		"bufferView":7,
		"type":"VEC2",
		"componentType":5126,
		"count":2334,
		"byteOffset":24,
		"min":[0.005731905344873667,
		0.12433400750160217],
		"max":[1.0110456943511963,
		0.7982901334762573]
	}],
	"bufferViews":[{
		"buffer":0,
		"byteOffset":0,
		"byteLength":53760,
		"target":34963
	},
	{
		"buffer":0,
		"byteOffset":53760,
		"byteLength":194336,
		"target":34962,
		"byteStride":32
	},
	{
		"buffer":1,
		"byteOffset":0,
		"byteLength":6888,
		"target":34963
	},
	{
		"buffer":1,
		"byteOffset":6888,
		"byteLength":18432,
		"target":34962,
		"byteStride":32
	},
	{
		"buffer":2,
		"byteOffset":0,
		"byteLength":3120,
		"target":34963
	},
	{
		"buffer":2,
		"byteOffset":3120,
		"byteLength":8320,
		"target":34962,
		"byteStride":32
	},
	{
		"buffer":3,
		"byteOffset":0,
		"byteLength":27384,
		"target":34963
	},
	{
		"buffer":3,
		"byteOffset":27384,
		"byteLength":74688,
		"target":34962,
		"byteStride":32
	}],
	"buffers":[{
		"uri":"data:application/octet-stream;base64,",
		"byteLength":248096
	},
	{
		"uri":"data:application/octet-stream;base64,",
		"byteLength":25320
	},
	{
		"uri":"data:application/octet-stream;base64,",
		"byteLength":11440
	},
	{
		"uri":"data:application/octet-stream;base64,",
		"byteLength":102072
	}],
	"images":[{
		"uri":"data:image/png;base64,"
	}],
	"samplers":[{
		"magFilter":9729,
		"minFilter":9729,
		"wrapS":10497,
		"wrapT":10497
	}],
	"textures":[{
		"sampler":0,
		"source":0
	}],
	"materials":[{
		"pbrMetallicRoughness":{
			"baseColorFactor":[1.0,
			0.8200000000000001,
			0.9100000000000001,
			1.0],
			"metallicFactor":0.0,
			"roughnessFactor":0.25
		},
		"emissiveFactor":[0.0,
		0.0,
		0.0],
		"alphaMode":"OPAQUE",
		"doubleSided":false,
		"name":"Mat.8"
	},
	{
		"pbrMetallicRoughness":{
			"baseColorTexture":{
				"index":0
			},
			"baseColorFactor":[1.0,
			1.0,
			1.0,
			1.0],
			"metallicFactor":0.0,
			"roughnessFactor":0.5
		},
		"emissiveFactor":[0.0,
		0.0,
		0.0],
		"alphaMode":"OPAQUE",
		"doubleSided":false,
		"name":"Mat.7"
	}]
}