{
	"bufferViews":[{
		"buffer":0,
		"byteOffset":0,
		"byteLength":6528,
		"target":34963
	},
	{
		"buffer":0,
		"byteOffset":6528,
		"byteLength":25184,
		"target":34962,
		"byteStride":32
	}],
	"asset":{
		"version":"2.0",
		"generator":"Created using the official Cinema 4D glTF Exporter 1.000x284978"
	},
	"scenes":[{
		"nodes":[0]
	}],
	"nodes":[{
		"mesh":0,
		"name":"daniel_skirt",
		"translation":[0.00031997181940823793,
		0.03732430934906006,
		0.0016208821907639504],
		"rotation":[0.0,
		0.0,
		0.0,
		-1.0],
		"scale":[1.0,
		1.0,
		1.0]
	}],
	"meshes":[{
		"name":"daniel_skirt",
		"primitives":[{
			"attributes":{
				"POSITION":1,
				"NORMAL":2,
				"TEXCOORD_0":3
			},
			"indices":0,
			"material":0
		}]
	}],
	"accessors":[{
		"bufferView":0,
		"type":"SCALAR",
		"componentType":5123,
		"count":3264,
		"byteOffset":0,
		"min":[0],
		"max":[786]
	},
	{
		"bufferView":1,
		"type":"VEC3",
		"componentType":5126,
		"count":787,
		"byteOffset":0,
		"min":[-0.01755194365978241,
		-0.008235164918005467,
		-0.015421123243868351],
		"max":[0.01755194365978241,
		0.008235164918005467,
		0.015421123243868351]
	},
	{
		"bufferView":1,
		"type":"VEC3",
		"componentType":5126,
		"count":787,
		"byteOffset":12,
		"min":[-0.9999996423721314,
		-1.0,
		-0.9998346567153931],
		"max":[0.999778151512146,
		1.0,
		0.9998950362205505]
	},
	{
		"bufferView":1,
		"type":"VEC2",
		"componentType":5126,
		"count":787,
		"byteOffset":24,
		"min":[-0.3523990511894226,
		0.0030144075863063337],
		"max":[0.7645832896232605,
		0.3431718349456787]
	}],
	"buffers":[{
		"uri":"data:application/octet-stream;base64,",
		"byteLength":31712
	}],
	"images":[{
		"uri":"data:image/jpeg;base64,"
	}],
	"samplers":[{
		"magFilter":9729,
		"minFilter":9729,
		"wrapS":10497,
		"wrapT":10497
	}],
	"textures":[{
		"sampler":0,
		"source":0
	}],
	"materials":[{
		"pbrMetallicRoughness":{
			"baseColorTexture":{
				"index":0
			},
			"baseColorFactor":[1.0,
			1.0,
			1.0,
			1.0],
			"metallicFactor":0.0,
			"roughnessFactor":0.2
		},
		"emissiveFactor":[0.0,
		0.0,
		0.0],
		"alphaMode":"OPAQUE",
		"doubleSided":false,
		"name":"Mat.5"
	}]
}