{
	"asset":{
		"version":"2.0",
		"generator":"Created using the official Cinema 4D glTF Exporter 1.000x284978"
	},
	"scenes":[{
		"nodes":[0]
	}],
	"accessors":[{
		"bufferView":0,
		"type":"SCALAR",
		"componentType":5123,
		"count":3828,
		"byteOffset":0,
		"min":[0],
		"max":[711]
	},
	{
		"bufferView":1,
		"type":"VEC3",
		"componentType":5126,
		"count":712,
		"byteOffset":0,
		"min":[-104.39393615722656,
		-117.19049072265625,
		-43.59987258911133],
		"max":[105.65945434570313,
		28.51045036315918,
		67.94024658203125]
	},
	{
		"bufferView":1,
		"type":"VEC3",
		"componentType":5126,
		"count":712,
		"byteOffset":12,
		"min":[-0.9968864917755127,
		-0.9761146903038025,
		-0.9980061054229736],
		"max":[0.99701327085495,
		0.9992220997810364,
		0.99856036901474]
	},
	{
		"bufferView":1,
		"type":"VEC2",
		"componentType":5126,
		"count":712,
		"byteOffset":24,
		"min":[0.5902847647666931,
		0.17055347561836244],
		"max":[0.8120459318161011,
		0.6064751148223877]
	},
	{
		"bufferView":2,
		"type":"SCALAR",
		"componentType":5123,
		"count":15210,
		"byteOffset":0,
		"min":[0],
		"max":[2655]
	},
	{
		"bufferView":3,
		"type":"VEC3",
		"componentType":5126,
		"count":2656,
		"byteOffset":0,
		"min":[-104.09202575683594,
		-134.54176330566407,
		-94.77281951904297],
		"max":[104.83260345458985,
		66.93968200683594,
		90.35143280029297]
	},
	{
		"bufferView":3,
		"type":"VEC3",
		"componentType":5126,
		"count":2656,
		"byteOffset":12,
		"min":[-0.9999935626983643,
		-0.9967271089553833,
		-0.9999995231628418],
		"max":[0.9999898672103882,
		0.9149755835533142,
		0.9999769926071167]
	},
	{
		"bufferView":3,
		"type":"VEC2",
		"componentType":5126,
		"count":2656,
		"byteOffset":24,
		"min":[0.0019310149364173413,
		0.04664979875087738],
		"max":[1.5344187021255494,
		0.6569766998291016]
	}],
	"nodes":[{
		"name":"Null.2",
		"translation":[0.0,
		22.925249099731447,
		0.0],
		"rotation":[0.0,
		0.0,
		0.0,
		-1.0],
		"scale":[1.0,
		1.0,
		1.0],
		"children":[1,
		2]
	},
	{
		"name":"Symmetry.1",
		"mesh":0,
		"translation":[0.0871986374258995,
		0.0,
		-2.170342445373535],
		"rotation":[0.0,
		0.0,
		0.0,
		-1.0],
		"scale":[1.0,
		1.0,
		1.0]
	},
	{
		"name":"HANI_HB_remesh.1",
		"mesh":1,
		"translation":[-0.0871986374258995,
		0.0,
		2.170342445373535],
		"rotation":[0.0,
		0.0,
		0.0,
		-1.0],
		"scale":[1.0,
		1.0,
		1.0]
	}],
	"meshes":[{
		"name":"Symmetry.1",
		"primitives":[{
			"attributes":{
				"POSITION":1,
				"NORMAL":2,
				"TEXCOORD_0":3
			},
			"indices":0,
			"material":0
		}]
	},
	{
		"name":"HANI_HB_remesh.1",
		"primitives":[{
			"attributes":{
				"POSITION":5,
				"NORMAL":6,
				"TEXCOORD_0":7
			},
			"indices":4,
			"material":0
		}]
	}],
	"bufferViews":[{
		"buffer":0,
		"target":34963,
		"byteOffset":0,
		"byteLength":7656
	},
	{
		"buffer":0,
		"target":34962,
		"byteOffset":7656,
		"byteLength":22784,
		"byteStride":32
	},
	{
		"buffer":1,
		"target":34963,
		"byteOffset":0,
		"byteLength":30420
	},
	{
		"buffer":1,
		"target":34962,
		"byteOffset":30420,
		"byteLength":84992,
		"byteStride":32
	}],
	"buffers":[{
		"uri":"data:application/octet-stream;base64,",
		"byteLength":30440
	},
	{
		"uri":"data:application/octet-stream;base64,",
		"byteLength":115412
	}],
	"materials":[{
		"pbrMetallicRoughness":{
			"baseColorFactor":[0.92,
			0.1104,
			0.5152000000000001,
			1.0],
			"metallicFactor":0.0,
			"roughnessFactor":0.2
		},
		"emissiveFactor":[0.0,
		0.0,
		0.0],
		"alphaMode":"OPAQUE",
		"name":"Mat.4",
		"doubleSided":false
	}]
}