{
	"asset":{
		"version":"2.0",
		"generator":"Created using the official Cinema 4D glTF Exporter 1.000x284978"
	},
	"scenes":[{
		"nodes":[0]
	}],
	"buffers":[{
		"uri":"data:application/octet-stream;base64,",
		"byteLength":145332
	}],
	"nodes":[{
		"rotation":[0.0,
		0.0,
		0.0,
		-1.0],
		"name":"hani_pants",
		"mesh":0,
		"translation":[-0.00025488657411187887,
		0.03241240233182907,
		0.00136595219373703],
		"scale":[1.0,
		1.0,
		1.0]
	}],
	"meshes":[{
		"name":"hani_pants",
		"primitives":[{
			"attributes":{
				"POSITION":1,
				"NORMAL":2,
				"TEXCOORD_0":3
			},
			"indices":0,
			"material":0
		}]
	}],
	"accessors":[{
		"bufferView":0,
		"min":[0],
		"type":"SCALAR",
		"componentType":5123,
		"count":19002,
		"byteOffset":0,
		"max":[3353]
	},
	{
		"bufferView":1,
		"min":[-0.016813810914754869,
		-0.021687569096684457,
		-0.014927132055163384],
		"type":"VEC3",
		"componentType":5126,
		"count":3354,
		"byteOffset":0,
		"max":[0.017045916989445688,
		0.010790396481752396,
		0.014651241712272168]
	},
	{
		"bufferView":1,
		"min":[-0.9999935626983643,
		-0.9967271089553833,
		-0.9999995231628418],
		"type":"VEC3",
		"componentType":5126,
		"count":3354,
		"byteOffset":12,
		"max":[0.9999898672103882,
		0.9992220997810364,
		0.9999769926071167]
	},
	{
		"bufferView":1,
		"min":[0.0019310149364173413,
		0.04664979875087738],
		"type":"VEC2",
		"componentType":5126,
		"count":3354,
		"byteOffset":24,
		"max":[1.5344187021255494,
		0.6569766998291016]
	}],
	"bufferViews":[{
		"buffer":0,
		"byteOffset":0,
		"byteLength":38004,
		"target":34963
	},
	{
		"buffer":0,
		"byteOffset":38004,
		"byteLength":107328,
		"target":34962,
		"byteStride":32
	}],
	"materials":[{
		"emissiveFactor":[0.0,
		0.0,
		0.0],
		"pbrMetallicRoughness":{
			"baseColorFactor":[0.79,
			0.0,
			0.395,
			1.0],
			"metallicFactor":0.0,
			"roughnessFactor":0.2
		},
		"alphaMode":"OPAQUE",
		"doubleSided":false,
		"name":"Mat.4"
	}]
}