{
	"asset":{
		"version":"2.0",
		"generator":"Created using the official Cinema 4D glTF Exporter 1.000x284978"
	},
	"scenes":[{
		"nodes":[0,
		1,
		2]
	}],
	"textures":[{
		"sampler":0,
		"source":0
	}],
	"nodes":[{
		"name":"hb_HYEIN_pants",
		"translation":[0.0,
		0.03486960753798485,
		0.0006679311045445502],
		"rotation":[0.0,
		0.0,
		0.0,
		-1.0],
		"scale":[1.0,
		1.0,
		1.0],
		"children":[3,
		4,
		5]
	},
	{
		"name":"top",
		"rotation":[0.058916859328746799,
		0.0,
		0.0,
		-0.998262882232666],
		"camera":0,
		"translation":[0.0,
		0.06199999898672104,
		0.05999999865889549],
		"scale":[1.0,
		1.0,
		1.0]
	},
	{
		"name":"top.1",
		"rotation":[0.058916859328746799,
		0.0,
		0.0,
		-0.998262882232666],
		"camera":1,
		"translation":[0.0,
		0.035999998450279239,
		0.05299999937415123],
		"scale":[1.0,
		1.0,
		1.0]
	},
	{
		"name":"Boole_remesh.1",
		"mesh":0,
		"translation":[0.0,
		-0.0051714833825826649,
		0.0006669205031357706],
		"rotation":[0.0,
		0.0,
		0.0,
		-1.0],
		"scale":[1.0,
		1.0,
		1.0]
	},
	{
		"name":"Symmetry",
		"translation":[0.0,
		-0.015190845355391503,
		-0.0007921885116957128],
		"rotation":[0.0,
		0.0,
		0.0,
		-1.0],
		"scale":[1.0,
		1.0,
		1.0],
		"children":[6]
	},
	{
		"name":"Tube",
		"mesh":1,
		"translation":[0.0,
		0.005444648675620556,
		0.00035619898699223995],
		"rotation":[0.0,
		0.0,
		0.0,
		-1.0],
		"scale":[1.0,
		1.0,
		1.0]
	},
	{
		"name":"Cube",
		"mesh":2,
		"translation":[-0.0061853742226958279,
		0.02018367499113083,
		0.014530902728438378],
		"rotation":[0.04125170782208443,
		-0.1676865965127945,
		0.002620737999677658,
		0.9849734306335449],
		"scale":[1.0,
		1.0,
		1.0]
	}],
	"meshes":[{
		"name":"Boole_remesh.1",
		"primitives":[{
			"attributes":{
				"POSITION":1,
				"NORMAL":2,
				"TEXCOORD_0":3
			},
			"indices":0,
			"material":0
		}]
	},
	{
		"name":"Tube",
		"primitives":[{
			"attributes":{
				"POSITION":5,
				"NORMAL":6,
				"TEXCOORD_0":7
			},
			"indices":4,
			"material":1
		}]
	},
	{
		"name":"Cube",
		"primitives":[{
			"attributes":{
				"POSITION":9,
				"NORMAL":10,
				"TEXCOORD_0":11
			},
			"indices":8,
			"material":0
		}]
	}],
	"cameras":[{
		"type":"perspective",
		"perspective":{
			"znear":0.009999999776482582,
			"zfar":10000000000.0,
			"aspectRatio":1.0,
			"yfov":0.950021505355835
		}
	},
	{
		"type":"perspective",
		"perspective":{
			"znear":0.009999999776482582,
			"zfar":10000000000.0,
			"aspectRatio":1.0,
			"yfov":0.950021505355835
		}
	}],
	"accessors":[{
		"bufferView":0,
		"type":"SCALAR",
		"componentType":5123,
		"count":29436,
		"byteOffset":0,
		"min":[0],
		"max":[5189]
	},
	{
		"bufferView":1,
		"type":"VEC3",
		"componentType":5126,
		"count":5190,
		"byteOffset":0,
		"min":[-0.016869613900780679,
		-0.018014516681432725,
		-0.01456434652209282],
		"max":[0.016960008069872857,
		0.01319811213761568,
		0.0141591252759099]
	},
	{
		"bufferView":1,
		"type":"VEC3",
		"componentType":5126,
		"count":5190,
		"byteOffset":12,
		"min":[-0.9999755620956421,
		-0.9999575018882752,
		-0.9999640583992004],
		"max":[0.9999734163284302,
		0.9337193369865418,
		0.9998505711555481]
	},
	{
		"bufferView":1,
		"type":"VEC2",
		"componentType":5126,
		"count":5190,
		"byteOffset":24,
		"min":[0.12406604737043381,
		0.0],
		"max":[1.2662140130996705,
		1.0026695728302003]
	},
	{
		"bufferView":2,
		"type":"SCALAR",
		"componentType":5123,
		"count":1824,
		"byteOffset":0,
		"min":[0],
		"max":[763]
	},
	{
		"bufferView":3,
		"type":"VEC3",
		"componentType":5126,
		"count":764,
		"byteOffset":0,
		"min":[-0.01727432757616043,
		-0.002128683030605316,
		-0.014401901513338089],
		"max":[0.017235513776540757,
		0.0022384412586688997,
		0.014594398438930512]
	},
	{
		"bufferView":3,
		"type":"VEC3",
		"componentType":5126,
		"count":764,
		"byteOffset":12,
		"min":[-0.9999796152114868,
		-0.9994499087333679,
		-0.9896347522735596],
		"max":[0.9999521374702454,
		0.9991050958633423,
		0.9999613165855408]
	},
	{
		"bufferView":3,
		"type":"VEC2",
		"componentType":5126,
		"count":764,
		"byteOffset":24,
		"min":[-0.0077350568026304249,
		-0.06972508132457733],
		"max":[1.007803201675415,
		1.0068273544311524]
	},
	{
		"bufferView":4,
		"type":"SCALAR",
		"componentType":5123,
		"count":294,
		"byteOffset":0,
		"min":[0],
		"max":[161]
	},
	{
		"bufferView":5,
		"type":"VEC3",
		"componentType":5126,
		"count":162,
		"byteOffset":0,
		"min":[-0.0008044931455515325,
		-0.0027687333058565857,
		-0.0058998893946409229],
		"max":[0.012411658652126789,
		0.0025902201887220146,
		0.00021205759549047798]
	},
	{
		"bufferView":5,
		"type":"VEC3",
		"componentType":5126,
		"count":162,
		"byteOffset":12,
		"min":[-0.9999973773956299,
		-0.9636543989181519,
		-0.9989813566207886],
		"max":[0.9999973773956299,
		0.9636543989181519,
		0.9989557266235352]
	},
	{
		"bufferView":5,
		"type":"VEC2",
		"componentType":5126,
		"count":162,
		"byteOffset":24,
		"min":[-0.18929526209831239,
		-0.1088535338640213],
		"max":[0.4411463439464569,
		1.1207315921783448]
	}],
	"bufferViews":[{
		"buffer":0,
		"byteOffset":0,
		"byteLength":58872,
		"target":34963
	},
	{
		"buffer":0,
		"byteOffset":58872,
		"byteLength":166080,
		"target":34962,
		"byteStride":32
	},
	{
		"buffer":1,
		"byteOffset":0,
		"byteLength":3648,
		"target":34963
	},
	{
		"buffer":1,
		"byteOffset":3648,
		"byteLength":24448,
		"target":34962,
		"byteStride":32
	},
	{
		"buffer":2,
		"byteOffset":0,
		"byteLength":588,
		"target":34963
	},
	{
		"buffer":2,
		"byteOffset":588,
		"byteLength":5184,
		"target":34962,
		"byteStride":32
	}],
	"buffers":[{
		"uri":"data:application/octet-stream;base64,",
		"byteLength":224952
	},
	{
		"uri":"data:application/octet-stream;base64,",
		"byteLength":28096
	},
	{
		"uri":"data:application/octet-stream;base64,",
		"byteLength":5772
	}],
	"images":[{
		"uri":"data:image/jpeg;base64,"
	}],
	"samplers":[{
		"magFilter":9729,
		"minFilter":9729,
		"wrapS":10497,
		"wrapT":10497
	}],
	"materials":[{
		"pbrMetallicRoughness":{
			"baseColorTexture":{
				"index":0
			},
			"baseColorFactor":[1.0,
			1.0,
			1.0,
			1.0],
			"metallicFactor":0.0,
			"roughnessFactor":0.28
		},
		"emissiveFactor":[0.0,
		0.0,
		0.0],
		"alphaMode":"OPAQUE",
		"doubleSided":false,
		"name":"Mat"
	},
	{
		"pbrMetallicRoughness":{
			"baseColorFactor":[0.77,
			0.15399999999999998,
			0.77,
			1.0],
			"metallicFactor":0.0,
			"roughnessFactor":0.26
		},
		"emissiveFactor":[0.0,
		0.0,
		0.0],
		"alphaMode":"OPAQUE",
		"doubleSided":false,
		"name":"Mat.1"
	}]
}