{
	"asset":{
		"version":"2.0",
		"generator":"Created using the official Cinema 4D glTF Exporter 1.000x284978"
	},
	"scenes":[{
		"nodes":[0,
		1,
		2]
	}],
	"textures":[{
		"sampler":0,
		"source":0
	}],
	"nodes":[{
		"name":"hb_hani_pants",
		"mesh":0,
		"translation":[0.0,
		0.032506655901670459,
		0.001617667730897665],
		"rotation":[0.0,
		0.0,
		0.0,
		-1.0],
		"scale":[0.10000000149011612,
		0.10000000149011612,
		0.10000000149011612]
	},
	{
		"name":"top",
		"rotation":[0.058916859328746799,
		0.0,
		0.0,
		-0.998262882232666],
		"camera":0,
		"translation":[0.0,
		0.06199999898672104,
		0.06199999898672104],
		"scale":[1.0,
		1.0,
		1.0]
	},
	{
		"name":"top.1",
		"rotation":[0.058916859328746799,
		0.0,
		0.0,
		-0.998262882232666],
		"camera":1,
		"translation":[0.0,
		0.035999998450279239,
		0.06300000101327896],
		"scale":[1.0,
		1.0,
		1.0]
	}],
	"meshes":[{
		"name":"hb_hani_pants",
		"primitives":[{
			"attributes":{
				"POSITION":1,
				"NORMAL":2,
				"TEXCOORD_0":3
			},
			"indices":0,
			"material":0
		}]
	}],
	"cameras":[{
		"type":"perspective",
		"perspective":{
			"znear":0.009999999776482582,
			"zfar":10000000000.0,
			"aspectRatio":1.0,
			"yfov":0.950021505355835
		}
	},
	{
		"type":"perspective",
		"perspective":{
			"znear":0.009999999776482582,
			"zfar":10000000000.0,
			"aspectRatio":1.0,
			"yfov":0.950021505355835
		}
	}],
	"accessors":[{
		"bufferView":0,
		"type":"SCALAR",
		"componentType":5123,
		"count":16104,
		"byteOffset":0,
		"min":[0],
		"max":[2809]
	},
	{
		"bufferView":1,
		"type":"VEC3",
		"componentType":5126,
		"count":2810,
		"byteOffset":0,
		"min":[-0.17564044892787934,
		-0.21303211152553559,
		-0.15310591459274293],
		"max":[0.17651009559631349,
		0.13601411879062653,
		0.14915913343429566]
	},
	{
		"bufferView":1,
		"type":"VEC3",
		"componentType":5126,
		"count":2810,
		"byteOffset":12,
		"min":[-0.9998461604118347,
		-0.9918407797813416,
		-0.9999997615814209],
		"max":[0.999894917011261,
		0.9652467966079712,
		0.9999799728393555]
	},
	{
		"bufferView":1,
		"type":"VEC2",
		"componentType":5126,
		"count":2810,
		"byteOffset":24,
		"min":[0.0019310149364173413,
		-4.470721393090571e-8],
		"max":[1.5344187021255494,
		0.6569766998291016]
	}],
	"bufferViews":[{
		"buffer":0,
		"byteOffset":0,
		"byteLength":32208,
		"target":34963
	},
	{
		"buffer":0,
		"byteOffset":32208,
		"byteLength":89920,
		"target":34962,
		"byteStride":32
	}],
	"buffers":[{
		"uri":"data:application/octet-stream;base64,",
		"byteLength":122128
	}],
	"images":[{
		"uri":"data:image/jpeg;base64,"
	}],
	"samplers":[{
		"magFilter":9729,
		"minFilter":9729,
		"wrapS":10497,
		"wrapT":10497
	}],
	"materials":[{
		"pbrMetallicRoughness":{
			"baseColorTexture":{
				"index":0
			},
			"baseColorFactor":[1.0,
			1.0,
			1.0,
			1.0],
			"metallicFactor":0.0,
			"roughnessFactor":0.28
		},
		"emissiveFactor":[0.0,
		0.0,
		0.0],
		"alphaMode":"OPAQUE",
		"doubleSided":false,
		"name":"Mat"
	}]
}