{
	"asset":{
		"version":"2.0",
		"generator":"Created using the official Cinema 4D glTF Exporter 1.000x284978"
	},
	"scenes":[{
		"nodes":[0,
		1,
		2]
	}],
	"textures":[{
		"sampler":0,
		"source":0
	}],
	"nodes":[{
		"name":"hb_HYERIN_skirt",
		"translation":[0.0,
		0.03742210939526558,
		0.005422617774456739],
		"rotation":[0.0,
		0.0,
		0.0,
		-1.0],
		"scale":[1.0,
		1.0,
		1.0],
		"children":[3,
		4]
	},
	{
		"name":"top",
		"rotation":[0.058916859328746799,
		0.0,
		0.0,
		-0.998262882232666],
		"camera":0,
		"translation":[0.0,
		0.057999998331069949,
		0.059884004294872287],
		"scale":[1.0,
		1.0,
		1.0]
	},
	{
		"name":"top.1",
		"rotation":[0.058916859328746799,
		0.0,
		0.0,
		-0.998262882232666],
		"camera":1,
		"translation":[0.0,
		0.03999999910593033,
		0.06300000101327896],
		"scale":[1.0,
		1.0,
		1.0]
	},
	{
		"name":"DANIEL_HB.1",
		"mesh":0,
		"translation":[-0.00009501402382738888,
		-0.007798022124916315,
		-0.003343955148011446],
		"rotation":[0.0,
		0.0,
		0.0,
		-1.0],
		"scale":[1.0,
		1.0,
		1.0]
	},
	{
		"name":"Tube.1",
		"mesh":1,
		"translation":[0.00009140348993241787,
		0.00017459189984947443,
		-0.0036811106838285925],
		"rotation":[0.0,
		0.0,
		0.0,
		-1.0],
		"scale":[1.0,
		1.0,
		1.0]
	}],
	"meshes":[{
		"name":"DANIEL_HB.1",
		"primitives":[{
			"attributes":{
				"POSITION":1,
				"NORMAL":2,
				"TEXCOORD_0":3
			},
			"indices":0,
			"material":0
		}]
	},
	{
		"name":"Tube.1",
		"primitives":[{
			"attributes":{
				"POSITION":5,
				"NORMAL":6,
				"TEXCOORD_0":7
			},
			"indices":4,
			"material":0
		}]
	}],
	"cameras":[{
		"type":"perspective",
		"perspective":{
			"znear":0.009999999776482582,
			"zfar":10000000000.0,
			"aspectRatio":1.0,
			"yfov":0.950021505355835
		}
	},
	{
		"type":"perspective",
		"perspective":{
			"znear":0.009999999776482582,
			"zfar":10000000000.0,
			"aspectRatio":1.0,
			"yfov":0.950021505355835
		}
	}],
	"accessors":[{
		"bufferView":0,
		"type":"SCALAR",
		"componentType":5123,
		"count":16452,
		"byteOffset":0,
		"min":[0],
		"max":[2934]
	},
	{
		"bufferView":1,
		"type":"VEC3",
		"componentType":5126,
		"count":2935,
		"byteOffset":0,
		"min":[-0.015092674642801285,
		-0.005584646016359329,
		-0.013030230067670346],
		"max":[0.015173547901213169,
		0.011807906441390515,
		0.012667692266404629]
	},
	{
		"bufferView":1,
		"type":"VEC3",
		"componentType":5126,
		"count":2935,
		"byteOffset":12,
		"min":[-0.9999755620956421,
		-0.9940701723098755,
		-0.999668538570404],
		"max":[0.999626100063324,
		0.9337193369865418,
		0.9998608231544495]
	},
	{
		"bufferView":1,
		"type":"VEC2",
		"componentType":5126,
		"count":2935,
		"byteOffset":24,
		"min":[0.12406604737043381,
		0.0],
		"max":[1.2662140130996705,
		0.6491529941558838]
	},
	{
		"bufferView":2,
		"type":"SCALAR",
		"componentType":5123,
		"count":3264,
		"byteOffset":0,
		"min":[0],
		"max":[784]
	},
	{
		"bufferView":3,
		"type":"VEC3",
		"componentType":5126,
		"count":785,
		"byteOffset":0,
		"min":[-0.01951652392745018,
		-0.007353141903877258,
		-0.016926860436797143],
		"max":[0.01951652392745018,
		0.008912195451557637,
		0.016966981813311578]
	},
	{
		"bufferView":3,
		"type":"VEC3",
		"componentType":5126,
		"count":785,
		"byteOffset":12,
		"min":[-0.9999912977218628,
		-1.0,
		-0.9976550936698914],
		"max":[0.999373197555542,
		1.0,
		0.9997564554214478]
	},
	{
		"bufferView":3,
		"type":"VEC2",
		"componentType":5126,
		"count":785,
		"byteOffset":24,
		"min":[0.008695552125573159,
		0.015458066016435624],
		"max":[1.4777113199234009,
		0.578330397605896]
	}],
	"bufferViews":[{
		"buffer":0,
		"byteOffset":0,
		"byteLength":32904,
		"target":34963
	},
	{
		"buffer":0,
		"byteOffset":32904,
		"byteLength":93920,
		"target":34962,
		"byteStride":32
	},
	{
		"buffer":1,
		"byteOffset":0,
		"byteLength":6528,
		"target":34963
	},
	{
		"buffer":1,
		"byteOffset":6528,
		"byteLength":25120,
		"target":34962,
		"byteStride":32
	}],
	"buffers":[{
		"uri":"data:application/octet-stream;base64,",
		"byteLength":126824
	},
	{
		"uri":"data:application/octet-stream;base64,",
		"byteLength":31648
	}],
	"images":[{
		"uri":"data:image/jpeg;base64,"
	}],
	"samplers":[{
		"magFilter":9729,
		"minFilter":9729,
		"wrapS":10497,
		"wrapT":10497
	}],
	"materials":[{
		"pbrMetallicRoughness":{
			"baseColorTexture":{
				"index":0
			},
			"baseColorFactor":[0.8663333333333335,
			0.27599999999999999,
			0.92,
			1.0],
			"metallicFactor":0.0,
			"roughnessFactor":0.22
		},
		"emissiveFactor":[0.0,
		0.0,
		0.0],
		"alphaMode":"OPAQUE",
		"doubleSided":false,
		"name":"Mat.2"
	}]
}