{
	"asset":{
		"version":"2.0",
		"generator":"Created using the official Cinema 4D glTF Exporter 1.000x284978"
	},
	"scenes":[{
		"nodes":[0]
	}],
	"buffers":[{
		"uri":"data:application/octet-stream;base64,",
		"byteLength":33100
	},
	{
		"uri":"data:application/octet-stream;base64,",
		"byteLength":66360
	},
	{
		"uri":"data:application/octet-stream;base64,",
		"byteLength":126824
	}],
	"nodes":[{
		"rotation":[0.0,
		0.0,
		0.0,
		-1.0],
		"name":"herin_skirt",
		"mesh":0,
		"translation":[0.0,
		0.03583003580570221,
		0.0015260129002854229],
		"scale":[1.0,
		1.0,
		1.0],
		"children":[1,
		2]
	},
	{
		"rotation":[-0.021271105855703355,
		-0.25466984510421755,
		-0.005603261291980743,
		0.9667778611183167],
		"name":"PM3D_Sphere3D2",
		"mesh":1,
		"translation":[-0.008533465676009655,
		0.007067558355629444,
		0.013547413051128388],
		"scale":[1.0,
		1.0,
		1.0]
	},
	{
		"rotation":[0.0,
		0.0,
		0.0,
		-1.0],
		"name":"DANIEL_HB.1",
		"mesh":2,
		"translation":[-0.0002773577580228448,
		-0.008116188459098339,
		0.000054583742894465107],
		"scale":[1.0,
		1.0,
		1.0]
	}],
	"meshes":[{
		"name":"herin_skirt",
		"primitives":[{
			"attributes":{
				"POSITION":1,
				"NORMAL":2,
				"TEXCOORD_0":3
			},
			"indices":0,
			"material":0
		}]
	},
	{
		"name":"PM3D_Sphere3D2",
		"primitives":[{
			"attributes":{
				"POSITION":5,
				"NORMAL":6
			},
			"indices":4,
			"material":0
		}]
	},
	{
		"name":"DANIEL_HB.1",
		"primitives":[{
			"attributes":{
				"POSITION":8,
				"NORMAL":9,
				"TEXCOORD_0":10
			},
			"indices":7,
			"material":1
		}]
	}],
	"accessors":[{
		"bufferView":0,
		"min":[0],
		"type":"SCALAR",
		"componentType":5123,
		"count":3270,
		"byteOffset":0,
		"max":[829]
	},
	{
		"bufferView":1,
		"min":[-0.0174883846193552,
		-0.008551882579922676,
		-0.015366006642580033],
		"type":"VEC3",
		"componentType":5126,
		"count":830,
		"byteOffset":0,
		"max":[0.0174883846193552,
		0.008551882579922676,
		0.015366006642580033]
	},
	{
		"bufferView":1,
		"min":[-0.9999996423721314,
		-1.0,
		-0.9997910261154175],
		"type":"VEC3",
		"componentType":5126,
		"count":830,
		"byteOffset":12,
		"max":[0.999778151512146,
		1.0,
		0.9998729825019836]
	},
	{
		"bufferView":1,
		"min":[-0.3523990511894226,
		0.0030144075863063337],
		"type":"VEC2",
		"componentType":5126,
		"count":830,
		"byteOffset":24,
		"max":[0.7645832896232605,
		0.3431718349456787]
	},
	{
		"bufferView":2,
		"min":[0],
		"type":"SCALAR",
		"componentType":5123,
		"count":11028,
		"byteOffset":0,
		"max":[1845]
	},
	{
		"bufferView":3,
		"min":[-0.003680592402815819,
		-0.012317337095737458,
		-0.0005791476578451693],
		"type":"VEC3",
		"componentType":5126,
		"count":1846,
		"byteOffset":0,
		"max":[0.003680592402815819,
		0.0005823613028042018,
		0.0008196206763386726]
	},
	{
		"bufferView":3,
		"min":[-0.997466504573822,
		-0.9999045729637146,
		-0.9999890327453613],
		"type":"VEC3",
		"componentType":5126,
		"count":1846,
		"byteOffset":12,
		"max":[0.997466504573822,
		0.9999710321426392,
		0.9999938011169434]
	},
	{
		"bufferView":4,
		"min":[0],
		"type":"SCALAR",
		"componentType":5123,
		"count":16452,
		"byteOffset":0,
		"max":[2934]
	},
	{
		"bufferView":5,
		"min":[-0.014988304115831852,
		-0.005546026863157749,
		-0.012940121814608574],
		"type":"VEC3",
		"componentType":5126,
		"count":2935,
		"byteOffset":0,
		"max":[0.015068618580698967,
		0.011726250872015953,
		0.012580091133713723]
	},
	{
		"bufferView":5,
		"min":[-0.9999755620956421,
		-0.9940701723098755,
		-0.999668538570404],
		"type":"VEC3",
		"componentType":5126,
		"count":2935,
		"byteOffset":12,
		"max":[0.999626100063324,
		0.9337193369865418,
		0.9998608231544495]
	},
	{
		"bufferView":5,
		"min":[0.12406604737043381,
		0.0],
		"type":"VEC2",
		"componentType":5126,
		"count":2935,
		"byteOffset":24,
		"max":[1.2662140130996705,
		0.6491529941558838]
	}],
	"bufferViews":[{
		"buffer":0,
		"byteOffset":0,
		"byteLength":6540,
		"target":34963
	},
	{
		"buffer":0,
		"byteOffset":6540,
		"byteLength":26560,
		"target":34962,
		"byteStride":32
	},
	{
		"buffer":1,
		"byteOffset":0,
		"byteLength":22056,
		"target":34963
	},
	{
		"buffer":1,
		"byteOffset":22056,
		"byteLength":44304,
		"target":34962,
		"byteStride":24
	},
	{
		"buffer":2,
		"byteOffset":0,
		"byteLength":32904,
		"target":34963
	},
	{
		"buffer":2,
		"byteOffset":32904,
		"byteLength":93920,
		"target":34962,
		"byteStride":32
	}],
	"images":[{
		"uri":"data:image/png;base64,"
	}],
	"samplers":[{
		"magFilter":9729,
		"minFilter":9729,
		"wrapS":10497,
		"wrapT":10497
	}],
	"textures":[{
		"sampler":0,
		"source":0
	}],
	"materials":[{
		"emissiveFactor":[0.0,
		0.0,
		0.0],
		"pbrMetallicRoughness":{
			"baseColorTexture":{
				"index":0
			},
			"baseColorFactor":[1.0,
			1.0,
			1.0,
			1.0],
			"metallicFactor":0.0,
			"roughnessFactor":0.27
		},
		"alphaMode":"OPAQUE",
		"doubleSided":false,
		"name":"Mat.2"
	},
	{
		"emissiveFactor":[0.0,
		0.0,
		0.0],
		"pbrMetallicRoughness":{
			"baseColorFactor":[0.030499999999999893,
			0.61,
			0.0,
			1.0],
			"metallicFactor":0.0,
			"roughnessFactor":0.28
		},
		"alphaMode":"OPAQUE",
		"doubleSided":false,
		"name":"Mat"
	}]
}