{
	"samplers":[{
		"magFilter":9729,
		"minFilter":9729,
		"wrapS":10497,
		"wrapT":10497
	},
	{
		"magFilter":9729,
		"minFilter":9729,
		"wrapS":10497,
		"wrapT":10497
	},
	{
		"magFilter":9729,
		"minFilter":9729,
		"wrapS":10497,
		"wrapT":10497
	}],
	"asset":{
		"version":"2.0",
		"generator":"Created using the official Cinema 4D glTF Exporter 1.000x284978"
	},
	"scenes":[{
		"nodes":[0]
	}],
	"nodes":[{
		"name":"herin_skirt",
		"mesh":0,
		"children":[1,
		2]
	},
	{
		"name":"herin_skirt",
		"mesh":1,
		"translation":[-51.940040588378909,
		99.31761932373047,
		87.85836029052735],
		"rotation":[-5.865448127195805e-10,
		-0.2547314763069153,
		-1.5450836443609007e-10,
		0.9670118093490601],
		"scale":[33.0,
		33.0,
		33.0]
	},
	{
		"name":"herin_skirt",
		"mesh":2,
		"translation":[1.7676503658294678,
		106.88758850097656,
		1.2326945066452027],
		"rotation":[0.0,
		0.0,
		0.0,
		-1.0],
		"scale":[1.0,
		1.0,
		1.0]
	}],
	"meshes":[{
		"name":"herin_skirt",
		"primitives":[{
			"attributes":{
				"POSITION":1,
				"NORMAL":2,
				"TEXCOORD_0":3
			},
			"indices":0,
			"material":0
		}]
	},
	{
		"name":"herin_skirt",
		"primitives":[{
			"attributes":{
				"POSITION":5,
				"NORMAL":6
			},
			"indices":4,
			"material":1
		}]
	},
	{
		"name":"herin_skirt",
		"primitives":[{
			"attributes":{
				"POSITION":8,
				"NORMAL":9,
				"TEXCOORD_0":10
			},
			"indices":7,
			"material":2
		}]
	}],
	"accessors":[{
		"max":[2934],
		"bufferView":0,
		"count":16452,
		"type":"SCALAR",
		"min":[0],
		"componentType":5123,
		"byteOffset":0
	},
	{
		"max":[96.03499603271485,
		74.73348999023438,
		80.1751708984375],
		"bufferView":1,
		"count":2935,
		"type":"VEC3",
		"min":[-95.52313995361328,
		-35.34581756591797,
		-82.4697036743164],
		"componentType":5126,
		"byteOffset":0
	},
	{
		"max":[0.999626100063324,
		0.9337193369865418,
		0.9998608231544495],
		"bufferView":1,
		"count":2935,
		"type":"VEC3",
		"min":[-0.9999755620956421,
		-0.9940701723098755,
		-0.999668538570404],
		"componentType":5126,
		"byteOffset":12
	},
	{
		"max":[1.2662140130996705,
		0.6491529941558838],
		"bufferView":1,
		"count":2935,
		"type":"VEC2",
		"min":[0.12406604737043381,
		0.0],
		"componentType":5126,
		"byteOffset":24
	},
	{
		"max":[1849],
		"bufferView":2,
		"count":11052,
		"type":"SCALAR",
		"min":[0],
		"componentType":5123,
		"byteOffset":0
	},
	{
		"max":[0.619628369808197,
		0.0980406254529953,
		0.1379832774400711],
		"bufferView":3,
		"count":1850,
		"type":"VEC3",
		"min":[-0.619628369808197,
		-2.0736258029937746,
		-0.09749960899353028],
		"componentType":5126,
		"byteOffset":0
	},
	{
		"max":[0.997466504573822,
		0.9999710321426392,
		0.9999938011169434],
		"bufferView":3,
		"count":1850,
		"type":"VEC3",
		"min":[-0.997466504573822,
		-0.9999045729637146,
		-0.9999890327453613],
		"componentType":5126,
		"byteOffset":12
	},
	{
		"max":[829],
		"bufferView":4,
		"count":3270,
		"type":"SCALAR",
		"min":[0],
		"componentType":5123,
		"byteOffset":0
	},
	{
		"max":[111.45659637451172,
		-0.6589950919151306,
		99.19691467285156],
		"bufferView":5,
		"count":830,
		"type":"VEC3",
		"min":[-111.45659637451172,
		-109.66433715820313,
		-96.6636962890625],
		"componentType":5126,
		"byteOffset":0
	},
	{
		"max":[0.999778151512146,
		1.0,
		0.9998729825019836],
		"bufferView":5,
		"count":830,
		"type":"VEC3",
		"min":[-0.9999996423721314,
		-1.0,
		-0.9997910261154175],
		"componentType":5126,
		"byteOffset":12
	},
	{
		"max":[0.7645832896232605,
		0.3431718349456787],
		"bufferView":5,
		"count":830,
		"type":"VEC2",
		"min":[-0.3523990511894226,
		0.0030144075863063337],
		"componentType":5126,
		"byteOffset":24
	}],
	"bufferViews":[{
		"buffer":0,
		"byteOffset":0,
		"byteLength":32904,
		"target":34963
	},
	{
		"buffer":0,
		"byteOffset":32904,
		"byteLength":93920,
		"target":34962,
		"byteStride":32
	},
	{
		"buffer":1,
		"byteOffset":0,
		"byteLength":22104,
		"target":34963
	},
	{
		"buffer":1,
		"byteOffset":22104,
		"byteLength":44400,
		"target":34962,
		"byteStride":24
	},
	{
		"buffer":2,
		"byteOffset":0,
		"byteLength":6540,
		"target":34963
	},
	{
		"buffer":2,
		"byteOffset":6540,
		"byteLength":26560,
		"target":34962,
		"byteStride":32
	}],
	"buffers":[{
		"uri":"data:application/octet-stream;base64,",
		"byteLength":126824
	},
	{
		"uri":"data:application/octet-stream;base64,",
		"byteLength":66504
	},
	{
		"uri":"data:application/octet-stream;base64,",
		"byteLength":33100
	}],
	"images":[{
		"uri":"data:image/jpeg;base64,"
	},
	{
		"uri":"data:image/png;base64,"
	}],
	"textures":[{
		"sampler":0,
		"source":0
	},
	{
		"sampler":1,
		"source":0
	},
	{
		"sampler":2,
		"source":1
	}],
	"materials":[{
		"pbrMetallicRoughness":{
			"baseColorTexture":{
				"index":0
			},
			"baseColorFactor":[1.0,
			1.0,
			1.0,
			1.0],
			"metallicFactor":0.0,
			"roughnessFactor":0.51
		},
		"name":"Mat.2",
		"emissiveFactor":[0.0,
		0.0,
		0.0],
		"alphaMode":"OPAQUE",
		"doubleSided":false
	},
	{
		"pbrMetallicRoughness":{
			"baseColorTexture":{
				"index":1
			},
			"baseColorFactor":[1.0,
			1.0,
			1.0,
			1.0],
			"metallicFactor":0.0,
			"roughnessFactor":0.51
		},
		"name":"Mat.2",
		"emissiveFactor":[0.0,
		0.0,
		0.0],
		"alphaMode":"OPAQUE",
		"doubleSided":false
	},
	{
		"pbrMetallicRoughness":{
			"baseColorTexture":{
				"index":2
			},
			"baseColorFactor":[1.0,
			1.0,
			1.0,
			1.0],
			"metallicFactor":0.0,
			"roughnessFactor":0.51
		},
		"name":"Mat.2",
		"emissiveFactor":[0.0,
		0.0,
		0.0],
		"alphaMode":"OPAQUE",
		"doubleSided":false
	}]
}