{
	"samplers":[{
		"magFilter":9729,
		"minFilter":9729,
		"wrapS":10497,
		"wrapT":10497
	},
	{
		"magFilter":9729,
		"minFilter":9729,
		"wrapS":10497,
		"wrapT":10497
	}],
	"asset":{
		"version":"2.0",
		"generator":"Created using the official Cinema 4D glTF Exporter 1.000x284978"
	},
	"scenes":[{
		"nodes":[0]
	}],
	"nodes":[{
		"name":"hyein_pants",
		"translation":[0.0,
		246.9521484375,
		10.189813613891602],
		"rotation":[0.0,
		0.0,
		0.0,
		-1.0],
		"scale":[1.0,
		1.0,
		1.0],
		"children":[1,
		2]
	},
	{
		"name":"hyein_pants-Mat",
		"mesh":0
	},
	{
		"name":"hyein_pants-Mat.2",
		"mesh":1
	}],
	"meshes":[{
		"name":"hyein_pants-Mat",
		"primitives":[{
			"attributes":{
				"POSITION":1,
				"NORMAL":2,
				"TEXCOORD_0":3
			},
			"indices":0,
			"material":0
		}]
	},
	{
		"name":"hyein_pants-Mat.2",
		"primitives":[{
			"attributes":{
				"POSITION":5,
				"NORMAL":6,
				"TEXCOORD_0":7
			},
			"indices":4,
			"material":1
		}]
	}],
	"accessors":[{
		"max":[527],
		"bufferView":0,
		"count":2880,
		"type":"SCALAR",
		"min":[0],
		"componentType":5123,
		"byteOffset":0
	},
	{
		"max":[126.73372650146485,
		43.176422119140628,
		109.26950073242188],
		"bufferView":1,
		"count":528,
		"type":"VEC3",
		"min":[-126.73372650146485,
		-55.20343017578125,
		-110.82567596435547],
		"componentType":5126,
		"byteOffset":0
	},
	{
		"max":[0.9978689551353455,
		1.0,
		0.9979116320610046],
		"bufferView":1,
		"count":528,
		"type":"VEC3",
		"min":[-0.9978689551353455,
		-1.0,
		-0.9973723292350769],
		"componentType":5126,
		"byteOffset":12
	},
	{
		"max":[3.9795587062835695,
		0.5298702716827393],
		"bufferView":1,
		"count":528,
		"type":"VEC2",
		"min":[0.00869546364992857,
		0.015458015725016594],
		"componentType":5126,
		"byteOffset":24
	},
	{
		"max":[2809],
		"bufferView":2,
		"count":16104,
		"type":"SCALAR",
		"min":[0],
		"componentType":5123,
		"byteOffset":0
	},
	{
		"max":[111.47605895996094,
		42.4167366027832,
		93.06314849853516],
		"bufferView":3,
		"count":2810,
		"type":"VEC3",
		"min":[-110.92682647705078,
		-178.0255889892578,
		-93.68486785888672],
		"componentType":5126,
		"byteOffset":0
	},
	{
		"max":[0.9998903870582581,
		0.9648932814598084,
		0.9999806880950928],
		"bufferView":3,
		"count":2810,
		"type":"VEC3",
		"min":[-0.9998399019241333,
		-0.9916072487831116,
		-0.9999997615814209],
		"componentType":5126,
		"byteOffset":12
	},
	{
		"max":[1.5344187021255494,
		0.6569766998291016],
		"bufferView":3,
		"count":2810,
		"type":"VEC2",
		"min":[0.0019310149364173413,
		-4.470721393090571e-8],
		"componentType":5126,
		"byteOffset":24
	}],
	"bufferViews":[{
		"buffer":0,
		"byteOffset":0,
		"byteLength":5760,
		"target":34963
	},
	{
		"buffer":0,
		"byteOffset":5760,
		"byteLength":16896,
		"target":34962,
		"byteStride":32
	},
	{
		"buffer":1,
		"byteOffset":0,
		"byteLength":32208,
		"target":34963
	},
	{
		"buffer":1,
		"byteOffset":32208,
		"byteLength":89920,
		"target":34962,
		"byteStride":32
	}],
	"buffers":[{
		"uri":"data:application/octet-stream;base64,",
		"byteLength":22656
	},
	{
		"uri":"data:application/octet-stream;base64,",
		"byteLength":122128
	}],
	"images":[{
		"uri":"data:image/png;base64,"
	},
	{
		"uri":"data:image/jpeg;base64,"
	}],
	"textures":[{
		"sampler":0,
		"source":0
	},
	{
		"sampler":1,
		"source":1
	}],
	"materials":[{
		"pbrMetallicRoughness":{
			"baseColorTexture":{
				"index":0
			},
			"baseColorFactor":[1.0,
			1.0,
			1.0,
			1.0],
			"metallicFactor":1.0,
			"roughnessFactor":1.0
		},
		"name":"Mat",
		"emissiveFactor":[0.0,
		0.0,
		0.0],
		"alphaMode":"BLEND",
		"doubleSided":false
	},
	{
		"pbrMetallicRoughness":{
			"baseColorTexture":{
				"index":1
			},
			"baseColorFactor":[1.0,
			1.0,
			1.0,
			1.0],
			"metallicFactor":1.0,
			"roughnessFactor":1.0
		},
		"name":"Mat.2",
		"emissiveFactor":[0.0,
		0.0,
		0.0],
		"alphaMode":"OPAQUE",
		"doubleSided":false
	}]
}