{
	"asset":{
		"version":"2.0",
		"generator":"Created using the official Cinema 4D glTF Exporter 1.000x284978"
	},
	"scenes":[{
		"nodes":[0]
	}],
	"buffers":[{
		"uri":"data:application/octet-stream;base64,",
		"byteLength":22656
	},
	{
		"uri":"data:application/octet-stream;base64,",
		"byteLength":122128
	}],
	"nodes":[{
		"rotation":[0.0,
		0.0,
		0.0,
		-1.0],
		"name":"hyein_pants",
		"translation":[-2.2317378167713288e-8,
		0.03235306218266487,
		0.001330704428255558],
		"scale":[1.0,
		1.0,
		1.0],
		"children":[1,
		2]
	},
	{
		"name":"hyein_pants-Mat",
		"mesh":0
	},
	{
		"name":"hyein_pants-Mat",
		"mesh":1
	}],
	"meshes":[{
		"name":"hyein_pants-Mat",
		"primitives":[{
			"attributes":{
				"POSITION":1,
				"NORMAL":2,
				"TEXCOORD_0":3
			},
			"indices":0,
			"material":0
		}]
	},
	{
		"name":"hyein_pants-Mat",
		"primitives":[{
			"attributes":{
				"POSITION":5,
				"NORMAL":6,
				"TEXCOORD_0":7
			},
			"indices":4,
			"material":1
		}]
	}],
	"accessors":[{
		"bufferView":0,
		"min":[0],
		"type":"SCALAR",
		"componentType":5123,
		"count":2880,
		"byteOffset":0,
		"max":[527]
	},
	{
		"bufferView":1,
		"min":[-0.02013375051319599,
		-0.002520073438063264,
		-0.01724724844098091],
		"type":"VEC3",
		"componentType":5126,
		"count":528,
		"byteOffset":0,
		"max":[0.02013375051319599,
		0.013095879927277565,
		0.017718516290187837]
	},
	{
		"bufferView":1,
		"min":[-0.9978689551353455,
		-1.0,
		-0.9973723292350769],
		"type":"VEC3",
		"componentType":5126,
		"count":528,
		"byteOffset":12,
		"max":[0.9978689551353455,
		1.0,
		0.9979116320610046]
	},
	{
		"bufferView":1,
		"min":[0.00869546364992857,
		0.015458015725016594],
		"type":"VEC2",
		"componentType":5126,
		"count":528,
		"byteOffset":24,
		"max":[3.9795587062835695,
		0.5298702716827393]
	},
	{
		"bufferView":2,
		"min":[0],
		"type":"SCALAR",
		"componentType":5123,
		"count":16104,
		"byteOffset":0,
		"max":[2809]
	},
	{
		"bufferView":3,
		"min":[-0.017622562125325204,
		-0.02203240804374218,
		-0.014524145983159542],
		"type":"VEC3",
		"componentType":5126,
		"count":2810,
		"byteOffset":0,
		"max":[0.017709817737340928,
		0.012988505885004998,
		0.015143868513405323]
	},
	{
		"bufferView":3,
		"min":[-0.9998399019241333,
		-0.9916072487831116,
		-0.9999997615814209],
		"type":"VEC3",
		"componentType":5126,
		"count":2810,
		"byteOffset":12,
		"max":[0.9998903870582581,
		0.9648932814598084,
		0.9999806880950928]
	},
	{
		"bufferView":3,
		"min":[0.0019310149364173413,
		-4.470721393090571e-8],
		"type":"VEC2",
		"componentType":5126,
		"count":2810,
		"byteOffset":24,
		"max":[1.5344187021255494,
		0.6569766998291016]
	}],
	"bufferViews":[{
		"buffer":0,
		"byteOffset":0,
		"byteLength":5760,
		"target":34963
	},
	{
		"buffer":0,
		"byteOffset":5760,
		"byteLength":16896,
		"target":34962,
		"byteStride":32
	},
	{
		"buffer":1,
		"byteOffset":0,
		"byteLength":32208,
		"target":34963
	},
	{
		"buffer":1,
		"byteOffset":32208,
		"byteLength":89920,
		"target":34962,
		"byteStride":32
	}],
	"images":[{
		"uri":"data:image/png;base64,"
	}],
	"samplers":[{
		"magFilter":9729,
		"minFilter":9729,
		"wrapS":10497,
		"wrapT":10497
	}],
	"textures":[{
		"sampler":0,
		"source":0
	}],
	"materials":[{
		"emissiveFactor":[0.0,
		0.0,
		0.0],
		"pbrMetallicRoughness":{
			"baseColorTexture":{
				"index":0
			},
			"baseColorFactor":[1.0,
			1.0,
			1.0,
			1.0],
			"metallicFactor":0.0,
			"roughnessFactor":0.5
		},
		"alphaMode":"BLEND",
		"doubleSided":false,
		"name":"Mat"
	},
	{
		"emissiveFactor":[0.0,
		0.0,
		0.0],
		"pbrMetallicRoughness":{
			"baseColorFactor":[0.6000000000000001,
			0.28,
			1.0,
			1.0],
			"metallicFactor":0.0,
			"roughnessFactor":0.12
		},
		"alphaMode":"OPAQUE",
		"doubleSided":false,
		"name":"Mat"
	}]
}