{
	"asset":{
		"version":"2.0",
		"generator":"Created using the official Cinema 4D glTF Exporter 1.000x284978"
	},
	"scenes":[{
		"nodes":[0]
	}],
	"nodes":[{
		"name":"HYERIN_HB",
		"mesh":0
	}],
	"meshes":[{
		"name":"HYERIN_HB",
		"primitives":[{
			"attributes":{
				"POSITION":1,
				"NORMAL":2,
				"TEXCOORD_0":3
			},
			"indices":0,
			"material":0
		}]
	}],
	"accessors":[{
		"bufferView":0,
		"type":"SCALAR",
		"componentType":5123,
		"count":19716,
		"byteOffset":0,
		"min":[0],
		"max":[3495]
	},
	{
		"bufferView":1,
		"type":"VEC3",
		"componentType":5126,
		"count":3496,
		"byteOffset":0,
		"min":[-122.94364929199219,
		-84.70032501220703,
		-130.43003845214845],
		"max":[124.10064697265625,
		63.72637939453125,
		84.08768463134766]
	},
	{
		"bufferView":1,
		"type":"VEC3",
		"componentType":5126,
		"count":3496,
		"byteOffset":12,
		"min":[-0.9999755620956421,
		-0.9940701723098755,
		-0.999668538570404],
		"max":[0.999626100063324,
		0.9863932132720947,
		0.9998608231544495]
	},
	{
		"bufferView":1,
		"type":"VEC2",
		"componentType":5126,
		"count":3496,
		"byteOffset":24,
		"min":[0.008695552125573159,
		0.0],
		"max":[1.4777113199234009,
		0.6491529941558838]
	}],
	"bufferViews":[{
		"buffer":0,
		"byteOffset":0,
		"byteLength":39432,
		"target":34963
	},
	{
		"buffer":0,
		"byteOffset":39432,
		"byteLength":111872,
		"target":34962,
		"byteStride":32
	}],
	"buffers":[{
		"uri":"data:application/octet-stream;base64,",
		"byteLength":151304
	}],
	"images":[{
		"uri":"data:image/jpeg;base64,"
	}],
	"samplers":[{
		"magFilter":9729,
		"minFilter":9729,
		"wrapS":10497,
		"wrapT":10497
	}],
	"textures":[{
		"sampler":0,
		"source":0
	}],
	"materials":[{
		"pbrMetallicRoughness":{
			"baseColorTexture":{
				"index":0
			},
			"baseColorFactor":[0.9247333333333334,
			0.42679999999999998,
			0.97,
			1.0],
			"metallicFactor":0.0,
			"roughnessFactor":0.6
		},
		"emissiveFactor":[0.0,
		0.0,
		0.0],
		"alphaMode":"OPAQUE",
		"doubleSided":false,
		"name":"Mat.2"
	}]
}