{
	"asset":{
		"version":"2.0",
		"generator":"Created using the official Cinema 4D glTF Exporter 1.000x284978"
	},
	"scenes":[{
		"nodes":[0]
	}],
	"buffers":[{
		"uri":"data:application/octet-stream;base64,",
		"byteLength":122128
	},
	{
		"uri":"data:application/octet-stream;base64,",
		"byteLength":15400
	},
	{
		"uri":"data:application/octet-stream;base64,",
		"byteLength":11220
	}],
	"nodes":[{
		"rotation":[0.0,
		0.0,
		0.0,
		-1.0],
		"name":"minji_pants",
		"mesh":0,
		"translation":[0.0,
		0.028125138953328134,
		0.001792502123862505],
		"scale":[0.05000000074505806,
		0.05000000074505806,
		0.05000000074505806],
		"children":[1,
		2]
	},
	{
		"rotation":[0.0,
		0.0,
		0.0,
		-1.0],
		"name":"Sweep.1",
		"mesh":1,
		"translation":[1.6392261981964112,
		-0.5713129043579102,
		-0.028335511684417726],
		"scale":[1.0,
		1.0,
		1.0]
	},
	{
		"rotation":[0.0,
		0.0,
		0.0,
		-1.0],
		"name":"Remesh.1",
		"mesh":2,
		"translation":[0.002511338097974658,
		0.08522850275039673,
		0.004126471467316151],
		"scale":[1.0,
		1.0,
		1.0]
	}],
	"meshes":[{
		"name":"minji_pants",
		"primitives":[{
			"attributes":{
				"POSITION":1,
				"NORMAL":2,
				"TEXCOORD_0":3
			},
			"indices":0,
			"material":0
		}]
	},
	{
		"name":"Sweep.1",
		"primitives":[{
			"attributes":{
				"POSITION":5,
				"NORMAL":6,
				"TEXCOORD_0":7
			},
			"indices":4,
			"material":1
		}]
	},
	{
		"name":"Remesh.1",
		"primitives":[{
			"attributes":{
				"POSITION":9,
				"NORMAL":10,
				"TEXCOORD_0":11
			},
			"indices":8,
			"material":1
		}]
	}],
	"accessors":[{
		"bufferView":0,
		"min":[0],
		"type":"SCALAR",
		"componentType":5123,
		"count":16104,
		"byteOffset":0,
		"max":[2809]
	},
	{
		"bufferView":1,
		"min":[-0.3456028997898102,
		-0.3439953923225403,
		-0.3045513331890106],
		"type":"VEC3",
		"componentType":5126,
		"count":2810,
		"byteOffset":0,
		"max":[0.3456028997898102,
		0.3439953923225403,
		0.3045513331890106]
	},
	{
		"bufferView":1,
		"min":[-0.9998530745506287,
		-0.9920459389686585,
		-0.9999997615814209],
		"type":"VEC3",
		"componentType":5126,
		"count":2810,
		"byteOffset":12,
		"max":[0.9999002814292908,
		0.9653099179267883,
		0.9999790191650391]
	},
	{
		"bufferView":1,
		"min":[0.0019310149364173413,
		-4.470721393090571e-8],
		"type":"VEC2",
		"componentType":5126,
		"count":2810,
		"byteOffset":24,
		"max":[0.34025612473487856,
		0.14503976702690125]
	},
	{
		"bufferView":2,
		"min":[0],
		"type":"SCALAR",
		"componentType":5123,
		"count":1140,
		"byteOffset":0,
		"max":[409]
	},
	{
		"bufferView":3,
		"min":[-1.3857496976852418,
		0.4973675608634949,
		-0.0894966572523117],
		"type":"VEC3",
		"componentType":5126,
		"count":410,
		"byteOffset":0,
		"max":[-1.301567554473877,
		0.9167746305465698,
		0.19688035547733308]
	},
	{
		"bufferView":3,
		"min":[-0.9983901381492615,
		-0.9960956573486328,
		-0.8956800103187561],
		"type":"VEC3",
		"componentType":5126,
		"count":410,
		"byteOffset":12,
		"max":[0.9984099268913269,
		0.9959394931793213,
		0.9038210511207581]
	},
	{
		"bufferView":3,
		"min":[-0.09566053748130799,
		-0.004477300681173801],
		"type":"VEC2",
		"componentType":5126,
		"count":410,
		"byteOffset":24,
		"max":[1.1024746894836426,
		1.0]
	},
	{
		"bufferView":4,
		"min":[0],
		"type":"SCALAR",
		"componentType":5123,
		"count":1386,
		"byteOffset":0,
		"max":[263]
	},
	{
		"bufferView":5,
		"min":[-0.35840824246406557,
		-0.007116645108908415,
		-0.3106195032596588],
		"type":"VEC3",
		"componentType":5126,
		"count":264,
		"byteOffset":0,
		"max":[0.3534170687198639,
		0.2529905140399933,
		0.2994086742401123]
	},
	{
		"bufferView":5,
		"min":[-0.9966245293617249,
		-0.8800739645957947,
		-0.999251663684845],
		"type":"VEC3",
		"componentType":5126,
		"count":264,
		"byteOffset":12,
		"max":[0.9989128112792969,
		0.11450260877609253,
		0.9858697652816773]
	},
	{
		"bufferView":5,
		"min":[0.027222588658332826,
		0.3884497880935669],
		"type":"VEC2",
		"componentType":5126,
		"count":264,
		"byteOffset":24,
		"max":[0.9770405292510986,
		0.6349802017211914]
	}],
	"bufferViews":[{
		"buffer":0,
		"byteOffset":0,
		"byteLength":32208,
		"target":34963
	},
	{
		"buffer":0,
		"byteOffset":32208,
		"byteLength":89920,
		"target":34962,
		"byteStride":32
	},
	{
		"buffer":1,
		"byteOffset":0,
		"byteLength":2280,
		"target":34963
	},
	{
		"buffer":1,
		"byteOffset":2280,
		"byteLength":13120,
		"target":34962,
		"byteStride":32
	},
	{
		"buffer":2,
		"byteOffset":0,
		"byteLength":2772,
		"target":34963
	},
	{
		"buffer":2,
		"byteOffset":2772,
		"byteLength":8448,
		"target":34962,
		"byteStride":32
	}],
	"images":[{
		"uri":"data:image/png;base64,"
	}],
	"samplers":[{
		"magFilter":9729,
		"minFilter":9729,
		"wrapS":10497,
		"wrapT":10497
	}],
	"textures":[{
		"sampler":0,
		"source":0
	}],
	"materials":[{
		"emissiveFactor":[0.0,
		0.0,
		0.0],
		"pbrMetallicRoughness":{
			"baseColorTexture":{
				"index":0
			},
			"baseColorFactor":[1.0,
			1.0,
			1.0,
			1.0],
			"metallicFactor":0.0,
			"roughnessFactor":0.18
		},
		"alphaMode":"OPAQUE",
		"doubleSided":false,
		"name":"Mat.1"
	},
	{
		"emissiveFactor":[0.0,
		0.0,
		0.0],
		"pbrMetallicRoughness":{
			"baseColorFactor":[1.0,
			1.0,
			1.0,
			1.0],
			"metallicFactor":0.0,
			"roughnessFactor":0.21
		},
		"alphaMode":"OPAQUE",
		"doubleSided":false,
		"name":"Mat"
	}]
}