{
	"samplers":[{
		"magFilter":9729,
		"minFilter":9729,
		"wrapS":10497,
		"wrapT":10497
	},
	{
		"magFilter":9729,
		"minFilter":9729,
		"wrapS":10497,
		"wrapT":10497
	}],
	"asset":{
		"version":"2.0",
		"generator":"Created using the official Cinema 4D glTF Exporter 1.000x284978"
	},
	"scenes":[{
		"nodes":[0]
	}],
	"nodes":[{
		"name":"minji_pants",
		"children":[1,
		2,
		3]
	},
	{
		"name":"minji_pants",
		"mesh":0
	},
	{
		"name":"minji_pants-Mat.1",
		"mesh":1
	},
	{
		"name":"minji_pants-Mat.1",
		"mesh":2
	}],
	"meshes":[{
		"name":"minji_pants",
		"primitives":[{
			"attributes":{
				"POSITION":1,
				"NORMAL":2,
				"TEXCOORD_0":3
			},
			"indices":0
		}]
	},
	{
		"name":"minji_pants-Mat.1",
		"primitives":[{
			"attributes":{
				"POSITION":5,
				"NORMAL":6,
				"TEXCOORD_0":7
			},
			"indices":4,
			"material":0
		}]
	},
	{
		"name":"minji_pants-Mat.1",
		"primitives":[{
			"attributes":{
				"POSITION":9,
				"NORMAL":10,
				"TEXCOORD_0":11
			},
			"indices":8,
			"material":1
		}]
	}],
	"accessors":[{
		"max":[544],
		"bufferView":0,
		"count":1944,
		"type":"SCALAR",
		"min":[0],
		"componentType":5123,
		"byteOffset":0
	},
	{
		"max":[105.2762222290039,
		107.2159652709961,
		52.377716064453128],
		"bufferView":1,
		"count":545,
		"type":"VEC3",
		"min":[78.51486206054688,
		-23.23520851135254,
		-36.274173736572269],
		"componentType":5126,
		"byteOffset":0
	},
	{
		"max":[0.9944573044776917,
		0.9971787333488464,
		0.9936161637306213],
		"bufferView":1,
		"count":545,
		"type":"VEC3",
		"min":[-0.998427152633667,
		-0.9993658065795898,
		-0.9716296195983887],
		"componentType":5126,
		"byteOffset":12
	},
	{
		"max":[1.1577013731002808,
		1.000330924987793],
		"bufferView":1,
		"count":545,
		"type":"VEC2",
		"min":[-0.053131356835365298,
		-0.0019008456729352475],
		"componentType":5126,
		"byteOffset":24
	},
	{
		"max":[263],
		"bufferView":2,
		"count":1386,
		"type":"SCALAR",
		"min":[0],
		"componentType":5123,
		"byteOffset":0
	},
	{
		"max":[109.3086929321289,
		105.44432830810547,
		94.933837890625],
		"bufferView":3,
		"count":264,
		"type":"VEC3",
		"min":[-110.59215545654297,
		24.538394927978517,
		-95.25064849853516],
		"componentType":5126,
		"byteOffset":0
	},
	{
		"max":[0.9999845027923584,
		0.0967526063323021,
		0.9858697652816773],
		"bufferView":3,
		"count":264,
		"type":"VEC3",
		"min":[-0.9966245293617249,
		-0.8800739645957947,
		-0.999251663684845],
		"componentType":5126,
		"byteOffset":12
	},
	{
		"max":[0.9770405292510986,
		0.6349802017211914],
		"bufferView":3,
		"count":264,
		"type":"VEC2",
		"min":[0.027222588658332826,
		0.3884497880935669],
		"componentType":5126,
		"byteOffset":24
	},
	{
		"max":[2952],
		"bufferView":4,
		"count":16104,
		"type":"SCALAR",
		"min":[0],
		"componentType":5123,
		"byteOffset":0
	},
	{
		"max":[107.74144744873047,
		107.24519348144531,
		95.25064849853516],
		"bufferView":5,
		"count":2953,
		"type":"VEC3",
		"min":[-107.75126647949219,
		-107.24519348144531,
		-94.64530181884766],
		"componentType":5126,
		"byteOffset":0
	},
	{
		"max":[0.9999977350234985,
		1.0,
		0.9999790191650391],
		"bufferView":5,
		"count":2953,
		"type":"VEC3",
		"min":[-0.9998530745506287,
		-0.9999979734420776,
		-0.9999997615814209],
		"componentType":5126,
		"byteOffset":12
	},
	{
		"max":[1.5344187021255494,
		0.6569766998291016],
		"bufferView":5,
		"count":2953,
		"type":"VEC2",
		"min":[0.0019310149364173413,
		-4.470721393090571e-8],
		"componentType":5126,
		"byteOffset":24
	}],
	"bufferViews":[{
		"buffer":0,
		"byteOffset":0,
		"byteLength":3888,
		"target":34963
	},
	{
		"buffer":0,
		"byteOffset":3888,
		"byteLength":17440,
		"target":34962,
		"byteStride":32
	},
	{
		"buffer":1,
		"byteOffset":0,
		"byteLength":2772,
		"target":34963
	},
	{
		"buffer":1,
		"byteOffset":2772,
		"byteLength":8448,
		"target":34962,
		"byteStride":32
	},
	{
		"buffer":2,
		"byteOffset":0,
		"byteLength":32208,
		"target":34963
	},
	{
		"buffer":2,
		"byteOffset":32208,
		"byteLength":94496,
		"target":34962,
		"byteStride":32
	}],
	"buffers":[{
		"uri":"data:application/octet-stream;base64,",
		"byteLength":21328
	},
	{
		"uri":"data:application/octet-stream;base64,",
		"byteLength":11220
	},
	{
		"uri":"data:application/octet-stream;base64,",
		"byteLength":126704
	}],
	"images":[{
		"uri":"data:image/png;base64,"
	}],
	"textures":[{
		"sampler":0,
		"source":0
	},
	{
		"sampler":1,
		"source":0
	}],
	"materials":[{
		"pbrMetallicRoughness":{
			"baseColorTexture":{
				"index":0
			},
			"baseColorFactor":[1.0,
			1.0,
			1.0,
			1.0],
			"metallicFactor":0.0,
			"roughnessFactor":0.27
		},
		"name":"Mat.1",
		"emissiveFactor":[0.0,
		0.0,
		0.0],
		"alphaMode":"OPAQUE",
		"doubleSided":false
	},
	{
		"pbrMetallicRoughness":{
			"baseColorTexture":{
				"index":1
			},
			"baseColorFactor":[1.0,
			1.0,
			1.0,
			1.0],
			"metallicFactor":1.0,
			"roughnessFactor":1.0
		},
		"name":"Mat.1",
		"emissiveFactor":[0.0,
		0.0,
		0.0],
		"alphaMode":"OPAQUE",
		"doubleSided":false
	}]
}