{
	"asset":{
		"version":"2.0",
		"generator":"Created using the official Cinema 4D glTF Exporter 1.000x284978"
	},
	"scenes":[{
		"nodes":[0]
	}],
	"accessors":[{
		"bufferView":0,
		"type":"SCALAR",
		"componentType":5123,
		"count":38514,
		"byteOffset":0,
		"min":[0],
		"max":[7959]
	},
	{
		"bufferView":1,
		"type":"VEC3",
		"componentType":5126,
		"count":7960,
		"byteOffset":0,
		"min":[-147.2403106689453,
		-53.63039779663086,
		-90.85892486572266],
		"max":[147.2403106689453,
		53.63039779663086,
		90.85892486572266]
	},
	{
		"bufferView":1,
		"type":"VEC3",
		"componentType":5126,
		"count":7960,
		"byteOffset":12,
		"min":[-0.9999352097511292,
		-0.9996387362480164,
		-0.9999748468399048],
		"max":[0.9998632073402405,
		0.9998558163642883,
		0.9999892711639404]
	},
	{
		"bufferView":1,
		"type":"VEC2",
		"componentType":5126,
		"count":7960,
		"byteOffset":24,
		"min":[-0.02922206185758114,
		0.028688833117485048],
		"max":[1.0637925863265992,
		0.6725649833679199]
	}],
	"nodes":[{
		"name":"daniel_top",
		"mesh":0
	}],
	"meshes":[{
		"name":"daniel_top",
		"primitives":[{
			"attributes":{
				"POSITION":1,
				"NORMAL":2,
				"TEXCOORD_0":3
			},
			"indices":0,
			"material":0
		}]
	}],
	"bufferViews":[{
		"buffer":0,
		"target":34963,
		"byteOffset":0,
		"byteLength":77028
	},
	{
		"buffer":0,
		"target":34962,
		"byteOffset":77028,
		"byteLength":254720,
		"byteStride":32
	}],
	"buffers":[{
		"uri":"data:application/octet-stream;base64,",
		"byteLength":331748
	}],
	"images":[{
		"uri":"data:image/png;base64,"
	}],
	"samplers":[{
		"magFilter":9729,
		"minFilter":9729,
		"wrapS":10497,
		"wrapT":10497
	}],
	"textures":[{
		"sampler":0,
		"source":0
	}],
	"materials":[{
		"pbrMetallicRoughness":{
			"baseColorTexture":{
				"index":0
			},
			"baseColorFactor":[1.0,
			1.0,
			1.0,
			1.0],
			"metallicFactor":0.0,
			"roughnessFactor":0.27
		},
		"emissiveFactor":[0.0,
		0.0,
		0.0],
		"alphaMode":"OPAQUE",
		"name":"Mat.6",
		"doubleSided":false
	}]
}