{
	"asset":{
		"version":"2.0",
		"generator":"Created using the official Cinema 4D glTF Exporter 1.000x284978"
	},
	"scenes":[{
		"nodes":[0]
	}],
	"accessors":[{
		"bufferView":0,
		"type":"SCALAR",
		"componentType":5123,
		"count":3444,
		"byteOffset":0,
		"min":[0],
		"max":[575]
	},
	{
		"bufferView":1,
		"type":"VEC3",
		"componentType":5126,
		"count":576,
		"byteOffset":0,
		"min":[-59.82240295410156,
		-52.377960205078128,
		-24.990768432617189],
		"max":[81.39221954345703,
		62.373138427734378,
		10.961821556091309]
	},
	{
		"bufferView":1,
		"type":"VEC3",
		"componentType":5126,
		"count":576,
		"byteOffset":12,
		"min":[-0.9405296444892883,
		-0.9982801079750061,
		-0.9998079538345337],
		"max":[0.940354585647583,
		0.8964503407478333,
		0.9998079538345337]
	},
	{
		"bufferView":1,
		"type":"VEC2",
		"componentType":5126,
		"count":576,
		"byteOffset":24,
		"min":[-0.003539824392646551,
		0.04424778372049332],
		"max":[1.000885009765625,
		1.001769781112671]
	},
	{
		"bufferView":2,
		"type":"SCALAR",
		"componentType":5123,
		"count":1560,
		"byteOffset":0,
		"min":[0],
		"max":[259]
	},
	{
		"bufferView":3,
		"type":"VEC3",
		"componentType":5126,
		"count":260,
		"byteOffset":0,
		"min":[-65.61408996582031,
		-60.99140167236328,
		-28.59480094909668],
		"max":[87.18006134033203,
		66.53409576416016,
		10.339155197143555]
	},
	{
		"bufferView":3,
		"type":"VEC3",
		"componentType":5126,
		"count":260,
		"byteOffset":12,
		"min":[-0.9721348285675049,
		-0.9357427358627319,
		-0.999184250831604],
		"max":[0.9749708771705627,
		0.994900643825531,
		0.9871675968170166]
	},
	{
		"bufferView":3,
		"type":"VEC2",
		"componentType":5126,
		"count":260,
		"byteOffset":24,
		"min":[0.5112529397010803,
		0.07946893572807312],
		"max":[0.5479679703712463,
		0.11596697568893433]
	},
	{
		"bufferView":4,
		"type":"SCALAR",
		"componentType":5123,
		"count":13920,
		"byteOffset":0,
		"min":[0],
		"max":[2373]
	},
	{
		"bufferView":5,
		"type":"VEC3",
		"componentType":5126,
		"count":2374,
		"byteOffset":0,
		"min":[-107.24551391601563,
		-38.305152893066409,
		-91.8938980102539],
		"max":[107.24535369873047,
		35.114501953125,
		89.20176696777344]
	},
	{
		"bufferView":5,
		"type":"VEC3",
		"componentType":5126,
		"count":2374,
		"byteOffset":12,
		"min":[-0.9993124604225159,
		-0.9975906014442444,
		-0.9999961853027344],
		"max":[0.9991706609725952,
		0.9983773827552795,
		0.9999814033508301]
	},
	{
		"bufferView":5,
		"type":"VEC2",
		"componentType":5126,
		"count":2374,
		"byteOffset":24,
		"min":[0.005731905344873667,
		0.12433400750160217],
		"max":[1.0110456943511963,
		0.7982901334762573]
	},
	{
		"bufferView":6,
		"type":"SCALAR",
		"componentType":5123,
		"count":26880,
		"byteOffset":0,
		"min":[0],
		"max":[6039]
	},
	{
		"bufferView":7,
		"type":"VEC3",
		"componentType":5126,
		"count":6040,
		"byteOffset":0,
		"min":[-125.04280090332031,
		-59.79478073120117,
		-71.94588470458985],
		"max":[9.424428939819336,
		34.399261474609378,
		71.94588470458985]
	},
	{
		"bufferView":7,
		"type":"VEC3",
		"componentType":5126,
		"count":6040,
		"byteOffset":12,
		"min":[-0.9989790916442871,
		-0.9996586441993713,
		-0.999982476234436],
		"max":[0.9985840320587158,
		0.9996134042739868,
		0.999982476234436]
	},
	{
		"bufferView":7,
		"type":"VEC2",
		"componentType":5126,
		"count":6040,
		"byteOffset":24,
		"min":[0.0,
		0.0],
		"max":[1.0,
		1.0]
	}],
	"nodes":[{
		"name":"Null.1",
		"translation":[0.0,
		0.0,
		0.0],
		"rotation":[-0.11840397119522095,
		0.0,
		0.0,
		-0.9929655194282532],
		"scale":[1.0,
		1.0,
		1.0],
		"children":[1,
		2,
		3,
		4]
	},
	{
		"name":"Symmetry",
		"translation":[-0.5053710341453552,
		-124.74695587158203,
		-0.18456025421619416],
		"rotation":[0.0,
		0.0,
		0.0,
		-1.0],
		"scale":[1.0,
		1.0,
		1.0],
		"children":[5]
	},
	{
		"name":"glasses_geom_remesh",
		"mesh":0,
		"translation":[-10.229455947875977,
		4.635267734527588,
		91.0575180053711],
		"rotation":[0.0,
		0.0,
		0.0,
		-1.0],
		"scale":[1.0,
		1.0,
		1.0]
	},
	{
		"name":"glasses_geom_remesh.1",
		"mesh":1,
		"translation":[-10.229455947875977,
		4.635267734527588,
		91.0575180053711],
		"rotation":[0.0,
		0.0,
		0.0,
		-1.0],
		"scale":[1.0,
		1.0,
		1.0]
	},
	{
		"name":"BODY.6",
		"mesh":2,
		"translation":[-0.5053710341453552,
		11.89811897277832,
		6.75197172164917],
		"rotation":[0.0,
		0.0,
		0.0,
		-1.0],
		"scale":[1.0,
		1.0,
		1.0]
	},
	{
		"name":"Cloner",
		"mesh":3,
		"translation":[52.301334381103519,
		177.70237731933595,
		-3.956245183944702],
		"rotation":[0.0,
		0.0,
		0.14692437648773194,
		-0.9891477227210999],
		"scale":[1.0,
		1.0,
		1.0]
	}],
	"meshes":[{
		"name":"glasses_geom_remesh",
		"primitives":[{
			"attributes":{
				"POSITION":1,
				"NORMAL":2,
				"TEXCOORD_0":3
			},
			"indices":0,
			"material":0
		}]
	},
	{
		"name":"glasses_geom_remesh.1",
		"primitives":[{
			"attributes":{
				"POSITION":5,
				"NORMAL":6,
				"TEXCOORD_0":7
			},
			"indices":4,
			"material":1
		}]
	},
	{
		"name":"BODY.6",
		"primitives":[{
			"attributes":{
				"POSITION":9,
				"NORMAL":10,
				"TEXCOORD_0":11
			},
			"indices":8,
			"material":0
		}]
	},
	{
		"name":"Cloner",
		"primitives":[{
			"attributes":{
				"POSITION":13,
				"NORMAL":14,
				"TEXCOORD_0":15
			},
			"indices":12,
			"material":1
		}]
	}],
	"bufferViews":[{
		"buffer":0,
		"target":34963,
		"byteOffset":0,
		"byteLength":6888
	},
	{
		"buffer":0,
		"target":34962,
		"byteOffset":6888,
		"byteLength":18432,
		"byteStride":32
	},
	{
		"buffer":1,
		"target":34963,
		"byteOffset":0,
		"byteLength":3120
	},
	{
		"buffer":1,
		"target":34962,
		"byteOffset":3120,
		"byteLength":8320,
		"byteStride":32
	},
	{
		"buffer":2,
		"target":34963,
		"byteOffset":0,
		"byteLength":27840
	},
	{
		"buffer":2,
		"target":34962,
		"byteOffset":27840,
		"byteLength":75968,
		"byteStride":32
	},
	{
		"buffer":3,
		"target":34963,
		"byteOffset":0,
		"byteLength":53760
	},
	{
		"buffer":3,
		"target":34962,
		"byteOffset":53760,
		"byteLength":193280,
		"byteStride":32
	}],
	"buffers":[{
		"uri":"data:application/octet-stream;base64,",
		"byteLength":25320
	},
	{
		"uri":"data:application/octet-stream;base64,",
		"byteLength":11440
	},
	{
		"uri":"data:application/octet-stream;base64,",
		"byteLength":103808
	},
	{
		"uri":"data:application/octet-stream;base64,",
		"byteLength":247040
	}],
	"images":[{
		"uri":"data:image/png;base64,"
	}],
	"samplers":[{
		"magFilter":9729,
		"minFilter":9729,
		"wrapS":10497,
		"wrapT":10497
	}],
	"textures":[{
		"sampler":0,
		"source":0
	}],
	"materials":[{
		"pbrMetallicRoughness":{
			"baseColorTexture":{
				"index":0
			},
			"baseColorFactor":[1.0,
			1.0,
			1.0,
			1.0],
			"metallicFactor":0.0,
			"roughnessFactor":0.5
		},
		"emissiveFactor":[0.0,
		0.0,
		0.0],
		"alphaMode":"OPAQUE",
		"name":"Mat.7",
		"doubleSided":false
	},
	{
		"pbrMetallicRoughness":{
			"baseColorFactor":[1.0,
			0.8200000000000001,
			0.9100000000000001,
			1.0],
			"metallicFactor":0.0,
			"roughnessFactor":0.25
		},
		"emissiveFactor":[0.0,
		0.0,
		0.0],
		"alphaMode":"OPAQUE",
		"name":"Mat.8",
		"doubleSided":false
	}]
}