{
	"asset":{
		"version":"2.0",
		"generator":"Created using the official Cinema 4D glTF Exporter 1.000x284978"
	},
	"scenes":[{
		"nodes":[0]
	}],
	"buffers":[{
		"uri":"data:application/octet-stream;base64,",
		"byteLength":247040
	},
	{
		"uri":"data:application/octet-stream;base64,",
		"byteLength":32228
	},
	{
		"uri":"data:application/octet-stream;base64,",
		"byteLength":29404
	},
	{
		"uri":"data:application/octet-stream;base64,",
		"byteLength":102072
	}],
	"nodes":[{
		"rotation":[0.0,
		0.0,
		0.0,
		-1.0],
		"name":"hani_top",
		"translation":[-0.000683691177982837,
		0.043035462498664859,
		0.006221689283847809],
		"scale":[1.0,
		1.0,
		1.0],
		"children":[1,
		2,
		3,
		4]
	},
	{
		"rotation":[0.0,
		0.0,
		0.0,
		-1.0],
		"name":"Cloner",
		"mesh":0,
		"translation":[0.0005693386192433536,
		0.017913535237312318,
		-0.00584331713616848],
		"scale":[1.0,
		1.0,
		1.0]
	},
	{
		"rotation":[0.0,
		0.0,
		0.0,
		-1.0],
		"name":"Remesh",
		"mesh":1,
		"translation":[0.0007403391064144671,
		0.011038403026759625,
		0.008371550589799881],
		"scale":[1.0,
		1.0,
		1.0]
	},
	{
		"rotation":[0.0,
		0.0,
		0.0,
		-1.0],
		"name":"Remesh.1",
		"mesh":2,
		"translation":[0.0007403391064144671,
		0.011038403026759625,
		0.008371550589799881],
		"scale":[1.0,
		1.0,
		1.0]
	},
	{
		"rotation":[0.0,
		0.0,
		0.0,
		-1.0],
		"name":"BODY.6",
		"mesh":3,
		"translation":[0.0005693257553502917,
		0.011146394535899163,
		-0.003979822620749474],
		"scale":[1.0,
		1.0,
		1.0]
	}],
	"meshes":[{
		"name":"Cloner",
		"primitives":[{
			"attributes":{
				"POSITION":1,
				"NORMAL":2,
				"TEXCOORD_0":3
			},
			"indices":0,
			"material":0
		}]
	},
	{
		"name":"Remesh",
		"primitives":[{
			"attributes":{
				"POSITION":5,
				"NORMAL":6,
				"TEXCOORD_0":7
			},
			"indices":4,
			"material":1
		}]
	},
	{
		"name":"Remesh.1",
		"primitives":[{
			"attributes":{
				"POSITION":9,
				"NORMAL":10,
				"TEXCOORD_0":11
			},
			"indices":8,
			"material":0
		}]
	},
	{
		"name":"BODY.6",
		"primitives":[{
			"attributes":{
				"POSITION":13,
				"NORMAL":14,
				"TEXCOORD_0":15
			},
			"indices":12,
			"material":1
		}]
	}],
	"accessors":[{
		"bufferView":0,
		"min":[0],
		"type":"SCALAR",
		"componentType":5123,
		"count":26880,
		"byteOffset":0,
		"max":[6039]
	},
	{
		"bufferView":1,
		"min":[-0.011290363036096096,
		-0.005235694348812103,
		-0.011597376316785813],
		"type":"VEC3",
		"componentType":5126,
		"count":6040,
		"byteOffset":0,
		"max":[0.011290363036096096,
		0.005235694348812103,
		0.011597376316785813]
	},
	{
		"bufferView":1,
		"min":[-0.9984675049781799,
		-0.9999865293502808,
		-0.999982476234436],
		"type":"VEC3",
		"componentType":5126,
		"count":6040,
		"byteOffset":12,
		"max":[0.9984675049781799,
		0.9998942017555237,
		0.999982476234436]
	},
	{
		"bufferView":1,
		"min":[0.0,
		0.0],
		"type":"VEC2",
		"componentType":5126,
		"count":6040,
		"byteOffset":24,
		"max":[1.0,
		1.0]
	},
	{
		"bufferView":2,
		"min":[0],
		"type":"SCALAR",
		"componentType":5123,
		"count":4386,
		"byteOffset":0,
		"max":[732]
	},
	{
		"bufferView":3,
		"min":[-0.011495912447571755,
		-0.009266755543649197,
		-0.0030692475847899915],
		"type":"VEC3",
		"componentType":5126,
		"count":733,
		"byteOffset":0,
		"max":[0.011511256918311119,
		0.009354423731565476,
		0.003243731800466776]
	},
	{
		"bufferView":3,
		"min":[-0.9834237098693848,
		-0.9627854824066162,
		-0.9999746084213257],
		"type":"VEC3",
		"componentType":5126,
		"count":733,
		"byteOffset":12,
		"max":[0.9489737749099731,
		0.9898974299430847,
		0.9999166131019592]
	},
	{
		"bufferView":3,
		"min":[0.0007784761255607009,
		-0.004805512726306915],
		"type":"VEC2",
		"componentType":5126,
		"count":733,
		"byteOffset":24,
		"max":[0.9991150498390198,
		0.9929200410842896]
	},
	{
		"bufferView":4,
		"min":[0],
		"type":"SCALAR",
		"componentType":5123,
		"count":3438,
		"byteOffset":0,
		"max":[703]
	},
	{
		"bufferView":5,
		"min":[-0.011882616207003594,
		-0.009678852744400502,
		-0.003458748571574688],
		"type":"VEC3",
		"componentType":5126,
		"count":704,
		"byteOffset":0,
		"max":[0.011868507601320744,
		0.009730944409966469,
		0.0035258405841886999]
	},
	{
		"bufferView":5,
		"min":[-0.9992113709449768,
		-0.9963383674621582,
		-0.9948804974555969],
		"type":"VEC3",
		"componentType":5126,
		"count":704,
		"byteOffset":12,
		"max":[0.9736754894256592,
		0.9990459084510803,
		0.9950173497200012]
	},
	{
		"bufferView":5,
		"min":[0.005032643675804138,
		0.016952697187662126],
		"type":"VEC2",
		"componentType":5126,
		"count":704,
		"byteOffset":24,
		"max":[0.9967944622039795,
		0.9354697465896606]
	},
	{
		"bufferView":6,
		"min":[0],
		"type":"SCALAR",
		"componentType":5123,
		"count":13692,
		"byteOffset":0,
		"max":[2333]
	},
	{
		"bufferView":7,
		"min":[-0.017287515103816987,
		-0.005917470436543226,
		-0.014595932327210904],
		"type":"VEC3",
		"componentType":5126,
		"count":2334,
		"byteOffset":0,
		"max":[0.017287515103816987,
		0.005917470436543226,
		0.014595932327210904]
	},
	{
		"bufferView":7,
		"min":[-0.9993124604225159,
		-0.980093777179718,
		-0.9999961853027344],
		"type":"VEC3",
		"componentType":5126,
		"count":2334,
		"byteOffset":12,
		"max":[0.9991706609725952,
		0.9983773827552795,
		0.9999814033508301]
	},
	{
		"bufferView":7,
		"min":[0.005731905344873667,
		0.12433400750160217],
		"type":"VEC2",
		"componentType":5126,
		"count":2334,
		"byteOffset":24,
		"max":[1.0110456943511963,
		0.7982901334762573]
	}],
	"bufferViews":[{
		"buffer":0,
		"byteOffset":0,
		"byteLength":53760,
		"target":34963
	},
	{
		"buffer":0,
		"byteOffset":53760,
		"byteLength":193280,
		"target":34962,
		"byteStride":32
	},
	{
		"buffer":1,
		"byteOffset":0,
		"byteLength":8772,
		"target":34963
	},
	{
		"buffer":1,
		"byteOffset":8772,
		"byteLength":23456,
		"target":34962,
		"byteStride":32
	},
	{
		"buffer":2,
		"byteOffset":0,
		"byteLength":6876,
		"target":34963
	},
	{
		"buffer":2,
		"byteOffset":6876,
		"byteLength":22528,
		"target":34962,
		"byteStride":32
	},
	{
		"buffer":3,
		"byteOffset":0,
		"byteLength":27384,
		"target":34963
	},
	{
		"buffer":3,
		"byteOffset":27384,
		"byteLength":74688,
		"target":34962,
		"byteStride":32
	}],
	"images":[{
		"uri":"data:image/png;base64,"
	}],
	"samplers":[{
		"magFilter":9729,
		"minFilter":9729,
		"wrapS":10497,
		"wrapT":10497
	}],
	"textures":[{
		"sampler":0,
		"source":0
	}],
	"materials":[{
		"emissiveFactor":[0.0,
		0.0,
		0.0],
		"pbrMetallicRoughness":{
			"baseColorFactor":[1.0,
			0.6499999999999999,
			0.8250000000000003,
			1.0],
			"metallicFactor":0.0,
			"roughnessFactor":0.25
		},
		"alphaMode":"OPAQUE",
		"doubleSided":false,
		"name":"Mat.8"
	},
	{
		"emissiveFactor":[0.0,
		0.0,
		0.0],
		"pbrMetallicRoughness":{
			"baseColorTexture":{
				"index":0
			},
			"baseColorFactor":[1.0,
			1.0,
			1.0,
			1.0],
			"metallicFactor":0.0,
			"roughnessFactor":0.17
		},
		"alphaMode":"OPAQUE",
		"doubleSided":false,
		"name":"Mat.7"
	}]
}