{
	"asset":{
		"version":"2.0",
		"generator":"Created using the official Cinema 4D glTF Exporter 1.000x284978"
	},
	"scenes":[{
		"nodes":[0,
		1,
		2]
	}],
	"textures":[{
		"sampler":0,
		"source":0
	}],
	"nodes":[{
		"name":"hb_hani_top",
		"mesh":0,
		"translation":[0.0,
		0.056406062096357349,
		0.009999999776482582],
		"rotation":[0.0,
		0.0,
		0.0,
		-1.0],
		"scale":[1.0,
		1.0,
		1.0]
	},
	{
		"name":"top",
		"rotation":[0.058916859328746799,
		0.0,
		0.0,
		-0.998262882232666],
		"camera":0,
		"translation":[0.0,
		0.06199999898672104,
		0.05999999865889549],
		"scale":[1.0,
		1.0,
		1.0]
	},
	{
		"name":"top.1",
		"rotation":[0.058916859328746799,
		0.0,
		0.0,
		-0.998262882232666],
		"camera":1,
		"translation":[0.0,
		0.035999998450279239,
		0.054999999701976779],
		"scale":[1.0,
		1.0,
		1.0]
	}],
	"meshes":[{
		"name":"hb_hani_top",
		"primitives":[{
			"attributes":{
				"POSITION":1,
				"NORMAL":2,
				"TEXCOORD_0":3
			},
			"indices":0,
			"material":0
		}]
	}],
	"cameras":[{
		"type":"perspective",
		"perspective":{
			"znear":0.009999999776482582,
			"zfar":10000000000.0,
			"aspectRatio":1.0,
			"yfov":0.950021505355835
		}
	},
	{
		"type":"perspective",
		"perspective":{
			"znear":0.009999999776482582,
			"zfar":10000000000.0,
			"aspectRatio":1.0,
			"yfov":0.950021505355835
		}
	}],
	"accessors":[{
		"bufferView":0,
		"type":"SCALAR",
		"componentType":5123,
		"count":6801,
		"byteOffset":0,
		"min":[0],
		"max":[1249]
	},
	{
		"bufferView":1,
		"type":"VEC3",
		"componentType":5126,
		"count":1250,
		"byteOffset":0,
		"min":[-0.01708946004509926,
		-0.008774587884545327,
		-0.014763018116354943],
		"max":[0.01708946004509926,
		0.008774587884545327,
		0.014763018116354943]
	},
	{
		"bufferView":1,
		"type":"VEC3",
		"componentType":5126,
		"count":1250,
		"byteOffset":12,
		"min":[-0.9999891519546509,
		-0.9987491965293884,
		-0.9998869299888611],
		"max":[0.9996810555458069,
		0.9992069602012634,
		0.9966706037521362]
	},
	{
		"bufferView":1,
		"type":"VEC2",
		"componentType":5126,
		"count":1250,
		"byteOffset":24,
		"min":[0.11238937079906464,
		0.20540431141853333],
		"max":[0.8447928428649902,
		0.711504340171814]
	}],
	"bufferViews":[{
		"buffer":0,
		"byteOffset":0,
		"byteLength":13602,
		"target":34963
	},
	{
		"buffer":0,
		"byteOffset":13604,
		"byteLength":40000,
		"target":34962,
		"byteStride":32
	}],
	"buffers":[{
		"uri":"data:application/octet-stream;base64,",
		"byteLength":53604
	}],
	"images":[{
		"uri":"data:image/jpeg;base64,"
	}],
	"samplers":[{
		"magFilter":9729,
		"minFilter":9729,
		"wrapS":10497,
		"wrapT":10497
	}],
	"materials":[{
		"pbrMetallicRoughness":{
			"baseColorTexture":{
				"index":0
			},
			"baseColorFactor":[1.0,
			1.0,
			1.0,
			1.0],
			"metallicFactor":0.0,
			"roughnessFactor":0.5
		},
		"emissiveFactor":[0.0,
		0.0,
		0.0],
		"alphaMode":"OPAQUE",
		"doubleSided":false,
		"name":"Mat.8"
	}]
}