{
	"asset":{
		"version":"2.0",
		"generator":"Created using the official Cinema 4D glTF Exporter 1.000x284978"
	},
	"scenes":[{
		"nodes":[0,
		1,
		2]
	}],
	"textures":[{
		"sampler":0,
		"source":0
	},
	{
		"sampler":1,
		"source":1
	}],
	"nodes":[{
		"name":"hb_hyein_top",
		"translation":[0.0,
		0.03647613897919655,
		0.0014003708492964507],
		"rotation":[0.0,
		0.0,
		0.0,
		-1.0],
		"scale":[1.0,
		1.0,
		1.0],
		"children":[3,
		4,
		5]
	},
	{
		"name":"top",
		"rotation":[0.058916859328746799,
		0.0,
		0.0,
		-0.998262882232666],
		"camera":0,
		"translation":[0.0,
		0.057999998331069949,
		0.06988400220870972],
		"scale":[1.0,
		1.0,
		1.0]
	},
	{
		"name":"top.1",
		"rotation":[0.058916859328746799,
		0.0,
		0.0,
		-0.998262882232666],
		"camera":1,
		"translation":[0.0,
		0.0430000014603138,
		0.05299999937415123],
		"scale":[1.0,
		1.0,
		1.0]
	},
	{
		"name":"Boole_remesh.1",
		"mesh":0,
		"translation":[0.000022435348000726664,
		0.017202511429786683,
		0.0005523153231479228],
		"rotation":[0.0,
		0.0,
		0.0,
		-1.0],
		"scale":[1.0,
		1.0,
		1.0]
	},
	{
		"name":"POSED_BODY_FIN2.5",
		"mesh":1,
		"translation":[0.00012272610911168158,
		-0.03647613897919655,
		-0.0014003708492964507],
		"rotation":[0.0,
		0.0,
		0.0,
		-1.0],
		"scale":[1.0,
		1.0,
		1.0]
	},
	{
		"name":"Boole_remesh",
		"mesh":2,
		"translation":[-0.00014516146620735526,
		0.019273625686764718,
		0.0008480555843561888],
		"rotation":[0.0,
		0.0,
		0.0,
		-1.0],
		"scale":[1.0,
		1.0,
		1.0]
	}],
	"meshes":[{
		"name":"Boole_remesh.1",
		"primitives":[{
			"attributes":{
				"POSITION":1,
				"NORMAL":2,
				"TEXCOORD_0":3
			},
			"indices":0,
			"material":0
		}]
	},
	{
		"name":"POSED_BODY_FIN2.5",
		"primitives":[{
			"attributes":{
				"POSITION":5,
				"NORMAL":6,
				"TEXCOORD_0":7
			},
			"indices":4,
			"material":1
		}]
	},
	{
		"name":"Boole_remesh",
		"primitives":[{
			"attributes":{
				"POSITION":9,
				"NORMAL":10,
				"TEXCOORD_0":11
			},
			"indices":8,
			"material":2
		}]
	}],
	"cameras":[{
		"type":"perspective",
		"perspective":{
			"znear":0.009999999776482582,
			"zfar":10000000000.0,
			"aspectRatio":1.0,
			"yfov":0.950021505355835
		}
	},
	{
		"type":"perspective",
		"perspective":{
			"znear":0.009999999776482582,
			"zfar":10000000000.0,
			"aspectRatio":1.0,
			"yfov":0.950021505355835
		}
	}],
	"accessors":[{
		"bufferView":0,
		"type":"SCALAR",
		"componentType":5123,
		"count":7851,
		"byteOffset":0,
		"min":[0],
		"max":[1399]
	},
	{
		"bufferView":1,
		"type":"VEC3",
		"componentType":5126,
		"count":1400,
		"byteOffset":0,
		"min":[-0.02557872049510479,
		-0.009275208227336407,
		-0.01358299981802702],
		"max":[0.002974860370159149,
		0.010542061179876328,
		0.013683621771633625]
	},
	{
		"bufferView":1,
		"type":"VEC3",
		"componentType":5126,
		"count":1400,
		"byteOffset":12,
		"min":[-0.9995536804199219,
		-0.998792827129364,
		-0.9998308420181274],
		"max":[0.9925445914268494,
		0.9998748898506165,
		0.9996106624603272]
	},
	{
		"bufferView":1,
		"type":"VEC2",
		"componentType":5126,
		"count":1400,
		"byteOffset":24,
		"min":[-0.22661395370960236,
		-0.009221334010362625],
		"max":[0.8567233085632324,
		0.80721116065979]
	},
	{
		"bufferView":2,
		"type":"SCALAR",
		"componentType":5123,
		"count":276,
		"byteOffset":0,
		"min":[0],
		"max":[66]
	},
	{
		"bufferView":3,
		"type":"VEC3",
		"componentType":5126,
		"count":67,
		"byteOffset":0,
		"min":[-0.012228510342538357,
		0.04767930880188942,
		0.011693877167999745],
		"max":[0.003521057777106762,
		0.054891154170036319,
		0.016660181805491449]
	},
	{
		"bufferView":3,
		"type":"VEC3",
		"componentType":5126,
		"count":67,
		"byteOffset":12,
		"min":[-0.6831076741218567,
		-0.9996790289878845,
		-0.026844419538974763],
		"max":[0.13978169858455659,
		0.23294271528720857,
		0.9999885559082031]
	},
	{
		"bufferView":3,
		"type":"VEC2",
		"componentType":5126,
		"count":67,
		"byteOffset":24,
		"min":[0.4046285152435303,
		1.183800458908081],
		"max":[0.5858982801437378,
		1.2660479545593262]
	},
	{
		"bufferView":4,
		"type":"SCALAR",
		"componentType":5123,
		"count":6690,
		"byteOffset":0,
		"min":[0],
		"max":[1209]
	},
	{
		"bufferView":5,
		"type":"VEC3",
		"componentType":5126,
		"count":1210,
		"byteOffset":0,
		"min":[-0.013572433032095433,
		-0.011814718134701252,
		-0.014868807047605515],
		"max":[0.024526476860046388,
		0.009506885893642903,
		0.015380190685391426]
	},
	{
		"bufferView":5,
		"type":"VEC3",
		"componentType":5126,
		"count":1210,
		"byteOffset":12,
		"min":[-0.9895909428596497,
		-0.9986624717712402,
		-0.9975168704986572],
		"max":[0.999570369720459,
		0.9999809265136719,
		0.9912493228912354]
	},
	{
		"bufferView":5,
		"type":"VEC2",
		"componentType":5126,
		"count":1210,
		"byteOffset":24,
		"min":[0.23708297312259675,
		0.09566381573677063],
		"max":[0.997005045413971,
		0.7686331272125244]
	}],
	"bufferViews":[{
		"buffer":0,
		"byteOffset":0,
		"byteLength":15702,
		"target":34963
	},
	{
		"buffer":0,
		"byteOffset":15704,
		"byteLength":44800,
		"target":34962,
		"byteStride":32
	},
	{
		"buffer":1,
		"byteOffset":0,
		"byteLength":552,
		"target":34963
	},
	{
		"buffer":1,
		"byteOffset":552,
		"byteLength":2144,
		"target":34962,
		"byteStride":32
	},
	{
		"buffer":2,
		"byteOffset":0,
		"byteLength":13380,
		"target":34963
	},
	{
		"buffer":2,
		"byteOffset":13380,
		"byteLength":38720,
		"target":34962,
		"byteStride":32
	}],
	"buffers":[{
		"uri":"data:application/octet-stream;base64,",
		"byteLength":60504
	},
	{
		"uri":"data:application/octet-stream;base64,",
		"byteLength":2696
	},
	{
		"uri":"data:application/octet-stream;base64,",
		"byteLength":52100
	}],
	"images":[{
		"uri":"data:image/png;base64,"
	},
	{
		"uri":"data:image/png;base64,"
	}],
	"samplers":[{
		"magFilter":9729,
		"minFilter":9729,
		"wrapS":10497,
		"wrapT":10497
	},
	{
		"magFilter":9729,
		"minFilter":9729,
		"wrapS":10497,
		"wrapT":10497
	}],
	"materials":[{
		"pbrMetallicRoughness":{
			"baseColorTexture":{
				"index":0
			},
			"baseColorFactor":[0.5866666666666668,
			0.8,
			0.0,
			1.0],
			"metallicFactor":0.0,
			"roughnessFactor":0.5
		},
		"emissiveFactor":[0.0,
		0.0,
		0.0],
		"alphaMode":"OPAQUE",
		"doubleSided":false,
		"name":"Mat.7"
	},
	{
		"pbrMetallicRoughness":{
			"baseColorFactor":[1.0,
			1.0,
			1.0,
			1.0],
			"metallicFactor":0.0,
			"roughnessFactor":0.5
		},
		"emissiveFactor":[0.0,
		0.0,
		0.0],
		"alphaMode":"OPAQUE",
		"doubleSided":false,
		"name":"Mat.9"
	},
	{
		"pbrMetallicRoughness":{
			"baseColorTexture":{
				"index":1
			},
			"baseColorFactor":[1.0,
			0.56,
			0.9853333333333334,
			1.0],
			"metallicFactor":0.0,
			"roughnessFactor":0.2
		},
		"emissiveFactor":[0.0,
		0.0,
		0.0],
		"alphaMode":"OPAQUE",
		"doubleSided":false,
		"name":"Mat.5"
	}]
}