{
	"asset":{
		"version":"2.0",
		"generator":"Created using the official Cinema 4D glTF Exporter 1.000x284978"
	},
	"scenes":[{
		"nodes":[0]
	}],
	"buffers":[{
		"uri":"data:application/octet-stream;base64,",
		"byteLength":348468
	}],
	"nodes":[{
		"rotation":[0.0,
		0.0,
		0.0,
		-1.0],
		"name":"herin_top",
		"mesh":0,
		"translation":[0.0,
		0.054874029010534289,
		0.0017600677674636245],
		"scale":[0.05000000074505806,
		0.05000000074505806,
		0.05000000074505806]
	}],
	"meshes":[{
		"name":"herin_top",
		"primitives":[{
			"attributes":{
				"POSITION":1,
				"NORMAL":2,
				"TEXCOORD_0":3
			},
			"indices":0,
			"material":0
		}]
	}],
	"accessors":[{
		"bufferView":0,
		"min":[0],
		"type":"SCALAR",
		"componentType":5123,
		"count":40794,
		"byteOffset":0,
		"max":[8339]
	},
	{
		"bufferView":1,
		"min":[-0.47129181027412417,
		-0.20360155403614045,
		-0.29600566625595095],
		"type":"VEC3",
		"componentType":5126,
		"count":8340,
		"byteOffset":0,
		"max":[0.47129181027412417,
		0.20360155403614045,
		0.29600566625595095]
	},
	{
		"bufferView":1,
		"min":[-0.9999352097511292,
		-0.9996387362480164,
		-0.9999748468399048],
		"type":"VEC3",
		"componentType":5126,
		"count":8340,
		"byteOffset":12,
		"max":[0.9998632073402405,
		0.9998558163642883,
		0.9999892711639404]
	},
	{
		"bufferView":1,
		"min":[-0.02922206185758114,
		0.028688833117485048],
		"type":"VEC2",
		"componentType":5126,
		"count":8340,
		"byteOffset":24,
		"max":[1.0637925863265992,
		0.6725649833679199]
	}],
	"bufferViews":[{
		"buffer":0,
		"byteOffset":0,
		"byteLength":81588,
		"target":34963
	},
	{
		"buffer":0,
		"byteOffset":81588,
		"byteLength":266880,
		"target":34962,
		"byteStride":32
	}],
	"images":[{
		"uri":"data:image/png;base64,"
	}],
	"samplers":[{
		"magFilter":9729,
		"minFilter":9729,
		"wrapS":10497,
		"wrapT":10497
	}],
	"textures":[{
		"sampler":0,
		"source":0
	}],
	"materials":[{
		"emissiveFactor":[0.0,
		0.0,
		0.0],
		"pbrMetallicRoughness":{
			"baseColorTexture":{
				"index":0
			},
			"baseColorFactor":[1.0,
			1.0,
			1.0,
			1.0],
			"metallicFactor":0.0,
			"roughnessFactor":0.27
		},
		"alphaMode":"OPAQUE",
		"doubleSided":false,
		"name":"Mat.2"
	}]
}