{
	"samplers":[{
		"magFilter":9729,
		"minFilter":9729,
		"wrapS":10497,
		"wrapT":10497
	}],
	"asset":{
		"version":"2.0",
		"generator":"Created using the official Cinema 4D glTF Exporter 1.000x284978"
	},
	"scenes":[{
		"nodes":[0]
	}],
	"nodes":[{
		"name":"herin_top",
		"mesh":0
	}],
	"meshes":[{
		"name":"herin_top",
		"primitives":[{
			"attributes":{
				"POSITION":1,
				"NORMAL":2,
				"TEXCOORD_0":3
			},
			"indices":0,
			"material":0
		}]
	}],
	"accessors":[{
		"max":[8339],
		"bufferView":0,
		"count":40794,
		"type":"SCALAR",
		"min":[0],
		"componentType":5123,
		"byteOffset":0
	},
	{
		"max":[147.2403106689453,
		63.60890579223633,
		92.4776611328125],
		"bufferView":1,
		"count":8340,
		"type":"VEC3",
		"min":[-147.2403106689453,
		-63.60890579223633,
		-92.4776611328125],
		"componentType":5126,
		"byteOffset":0
	},
	{
		"max":[0.9998632073402405,
		0.9998558163642883,
		0.9999892711639404],
		"bufferView":1,
		"count":8340,
		"type":"VEC3",
		"min":[-0.9999352097511292,
		-0.9996387362480164,
		-0.9999748468399048],
		"componentType":5126,
		"byteOffset":12
	},
	{
		"max":[1.0637925863265992,
		0.6725649833679199],
		"bufferView":1,
		"count":8340,
		"type":"VEC2",
		"min":[-0.02922206185758114,
		0.028688833117485048],
		"componentType":5126,
		"byteOffset":24
	}],
	"bufferViews":[{
		"buffer":0,
		"byteOffset":0,
		"byteLength":81588,
		"target":34963
	},
	{
		"buffer":0,
		"byteOffset":81588,
		"byteLength":266880,
		"target":34962,
		"byteStride":32
	}],
	"buffers":[{
		"uri":"data:application/octet-stream;base64,",
		"byteLength":348468
	}],
	"images":[{
		"uri":"data:image/png;base64,"
	}],
	"textures":[{
		"sampler":0,
		"source":0
	}],
	"materials":[{
		"pbrMetallicRoughness":{
			"baseColorTexture":{
				"index":0
			},
			"baseColorFactor":[1.0,
			1.0,
			1.0,
			1.0],
			"metallicFactor":0.0,
			"roughnessFactor":0.51
		},
		"name":"Mat.2",
		"emissiveFactor":[0.0,
		0.0,
		0.0],
		"alphaMode":"OPAQUE",
		"doubleSided":false
	}]
}