{
	"asset":{
		"version":"2.0",
		"generator":"Created using the official Cinema 4D glTF Exporter 1.000x284978"
	},
	"scenes":[{
		"nodes":[0]
	}],
	"buffers":[{
		"uri":"data:application/octet-stream;base64,",
		"byteLength":602016
	}],
	"nodes":[{
		"rotation":[0.0,
		0.0,
		0.0,
		-1.0],
		"name":"hyein_top",
		"mesh":0,
		"translation":[-0.00008645349589642137,
		0.053664740175008777,
		0.0018145868089050055],
		"scale":[0.009999999776482582,
		0.009999999776482582,
		0.009999999776482582]
	}],
	"meshes":[{
		"name":"hyein_top",
		"primitives":[{
			"attributes":{
				"POSITION":1,
				"NORMAL":2,
				"TEXCOORD_0":3
			},
			"indices":0,
			"material":0
		}]
	}],
	"accessors":[{
		"bufferView":0,
		"min":[0],
		"type":"SCALAR",
		"componentType":5123,
		"count":79536,
		"byteOffset":0,
		"max":[13841]
	},
	{
		"bufferView":1,
		"min":[-2.9490041732788088,
		-1.13706374168396,
		-1.5052356719970704],
		"type":"VEC3",
		"componentType":5126,
		"count":13842,
		"byteOffset":0,
		"max":[2.9490041732788088,
		1.13706374168396,
		1.5052356719970704]
	},
	{
		"bufferView":1,
		"min":[-0.9998147487640381,
		-0.999673068523407,
		-0.9998413324356079],
		"type":"VEC3",
		"componentType":5126,
		"count":13842,
		"byteOffset":12,
		"max":[0.9998147487640381,
		0.9999532103538513,
		0.9995652437210083]
	},
	{
		"bufferView":1,
		"min":[0.000020130619304836729,
		4.996003610813204e-16],
		"type":"VEC2",
		"componentType":5126,
		"count":13842,
		"byteOffset":24,
		"max":[1.0151691436767579,
		1.0]
	}],
	"bufferViews":[{
		"buffer":0,
		"byteOffset":0,
		"byteLength":159072,
		"target":34963
	},
	{
		"buffer":0,
		"byteOffset":159072,
		"byteLength":442944,
		"target":34962,
		"byteStride":32
	}],
	"materials":[{
		"emissiveFactor":[0.0,
		0.0,
		0.0],
		"pbrMetallicRoughness":{
			"baseColorFactor":[0.6000000000000001,
			0.28,
			1.0,
			1.0],
			"metallicFactor":0.0,
			"roughnessFactor":0.12
		},
		"alphaMode":"OPAQUE",
		"doubleSided":false,
		"name":"Mat"
	}]
}