{
	"samplers":[{
		"magFilter":9729,
		"minFilter":9729,
		"wrapS":10497,
		"wrapT":10497
	}],
	"asset":{
		"version":"2.0",
		"generator":"Created using the official Cinema 4D glTF Exporter 1.000x284978"
	},
	"scenes":[{
		"nodes":[0]
	}],
	"nodes":[{
		"name":"minji_top",
		"children":[1]
	},
	{
		"name":"minji_top-Mat.1",
		"mesh":0
	}],
	"meshes":[{
		"name":"minji_top-Mat.1",
		"primitives":[{
			"attributes":{
				"POSITION":1,
				"NORMAL":2,
				"TEXCOORD_0":3
			},
			"indices":0,
			"material":0
		}]
	}],
	"accessors":[{
		"max":[12321],
		"bufferView":0,
		"count":40884,
		"type":"SCALAR",
		"min":[0],
		"componentType":5123,
		"byteOffset":0
	},
	{
		"max":[147.2403106689453,
		55.5037841796875,
		90.85892486572266],
		"bufferView":1,
		"count":12322,
		"type":"VEC3",
		"min":[-147.2403106689453,
		-55.5037841796875,
		-90.85892486572266],
		"componentType":5126,
		"byteOffset":0
	},
	{
		"max":[0.9998632073402405,
		0.999888002872467,
		0.9999892711639404],
		"bufferView":1,
		"count":12322,
		"type":"VEC3",
		"min":[-0.9999352097511292,
		-0.9999858140945435,
		-0.9999685883522034],
		"componentType":5126,
		"byteOffset":12
	},
	{
		"max":[1.054177165031433,
		0.6379495859146118],
		"bufferView":1,
		"count":12322,
		"type":"VEC2",
		"min":[-0.03883744776248932,
		0.028688833117485048],
		"componentType":5126,
		"byteOffset":24
	}],
	"bufferViews":[{
		"buffer":0,
		"byteOffset":0,
		"byteLength":81768,
		"target":34963
	},
	{
		"buffer":0,
		"byteOffset":81768,
		"byteLength":394304,
		"target":34962,
		"byteStride":32
	}],
	"buffers":[{
		"uri":"data:application/octet-stream;base64,",
		"byteLength":476072
	}],
	"images":[{
		"uri":"data:image/png;base64,"
	}],
	"textures":[{
		"sampler":0,
		"source":0
	}],
	"materials":[{
		"pbrMetallicRoughness":{
			"baseColorTexture":{
				"index":0
			},
			"baseColorFactor":[1.0,
			1.0,
			1.0,
			1.0],
			"metallicFactor":1.0,
			"roughnessFactor":1.0
		},
		"name":"Mat.1",
		"emissiveFactor":[0.0,
		0.0,
		0.0],
		"alphaMode":"OPAQUE",
		"doubleSided":false
	}]
}