{
	"asset":{
		"version":"2.0",
		"generator":"Created using the official Cinema 4D glTF Exporter 1.000x284978"
	},
	"scenes":[{
		"nodes":[0]
	}],
	"buffers":[{
		"uri":"data:application/octet-stream;base64,",
		"byteLength":471044
	}],
	"nodes":[{
		"rotation":[0.0,
		0.0,
		0.0,
		-1.0],
		"name":"minji_top",
		"mesh":0,
		"translation":[0.0,
		0.0564340204000473,
		0.002314948942512274],
		"scale":[0.009999999776482582,
		0.009999999776482582,
		0.009999999776482582]
	}],
	"meshes":[{
		"name":"minji_top",
		"primitives":[{
			"attributes":{
				"POSITION":1,
				"NORMAL":2,
				"TEXCOORD_0":3
			},
			"indices":0,
			"material":0
		}]
	}],
	"accessors":[{
		"bufferView":0,
		"min":[0],
		"type":"SCALAR",
		"componentType":5123,
		"count":40497,
		"byteOffset":0,
		"max":[12188]
	},
	{
		"bufferView":1,
		"min":[-2.40401029586792,
		-0.9062169790267944,
		-1.4834645986557007],
		"type":"VEC3",
		"componentType":5126,
		"count":12189,
		"byteOffset":0,
		"max":[2.40401029586792,
		0.9062169790267944,
		1.4834645986557007]
	},
	{
		"bufferView":1,
		"min":[-0.9999352097511292,
		-0.9999858140945435,
		-0.9999685883522034],
		"type":"VEC3",
		"componentType":5126,
		"count":12189,
		"byteOffset":12,
		"max":[0.9998632073402405,
		0.999888002872467,
		0.9999892711639404]
	},
	{
		"bufferView":1,
		"min":[-0.03883744776248932,
		0.028688833117485048],
		"type":"VEC2",
		"componentType":5126,
		"count":12189,
		"byteOffset":24,
		"max":[1.054177165031433,
		0.6379495859146118]
	}],
	"bufferViews":[{
		"buffer":0,
		"byteOffset":0,
		"byteLength":80994,
		"target":34963
	},
	{
		"buffer":0,
		"byteOffset":80996,
		"byteLength":390048,
		"target":34962,
		"byteStride":32
	}],
	"images":[{
		"uri":"data:image/png;base64,"
	}],
	"samplers":[{
		"magFilter":9729,
		"minFilter":9729,
		"wrapS":10497,
		"wrapT":10497
	}],
	"textures":[{
		"sampler":0,
		"source":0
	}],
	"materials":[{
		"emissiveFactor":[0.0,
		0.0,
		0.0],
		"pbrMetallicRoughness":{
			"baseColorTexture":{
				"index":0
			},
			"baseColorFactor":[1.0,
			1.0,
			1.0,
			1.0],
			"metallicFactor":1.0,
			"roughnessFactor":1.0
		},
		"alphaMode":"OPAQUE",
		"doubleSided":false,
		"name":"Mat.1"
	}]
}