{
	"asset":{
		"version":"2.0",
		"generator":"Created using the official Cinema 4D glTF Exporter 1.000x284978"
	},
	"scenes":[{
		"nodes":[0]
	}],
	"buffers":[{
		"uri":"data:application/octet-stream;base64,",
		"byteLength":633632
	}],
	"nodes":[{
		"rotation":[0.0,
		0.0,
		0.0,
		-1.0],
		"name":"hyein_top",
		"mesh":0,
		"translation":[-0.008645349182188511,
		5.36647367477417,
		0.18145868182182313],
		"scale":[0.009999999776482582,
		0.009999999776482582,
		0.009999999776482582]
	}],
	"meshes":[{
		"name":"hyein_top",
		"primitives":[{
			"attributes":{
				"POSITION":1,
				"NORMAL":2,
				"TEXCOORD_0":3
			},
			"indices":0,
			"material":0
		}]
	}],
	"accessors":[{
		"bufferView":0,
		"min":[0],
		"type":"SCALAR",
		"componentType":5123,
		"count":79536,
		"byteOffset":0,
		"max":[14829]
	},
	{
		"bufferView":1,
		"min":[-294.9004211425781,
		-113.70636749267578,
		-150.52357482910157],
		"type":"VEC3",
		"componentType":5126,
		"count":14830,
		"byteOffset":0,
		"max":[294.9004211425781,
		113.70636749267578,
		150.52357482910157]
	},
	{
		"bufferView":1,
		"min":[-0.9998147487640381,
		-0.999673068523407,
		-0.9998413324356079],
		"type":"VEC3",
		"componentType":5126,
		"count":14830,
		"byteOffset":12,
		"max":[0.9998147487640381,
		0.9999532103538513,
		0.9995652437210083]
	},
	{
		"bufferView":1,
		"min":[0.0,
		-0.5542142391204834],
		"type":"VEC2",
		"componentType":5126,
		"count":14830,
		"byteOffset":24,
		"max":[1.578991413116455,
		1.0]
	}],
	"bufferViews":[{
		"buffer":0,
		"byteOffset":0,
		"byteLength":159072,
		"target":34963
	},
	{
		"buffer":0,
		"byteOffset":159072,
		"byteLength":474560,
		"target":34962,
		"byteStride":32
	}],
	"images":[{
		"uri":"data:image/jpeg;base64,"
	}],
	"samplers":[{
		"magFilter":9729,
		"minFilter":9729,
		"wrapS":10497,
		"wrapT":10497
	}],
	"textures":[{
		"sampler":0,
		"source":0
	}],
	"materials":[{
		"emissiveFactor":[0.0,
		0.0,
		0.0],
		"pbrMetallicRoughness":{
			"baseColorTexture":{
				"index":0
			},
			"baseColorFactor":[1.0,
			1.0,
			1.0,
			1.0],
			"metallicFactor":0.0,
			"roughnessFactor":0.6
		},
		"alphaMode":"OPAQUE",
		"doubleSided":false,
		"name":"Mat.2"
	}]
}