<svg xmlns="http://www.w3.org/2000/svg" xmlns:xlink="http://www.w3.org/2000/xlink">
  <defs>
    <symbol viewBox="0 0 36 36" id="avatar-fill">
      <path fill="currentcolor" d="M 32 24 L 32 26 L 34 26 L 34 36 L 2 36 L 2 26 L 4 26 L 4 24 L 6 24 L 6 22 L 30 22 L 30 24 L 32 24 Z M 12 18 L 10 18 L 10 16 L 8 16 L 8 4 L 10 4 L 10 2 L 12 2 L 12 0 L 24 0 L 24 2 L 26 2 L 26 4 L 28 4 L 28 16 L 26 16 L 26 18 L 24 18 L 24 20 L 12 20 L 12 18 Z" />
    </symbol>
    <symbol viewBox="0 0 36 36" id="avatar-outline">
      <path fill="currentcolor" d="M 12 18 L 10 18 L 10 16 L 8 16 L 8 4 L 10 4 L 10 2 L 12 2 L 12 0 L 24 0 L 24 2 L 26 2 L 26 4 L 28 4 L 28 16 L 26 16 L 26 18 L 24 18 L 24 20 L 12 20 L 12 18 Z M 14 8 L 12 8 L 12 12 L 14 12 L 14 14 L 16 14 L 16 16 L 20 16 L 20 14 L 22 14 L 22 12 L 24 12 L 24 8 L 22 8 L 22 6 L 20 6 L 20 4 L 16 4 L 16 6 L 14 6 L 14 8 Z M 32 24 L 32 26 L 34 26 L 34 36 L 30 36 L 30 30 L 28 30 L 28 28 L 26 28 L 26 26 L 10 26 L 10 28 L 8 28 L 8 30 L 6 30 L 6 36 L 2 36 L 2 26 L 4 26 L 4 24 L 6 24 L 6 22 L 30 22 L 30 24 L 32 24 Z" />
    </symbol>
    <symbol viewBox="0 0 36 36" id="camera-fill">
      <path fill="currentcolor" d="M 34.2 6.3 L 34.2 8.1 L 36 8.1 L 36 31.5 L 34.2 31.5 L 34.2 33.3 L 1.8 33.3 L 1.8 31.5 L 0 31.5 L 0 8.1 L 1.8 8.1 L 1.8 6.3 L 9 6.3 L 9 2.7 L 27 2.7 L 27 6.3 L 34.2 6.3" />
    </symbol>
    <symbol viewBox="0 0 36 36" id="camera-outline">
      <path fill="currentcolor" d="M 34.2 6.3 L 34.2 8.1 L 36 8.1 L 36 31.5 L 34.2 31.5 L 34.2 33.3 L 1.8 33.3 L 1.8 31.5 L 0 31.5 L 0 8.1 L 1.8 8.1 L 1.8 6.3 L 9 6.3 L 9 2.7 L 27 2.7 L 27 6.3 L 34.2 6.3 Z M 30.6 27.9 L 32.4 27.9 L 32.4 11.7 L 30.6 11.7 L 30.6 9.9 L 23.4 9.9 L 23.4 6.3 L 12.6 6.3 L 12.6 9.9 L 5.4 9.9 L 5.4 11.7 L 3.6 11.7 L 3.6 27.9 L 5.4 27.9 L 5.4 29.7 L 30.6 29.7 L 30.6 27.9 Z M 12.6 11.7 L 23.4 11.7 L 23.4 13.5 L 25.2 13.5 L 25.2 24.3 L 23.4 24.3 L 23.4 26.1 L 12.6 26.1 L 12.6 24.3 L 10.8 24.3 L 10.8 13.5 L 12.6 13.5 L 12.6 11.7 Z M 19.8 20.7 L 21.6 20.7 L 21.6 17.1 L 19.8 17.1 L 19.8 15.3 L 16.2 15.3 L 16.2 17.1 L 14.4 17.1 L 14.4 20.7 L 16.2 20.7 L 16.2 22.5 L 19.8 22.5 L 19.8 20.7 Z" />
    </symbol>
    <symbol viewBox="0 0 36 36" id="home-fill">
      <path fill="currentcolor" d="M 34.2 9 L 34.2 7.2 L 30.6 7.2 L 30.6 5.4 L 27 5.4 L 27 3.6 L 23.4 3.6 L 23.4 1.8 L 12.6 1.8 L 12.6 3.6 L 9 3.6 L 9 5.4 L 5.4 5.4 L 5.4 7.2 L 1.8 7.2 L 1.8 9 L 0 9 L 0 12.6 L 1.8 12.6 L 1.8 30.6 L 0 30.6 L 0 34.2 L 16.2 34.2 L 16.2 21.6 L 19.8 21.6 L 19.8 34.2 L 36 34.2 L 36 30.6 L 34.2 30.6 L 34.2 12.6 L 36 12.6 L 36 9 L 34.2 9 Z" />
    </symbol>
    <symbol viewBox="0 0 36 36" id="home-outline">
      <path fill="currentcolor" d="M 34.2 9 L 34.2 7.2 L 30.6 7.2 L 30.6 5.4 L 27 5.4 L 27 3.6 L 23.4 3.6 L 23.4 1.8 L 12.6 1.8 L 12.6 3.6 L 9 3.6 L 9 5.4 L 5.4 5.4 L 5.4 7.2 L 1.8 7.2 L 1.8 9 L 0 9 L 0 12.6 L 1.8 12.6 L 1.8 30.6 L 0 30.6 L 0 34.2 L 16.2 34.2 L 16.2 21.6 L 19.8 21.6 L 19.8 34.2 L 36 34.2 L 36 30.6 L 34.2 30.6 L 34.2 12.6 L 36 12.6 L 36 9 L 34.2 9 Z M 30.6 30.6 L 23.4 30.6 L 23.4 18 L 12.6 18 L 12.6 30.6 L 5.4 30.6 L 5.4 10.8 L 9 10.8 L 9 9 L 12.6 9 L 12.6 7.2 L 16.2 7.2 L 16.2 5.4 L 19.8 5.4 L 19.8 7.2 L 23.4 7.2 L 23.4 9 L 27 9 L 27 10.8 L 30.6 10.8 L 30.6 30.6 Z" />
    </symbol>
  </defs>
</svg>