{
	"asset":{
		"generator":"Khronos glTF Blender I/O v3.6.27",
		"version":"2.0"
	},
	"scene":0,
	"scenes":[
		{
			"name":"Scene",
			"nodes":[
				0,
				1
			]
		}
	],
	"nodes":[
		{
			"mesh":0,
			"name":"POSED_BODY_FIN2",
			"rotation":[
				0.7071068286895752,
				0,
				0,
				0.7071068286895752
			],
			"scale":[
				0.009999999776482582,
				0.009999999776482582,
				0.009999999776482582
			]
		},
		{
			"mesh":1,
			"name":"POSED_BODY_FIN2.001",
			"rotation":[
				0.7071068286895752,
				0,
				0,
				0.7071068286895752
			],
			"scale":[
				0.009999999776482582,
				0.009999999776482582,
				0.009999999776482582
			]
		}
	],
	"materials":[
		{
			"doubleSided":true,
			"emissiveFactor":[
				0.1538461595773697,
				0.1538461595773697,
				0.1538461595773697
			],
			"name":"lambert_rabbit",
			"pbrMetallicRoughness":{
				"metallicFactor":0,
				"roughnessFactor":0.5527864098548889
			}
		},
		{
			"doubleSided":true,
			"emissiveFactor":[
				0.10489510744810104,
				0.10489510744810104,
				0.10489510744810104
			],
			"name":"lambert_innerear",
			"pbrMetallicRoughness":{
				"baseColorFactor":[
					1,
					0.3970000147819519,
					0.3970000147819519,
					1
				],
				"metallicFactor":0,
				"roughnessFactor":0.5527864098548889
			}
		},
		{
			"doubleSided":true,
			"emissiveFactor":[
				0.1538461595773697,
				0.1538461595773697,
				0.1538461595773697
			],
			"name":"lambert_rabbit.001",
			"pbrMetallicRoughness":{
				"baseColorTexture":{
					"index":0
				},
				"metallicFactor":0,
				"roughnessFactor":0.5527864098548889
			}
		},
		{
			"doubleSided":true,
			"emissiveFactor":[
				0.10489510744810104,
				0.10489510744810104,
				0.10489510744810104
			],
			"name":"lambert_innerear.001",
			"pbrMetallicRoughness":{
				"baseColorFactor":[
					1,
					0.3970000147819519,
					0.3970000147819519,
					1
				],
				"metallicFactor":0,
				"roughnessFactor":0.5527864098548889
			}
		}
	],
	"meshes":[
		{
			"name":"Mesh",
			"primitives":[
				{
					"attributes":{
						"POSITION":0,
						"NORMAL":1,
						"TEXCOORD_0":2
					},
					"indices":3,
					"material":0
				},
				{
					"attributes":{
						"POSITION":4,
						"NORMAL":5,
						"TEXCOORD_0":6
					},
					"indices":7,
					"material":1
				}
			]
		},
		{
			"name":"Mesh.001",
			"primitives":[
				{
					"attributes":{
						"POSITION":8,
						"NORMAL":9,
						"TEXCOORD_0":10
					},
					"indices":3,
					"material":2
				},
				{
					"attributes":{
						"POSITION":11,
						"NORMAL":12,
						"TEXCOORD_0":13
					},
					"indices":7,
					"material":3
				}
			]
		}
	],
	"textures":[
		{
			"sampler":0,
			"source":0
		}
	],
	"images":[
		{
			"bufferView":11,
			"mimeType":"image/jpeg",
			"name":"colored_tex (1)"
		}
	],
	"accessors":[
		{
			"bufferView":0,
			"componentType":5126,
			"count":21172,
			"max":[
				4.085855960845947,
				3.52500581741333,
				-0.16252344846725464
			],
			"min":[
				-4.0858564376831055,
				-2.904712438583374,
				-16.404659271240234
			],
			"type":"VEC3"
		},
		{
			"bufferView":1,
			"componentType":5126,
			"count":21172,
			"type":"VEC3"
		},
		{
			"bufferView":2,
			"componentType":5126,
			"count":21172,
			"type":"VEC2"
		},
		{
			"bufferView":3,
			"componentType":5123,
			"count":109584,
			"type":"SCALAR"
		},
		{
			"bufferView":4,
			"componentType":5126,
			"count":738,
			"max":[
				3.391021490097046,
				-0.11223021149635315,
				-12.631518363952637
			],
			"min":[
				-3.3910207748413086,
				-1.1296510696411133,
				-15.377443313598633
			],
			"type":"VEC3"
		},
		{
			"bufferView":5,
			"componentType":5126,
			"count":738,
			"type":"VEC3"
		},
		{
			"bufferView":6,
			"componentType":5126,
			"count":738,
			"type":"VEC2"
		},
		{
			"bufferView":7,
			"componentType":5123,
			"count":2688,
			"type":"SCALAR"
		},
		{
			"bufferView":8,
			"componentType":5126,
			"count":21172,
			"max":[
				4.085855960845947,
				3.52500581741333,
				-0.16252344846725464
			],
			"min":[
				-4.0858564376831055,
				-2.904712438583374,
				-16.404659271240234
			],
			"type":"VEC3"
		},
		{
			"bufferView":9,
			"componentType":5126,
			"count":21172,
			"type":"VEC3"
		},
		{
			"bufferView":10,
			"componentType":5126,
			"count":21172,
			"type":"VEC2"
		},
		{
			"bufferView":12,
			"componentType":5126,
			"count":738,
			"max":[
				3.391021490097046,
				-0.11223021149635315,
				-12.631518363952637
			],
			"min":[
				-3.3910207748413086,
				-1.1296510696411133,
				-15.377443313598633
			],
			"type":"VEC3"
		},
		{
			"bufferView":13,
			"componentType":5126,
			"count":738,
			"type":"VEC3"
		},
		{
			"bufferView":14,
			"componentType":5126,
			"count":738,
			"type":"VEC2"
		}
	],
	"bufferViews":[
		{
			"buffer":0,
			"byteLength":254064,
			"byteOffset":0,
			"target":34962
		},
		{
			"buffer":0,
			"byteLength":254064,
			"byteOffset":254064,
			"target":34962
		},
		{
			"buffer":0,
			"byteLength":169376,
			"byteOffset":508128,
			"target":34962
		},
		{
			"buffer":0,
			"byteLength":219168,
			"byteOffset":677504,
			"target":34963
		},
		{
			"buffer":0,
			"byteLength":8856,
			"byteOffset":896672,
			"target":34962
		},
		{
			"buffer":0,
			"byteLength":8856,
			"byteOffset":905528,
			"target":34962
		},
		{
			"buffer":0,
			"byteLength":5904,
			"byteOffset":914384,
			"target":34962
		},
		{
			"buffer":0,
			"byteLength":5376,
			"byteOffset":920288,
			"target":34963
		},
		{
			"buffer":0,
			"byteLength":254064,
			"byteOffset":925664,
			"target":34962
		},
		{
			"buffer":0,
			"byteLength":254064,
			"byteOffset":1179728,
			"target":34962
		},
		{
			"buffer":0,
			"byteLength":169376,
			"byteOffset":1433792,
			"target":34962
		},
		{
			"buffer":0,
			"byteLength":1087844,
			"byteOffset":1603168
		},
		{
			"buffer":0,
			"byteLength":8856,
			"byteOffset":2691012,
			"target":34962
		},
		{
			"buffer":0,
			"byteLength":8856,
			"byteOffset":2699868,
			"target":34962
		},
		{
			"buffer":0,
			"byteLength":5904,
			"byteOffset":2708724,
			"target":34962
		}
	],
	"samplers":[
		{
			"magFilter":9729,
			"minFilter":9987
		}
	],
	"buffers":[
		{
			"byteLength":2714628,
			"uri":"data:application/octet-stream;base64,"
		}
	]
}
