{
	"asset":{
		"generator":"Khronos glTF Blender I/O v3.6.27",
		"version":"2.0"
	},
	"scene":0,
	"scenes":[
		{
			"name":"Scene",
			"nodes":[
				9,
				10
			]
		}
	],
	"nodes":[
		{
			"mesh":0,
			"name":"eye_highlight_heart"
		},
		{
			"mesh":1,
			"name":"EYE_LEFT",
			"rotation":[
				0.0027387673035264015,
				-0.029870381578803062,
				-0.15097270905971527,
				0.988082766532898
			],
			"scale":[
				1.1332911252975464,
				0.19220197200775146,
				1.1332911252975464
			],
			"translation":[
				1.1885192394256592,
				2.9347453117370605,
				-9.104033470153809
			]
		},
		{
			"mesh":2,
			"name":"EYE_RIGHT",
			"rotation":[
				0.0027387673035264015,
				-0.029870381578803062,
				-0.15097270905971527,
				0.988082766532898
			],
			"scale":[
				1.1332911252975464,
				0.19220197200775146,
				1.1332911252975464
			],
			"translation":[
				1.1885192394256592,
				2.9347453117370605,
				-9.104033470153809
			]
		},
		{
			"mesh":3,
			"name":"eyebrow_LEFT",
			"rotation":[
				0,
				0,
				-0.21398714184761047,
				0.9768365025520325
			],
			"scale":[
				0.8222222328186035,
				1,
				0.1555555760860443
			],
			"translation":[
				1.1800551414489746,
				2.2259230613708496,
				-10.550349235534668
			]
		},
		{
			"mesh":4,
			"name":"eyebrow_RIGHT",
			"rotation":[
				0,
				0,
				-0.21398714184761047,
				0.9768365025520325
			],
			"scale":[
				0.8222222328186035,
				1,
				0.1555555760860443
			],
			"translation":[
				1.1800551414489746,
				2.2259230613708496,
				-10.550349235534668
			]
		},
		{
			"mesh":5,
			"name":"LASH_LEFT",
			"rotation":[
				-0.3304649293422699,
				0.3690137267112732,
				0.14230158925056458,
				0.8569551706314087
			],
			"scale":[
				0.44335106015205383,
				0.1950700581073761,
				0.10049288719892502
			],
			"translation":[
				1.5693740844726562,
				2.7942652702331543,
				-9.3612060546875
			]
		},
		{
			"mesh":6,
			"name":"LASH_RIGHT",
			"rotation":[
				-0.3304649293422699,
				0.3690137267112732,
				0.14230158925056458,
				0.8569551706314087
			],
			"scale":[
				0.44335106015205383,
				0.1950700581073761,
				0.10049288719892502
			],
			"translation":[
				1.5693740844726562,
				2.7942652702331543,
				-9.3612060546875
			]
		},
		{
			"mesh":7,
			"name":"mouth_hani_",
			"rotation":[
				0.1320403814315796,
				0,
				0,
				0.991244375705719
			],
			"scale":[
				1,
				0.06666668504476547,
				0.11111116409301758
			],
			"translation":[
				0,
				3.5363192558288574,
				-8.212990760803223
			]
		},
		{
			"mesh":8,
			"name":"nose",
			"scale":[
				0.2884367108345032,
				0.16024258732795715,
				0.16024261713027954
			],
			"translation":[
				0,
				3.489818811416626,
				-8.57448959350586
			]
		},
		{
			"children":[
				0,
				1,
				2,
				3,
				4,
				5,
				6,
				7,
				8
			],
			"name":"FACE",
			"rotation":[
				0.7071068286895752,
				0,
				0,
				0.7071068286895752
			],
			"scale":[
				0.009999999776482582,
				0.009999999776482582,
				0.009999999776482582
			]
		},
		{
			"mesh":9,
			"name":"POSED_BODY_FIN1",
			"rotation":[
				0.7071068286895752,
				0,
				0,
				0.7071068286895752
			],
			"scale":[
				0.009999999776482582,
				0.009999999776482582,
				0.009999999776482582
			]
		}
	],
	"materials":[
		{
			"doubleSided":true,
			"emissiveFactor":[
				1,
				1,
				1
			],
			"name":"lambert4",
			"pbrMetallicRoughness":{
				"metallicFactor":0,
				"roughnessFactor":0.5527864098548889
			}
		},
		{
			"doubleSided":true,
			"name":"lambert1",
			"pbrMetallicRoughness":{
				"baseColorFactor":[
					0.07500000298023224,
					0.07500000298023224,
					0.07500000298023224,
					1
				],
				"metallicFactor":0,
				"roughnessFactor":0.5527864098548889
			}
		},
		{
			"doubleSided":true,
			"emissiveFactor":[
				0.1538461595773697,
				0.1538461595773697,
				0.1538461595773697
			],
			"name":"lambert_rabbit",
			"pbrMetallicRoughness":{
				"metallicFactor":0,
				"roughnessFactor":0.5527864098548889
			}
		},
		{
			"doubleSided":true,
			"emissiveFactor":[
				0.10489510744810104,
				0.10489510744810104,
				0.10489510744810104
			],
			"name":"lambert_innerear",
			"pbrMetallicRoughness":{
				"baseColorFactor":[
					1,
					0.3970000147819519,
					0.3970000147819519,
					1
				],
				"metallicFactor":0,
				"roughnessFactor":0.5527864098548889
			}
		}
	],
	"meshes":[
		{
			"name":"Mesh",
			"primitives":[
				{
					"attributes":{
						"POSITION":0,
						"NORMAL":1,
						"TEXCOORD_0":2
					},
					"indices":3,
					"material":0
				}
			]
		},
		{
			"name":"Mesh.002",
			"primitives":[
				{
					"attributes":{
						"POSITION":4,
						"NORMAL":5,
						"TEXCOORD_0":6
					},
					"indices":7,
					"material":1
				}
			]
		},
		{
			"name":"Mesh.001",
			"primitives":[
				{
					"attributes":{
						"POSITION":8,
						"NORMAL":9,
						"TEXCOORD_0":10
					},
					"indices":11,
					"material":1
				}
			]
		},
		{
			"name":"Mesh.007",
			"primitives":[
				{
					"attributes":{
						"POSITION":12,
						"NORMAL":13,
						"TEXCOORD_0":14
					},
					"indices":15,
					"material":1
				}
			]
		},
		{
			"name":"Mesh.008",
			"primitives":[
				{
					"attributes":{
						"POSITION":16,
						"NORMAL":17,
						"TEXCOORD_0":18
					},
					"indices":19,
					"material":1
				}
			]
		},
		{
			"name":"Mesh.005",
			"primitives":[
				{
					"attributes":{
						"POSITION":20,
						"NORMAL":21,
						"TEXCOORD_0":22
					},
					"indices":23,
					"material":1
				}
			]
		},
		{
			"name":"Mesh.006",
			"primitives":[
				{
					"attributes":{
						"POSITION":24,
						"NORMAL":25,
						"TEXCOORD_0":26
					},
					"indices":27,
					"material":1
				}
			]
		},
		{
			"name":"Mesh.004",
			"primitives":[
				{
					"attributes":{
						"POSITION":28,
						"NORMAL":29,
						"TEXCOORD_0":30
					},
					"indices":31,
					"material":1
				}
			]
		},
		{
			"name":"Mesh.003",
			"primitives":[
				{
					"attributes":{
						"POSITION":32,
						"NORMAL":33,
						"TEXCOORD_0":34
					},
					"indices":35,
					"material":1
				}
			]
		},
		{
			"name":"Mesh.009",
			"primitives":[
				{
					"attributes":{
						"POSITION":36,
						"NORMAL":37,
						"TEXCOORD_0":38
					},
					"indices":39,
					"material":2
				},
				{
					"attributes":{
						"POSITION":40,
						"NORMAL":41,
						"TEXCOORD_0":42
					},
					"indices":43,
					"material":3
				}
			]
		}
	],
	"accessors":[
		{
			"bufferView":0,
			"componentType":5126,
			"count":378,
			"max":[
				1.3685338497161865,
				3.109379768371582,
				-8.853853225708008
			],
			"min":[
				-1.3685338497161865,
				2.966446876525879,
				-9.191174507141113
			],
			"type":"VEC3"
		},
		{
			"bufferView":1,
			"componentType":5126,
			"count":378,
			"type":"VEC3"
		},
		{
			"bufferView":2,
			"componentType":5126,
			"count":378,
			"type":"VEC2"
		},
		{
			"bufferView":3,
			"componentType":5123,
			"count":1920,
			"type":"SCALAR"
		},
		{
			"bufferView":4,
			"componentType":5126,
			"count":147,
			"max":[
				-1.7157118320465088,
				-2.385082721710205,
				0.6283640265464783
			],
			"min":[
				-2.284040689468384,
				-4.997365951538086,
				-0.1922452449798584
			],
			"type":"VEC3"
		},
		{
			"bufferView":5,
			"componentType":5126,
			"count":147,
			"type":"VEC3"
		},
		{
			"bufferView":6,
			"componentType":5126,
			"count":147,
			"type":"VEC2"
		},
		{
			"bufferView":7,
			"componentType":5123,
			"count":720,
			"type":"SCALAR"
		},
		{
			"bufferView":8,
			"componentType":5126,
			"count":147,
			"max":[
				0.322080135345459,
				0.5000029802322388,
				0.5000017881393433
			],
			"min":[
				-0.3220798969268799,
				-0.5000004172325134,
				-0.31964945793151855
			],
			"type":"VEC3"
		},
		{
			"bufferView":9,
			"componentType":5126,
			"count":147,
			"type":"VEC3"
		},
		{
			"bufferView":10,
			"componentType":5126,
			"count":147,
			"type":"VEC2"
		},
		{
			"bufferView":11,
			"componentType":5123,
			"count":720,
			"type":"SCALAR"
		},
		{
			"bufferView":12,
			"componentType":5126,
			"count":89,
			"max":[
				-2.6765406131744385,
				-0.3887102007865906,
				1.900282859802246
			],
			"min":[
				-3.262117624282837,
				-0.9293267726898193,
				-0.2130441665649414
			],
			"type":"VEC3"
		},
		{
			"bufferView":13,
			"componentType":5126,
			"count":89,
			"type":"VEC3"
		},
		{
			"bufferView":14,
			"componentType":5126,
			"count":89,
			"type":"VEC2"
		},
		{
			"bufferView":15,
			"componentType":5123,
			"count":432,
			"type":"SCALAR"
		},
		{
			"bufferView":16,
			"componentType":5126,
			"count":89,
			"max":[
				0.35152342915534973,
				0.5000001788139343,
				1.900282859802246
			],
			"min":[
				-0.47437334060668945,
				0.3781416416168213,
				-0.2130441665649414
			],
			"type":"VEC3"
		},
		{
			"bufferView":17,
			"componentType":5126,
			"count":89,
			"type":"VEC3"
		},
		{
			"bufferView":18,
			"componentType":5126,
			"count":89,
			"type":"VEC2"
		},
		{
			"bufferView":19,
			"componentType":5123,
			"count":432,
			"type":"SCALAR"
		},
		{
			"bufferView":20,
			"componentType":5126,
			"count":75,
			"max":[
				-4.583102226257324,
				7.983526706695557,
				-14.378413200378418
			],
			"min":[
				-5.1269941329956055,
				6.814213752746582,
				-18.4948787689209
			],
			"type":"VEC3"
		},
		{
			"bufferView":21,
			"componentType":5126,
			"count":75,
			"type":"VEC3"
		},
		{
			"bufferView":22,
			"componentType":5126,
			"count":75,
			"type":"VEC2"
		},
		{
			"bufferView":23,
			"componentType":5123,
			"count":336,
			"type":"SCALAR"
		},
		{
			"bufferView":24,
			"componentType":5126,
			"count":75,
			"max":[
				0.31455373764038086,
				0.4314608573913574,
				1.096264362335205
			],
			"min":[
				-0.6340794563293457,
				-0.4314579963684082,
				-1.5935624837875366
			],
			"type":"VEC3"
		},
		{
			"bufferView":25,
			"componentType":5126,
			"count":75,
			"type":"VEC3"
		},
		{
			"bufferView":26,
			"componentType":5126,
			"count":75,
			"type":"VEC2"
		},
		{
			"bufferView":27,
			"componentType":5123,
			"count":336,
			"type":"SCALAR"
		},
		{
			"bufferView":28,
			"componentType":5126,
			"count":201,
			"max":[
				0.49370118975639343,
				0.4321777820587158,
				1.5099515914916992
			],
			"min":[
				-0.49370118975639343,
				-1.9523956775665283,
				-0.9075609445571899
			],
			"type":"VEC3"
		},
		{
			"bufferView":29,
			"componentType":5126,
			"count":201,
			"type":"VEC3"
		},
		{
			"bufferView":30,
			"componentType":5126,
			"count":201,
			"type":"VEC2"
		},
		{
			"bufferView":31,
			"componentType":5123,
			"count":1008,
			"type":"SCALAR"
		},
		{
			"bufferView":32,
			"componentType":5126,
			"count":111,
			"max":[
				0.6000000238418579,
				0.5000028610229492,
				0.9813140630722046
			],
			"min":[
				-0.6000000238418579,
				-0.5,
				-0.5
			],
			"type":"VEC3"
		},
		{
			"bufferView":33,
			"componentType":5126,
			"count":111,
			"type":"VEC3"
		},
		{
			"bufferView":34,
			"componentType":5126,
			"count":111,
			"type":"VEC2"
		},
		{
			"bufferView":35,
			"componentType":5123,
			"count":528,
			"type":"SCALAR"
		},
		{
			"bufferView":36,
			"componentType":5126,
			"count":21172,
			"max":[
				4.085855960845947,
				3.5330748558044434,
				-0.16252344846725464
			],
			"min":[
				-4.0858564376831055,
				-2.904712438583374,
				-16.404659271240234
			],
			"type":"VEC3"
		},
		{
			"bufferView":37,
			"componentType":5126,
			"count":21172,
			"type":"VEC3"
		},
		{
			"bufferView":38,
			"componentType":5126,
			"count":21172,
			"type":"VEC2"
		},
		{
			"bufferView":39,
			"componentType":5123,
			"count":109584,
			"type":"SCALAR"
		},
		{
			"bufferView":40,
			"componentType":5126,
			"count":738,
			"max":[
				3.391021490097046,
				-0.11223021149635315,
				-12.631518363952637
			],
			"min":[
				-3.3910207748413086,
				-1.1296510696411133,
				-15.377443313598633
			],
			"type":"VEC3"
		},
		{
			"bufferView":41,
			"componentType":5126,
			"count":738,
			"type":"VEC3"
		},
		{
			"bufferView":42,
			"componentType":5126,
			"count":738,
			"type":"VEC2"
		},
		{
			"bufferView":43,
			"componentType":5123,
			"count":2688,
			"type":"SCALAR"
		}
	],
	"bufferViews":[
		{
			"buffer":0,
			"byteLength":4536,
			"byteOffset":0,
			"target":34962
		},
		{
			"buffer":0,
			"byteLength":4536,
			"byteOffset":4536,
			"target":34962
		},
		{
			"buffer":0,
			"byteLength":3024,
			"byteOffset":9072,
			"target":34962
		},
		{
			"buffer":0,
			"byteLength":3840,
			"byteOffset":12096,
			"target":34963
		},
		{
			"buffer":0,
			"byteLength":1764,
			"byteOffset":15936,
			"target":34962
		},
		{
			"buffer":0,
			"byteLength":1764,
			"byteOffset":17700,
			"target":34962
		},
		{
			"buffer":0,
			"byteLength":1176,
			"byteOffset":19464,
			"target":34962
		},
		{
			"buffer":0,
			"byteLength":1440,
			"byteOffset":20640,
			"target":34963
		},
		{
			"buffer":0,
			"byteLength":1764,
			"byteOffset":22080,
			"target":34962
		},
		{
			"buffer":0,
			"byteLength":1764,
			"byteOffset":23844,
			"target":34962
		},
		{
			"buffer":0,
			"byteLength":1176,
			"byteOffset":25608,
			"target":34962
		},
		{
			"buffer":0,
			"byteLength":1440,
			"byteOffset":26784,
			"target":34963
		},
		{
			"buffer":0,
			"byteLength":1068,
			"byteOffset":28224,
			"target":34962
		},
		{
			"buffer":0,
			"byteLength":1068,
			"byteOffset":29292,
			"target":34962
		},
		{
			"buffer":0,
			"byteLength":712,
			"byteOffset":30360,
			"target":34962
		},
		{
			"buffer":0,
			"byteLength":864,
			"byteOffset":31072,
			"target":34963
		},
		{
			"buffer":0,
			"byteLength":1068,
			"byteOffset":31936,
			"target":34962
		},
		{
			"buffer":0,
			"byteLength":1068,
			"byteOffset":33004,
			"target":34962
		},
		{
			"buffer":0,
			"byteLength":712,
			"byteOffset":34072,
			"target":34962
		},
		{
			"buffer":0,
			"byteLength":864,
			"byteOffset":34784,
			"target":34963
		},
		{
			"buffer":0,
			"byteLength":900,
			"byteOffset":35648,
			"target":34962
		},
		{
			"buffer":0,
			"byteLength":900,
			"byteOffset":36548,
			"target":34962
		},
		{
			"buffer":0,
			"byteLength":600,
			"byteOffset":37448,
			"target":34962
		},
		{
			"buffer":0,
			"byteLength":672,
			"byteOffset":38048,
			"target":34963
		},
		{
			"buffer":0,
			"byteLength":900,
			"byteOffset":38720,
			"target":34962
		},
		{
			"buffer":0,
			"byteLength":900,
			"byteOffset":39620,
			"target":34962
		},
		{
			"buffer":0,
			"byteLength":600,
			"byteOffset":40520,
			"target":34962
		},
		{
			"buffer":0,
			"byteLength":672,
			"byteOffset":41120,
			"target":34963
		},
		{
			"buffer":0,
			"byteLength":2412,
			"byteOffset":41792,
			"target":34962
		},
		{
			"buffer":0,
			"byteLength":2412,
			"byteOffset":44204,
			"target":34962
		},
		{
			"buffer":0,
			"byteLength":1608,
			"byteOffset":46616,
			"target":34962
		},
		{
			"buffer":0,
			"byteLength":2016,
			"byteOffset":48224,
			"target":34963
		},
		{
			"buffer":0,
			"byteLength":1332,
			"byteOffset":50240,
			"target":34962
		},
		{
			"buffer":0,
			"byteLength":1332,
			"byteOffset":51572,
			"target":34962
		},
		{
			"buffer":0,
			"byteLength":888,
			"byteOffset":52904,
			"target":34962
		},
		{
			"buffer":0,
			"byteLength":1056,
			"byteOffset":53792,
			"target":34963
		},
		{
			"buffer":0,
			"byteLength":254064,
			"byteOffset":54848,
			"target":34962
		},
		{
			"buffer":0,
			"byteLength":254064,
			"byteOffset":308912,
			"target":34962
		},
		{
			"buffer":0,
			"byteLength":169376,
			"byteOffset":562976,
			"target":34962
		},
		{
			"buffer":0,
			"byteLength":219168,
			"byteOffset":732352,
			"target":34963
		},
		{
			"buffer":0,
			"byteLength":8856,
			"byteOffset":951520,
			"target":34962
		},
		{
			"buffer":0,
			"byteLength":8856,
			"byteOffset":960376,
			"target":34962
		},
		{
			"buffer":0,
			"byteLength":5904,
			"byteOffset":969232,
			"target":34962
		},
		{
			"buffer":0,
			"byteLength":5376,
			"byteOffset":975136,
			"target":34963
		}
	],
	"buffers":[
		{
			"byteLength":980512,
			"uri":"data:application/octet-stream;base64,"
		}
	]
}
