{
    "asset":
    {
        "version":"2.0",
        "generator":"babylon.js glTF exporter for Autodesk MAYA 2023 v20230905.2"
    },
    "scene":0,
    "scenes":[
        {
            "nodes":[0,1,2]
        }
    ],
    "nodes":[
        {
            "mesh":0,
            "scale":[10.0,10.0,10.0],
            "name":"T_POSED_BODY"
        },
        {
            "skin":0,
            "mesh":1,
            "translation":[0.0,0.481152266,-0.007770109],
            "name":"mantoman"
        },
        {
            "children":[3],
            "translation":[6.83842E-06,0.378823131,-0.000875037163],
            "rotation":[-2.09457909E-07,3.90427658E-06,-2.62781523E-05,1.0],
            "name":"mixamorig_Hips2"
        },
        {
            "children":[4],
            "translation":[7.498107E-19,0.0473065563,-0.003626271],
            "rotation":[-0.038243,-4.90637376E-06,2.610962E-05,0.9992685],
            "name":"mixamorig_Spine"
        },
        {
            "children":[5],
            "translation":[-3.25260644E-21,0.05535291,1.35577424E-10],
            "rotation":[-5.056492E-08,0.0,0.0,1.0],
            "name":"mixamorig_Spine1"
        },
        {
            "children":[6,9,21],
            "translation":[-6.505213E-21,0.06326041,1.810872E-11],
            "name":"mixamorig_Spine2"
        },
        {
            "children":[7],
            "translation":[-4.33680859E-21,0.07116803,7.20971327E-09],
            "rotation":[0.0382432565,0.0,0.0,0.9992685],
            "name":"mixamorig_Neck"
        },
        {
            "children":[8],
            "translation":[1.05698545E-18,0.09653198,0.000239505171],
            "name":"mixamorig_Head"
        },
        {
            "translation":[-3.035766E-20,0.518605232,0.00128670863],
            "name":"mixamorig_HeadTop_End"
        },
        {
            "children":[10],
            "translation":[0.0558187552,0.06005838,-0.002084375],
            "rotation":[-0.5326888,-0.4612263,0.5525067,-0.445252],
            "scale":[0.99999994,0.99999994,0.9999999],
            "name":"mixamorig_LeftShoulder"
        },
        {
            "children":[11],
            "translation":[1.34380944E-11,0.113870971,9.583196E-10],
            "rotation":[0.4049095,0.008457787,0.0160088558,0.914177537],
            "scale":[0.99999994,0.99999994,1.0],
            "name":"mixamorig_LeftArm"
        },
        {
            "children":[12],
            "translation":[-3.07311468E-11,0.089696005,1.19548024E-10],
            "rotation":[1.2610171E-07,-0.000183477488,-4.34208438E-08,1.0],
            "name":"mixamorig_LeftForeArm"
        },
        {
            "children":[13,17],
            "translation":[-7.24115E-12,0.0663390756,-6.82108953E-11],
            "rotation":[-0.0130327847,0.0144469831,0.000188280668,0.999810755],
            "scale":[0.99999994,1.0,1.0],
            "name":"mixamorig_LeftHand"
        },
        {
            "children":[14],
            "translation":[-0.0224563442,0.0331408121,1.70788432E-08],
            "rotation":[0.243671209,0.0701199248,0.261758745,0.931230247],
            "name":"mixamorig_LeftHandThumb1"
        },
        {
            "children":[15],
            "translation":[0.00112458039,0.03200623,2.54904362E-11],
            "rotation":[0.000180125266,-0.00248699635,-0.107222371,0.9942319],
            "scale":[1.0,1.0,0.99999994],
            "name":"mixamorig_LeftHandThumb2"
        },
        {
            "children":[16],
            "translation":[-0.00405479548,0.0223190226,2.02717843E-11],
            "rotation":[-4.46600325E-07,-0.000102158541,0.180820376,0.983516157],
            "name":"mixamorig_LeftHandThumb3"
        },
        {
            "translation":[0.002930212,0.0157510377,1.73507278E-10],
            "name":"mixamorig_LeftHandThumb4"
        },
        {
            "children":[18],
            "translation":[1.15481213E-09,0.0504709929,0.0013156815],
            "rotation":[0.013085817,0.00478045549,0.0108027933,0.999844551],
            "scale":[0.99999994,1.0,1.0],
            "name":"mixamorig_LeftHandIndex1"
        },
        {
            "children":[19],
            "translation":[0.00088044873,0.04096248,-6.26423E-11],
            "rotation":[-4.19147767E-07,-1.61743028E-05,-0.0218513627,0.9997613],
            "scale":[0.99999994,0.99999994,1.0],
            "name":"mixamorig_LeftHandIndex2"
        },
        {
            "children":[20],
            "translation":[-0.0005987691,0.02694612,4.36411081E-11],
            "rotation":[-3.04379387E-06,0.00017222733,0.005151113,0.999986768],
            "name":"mixamorig_LeftHandIndex3"
        },
        {
            "translation":[-0.000281679764,0.0236489289,7.60173452E-11],
            "rotation":[1.49868775E-08,0.0,0.0,1.0],
            "name":"mixamorig_LeftHandIndex4"
        },
        {
            "children":[22],
            "translation":[-0.0558187552,0.05987049,0.0003667711],
            "rotation":[-0.5456193,0.450641125,-0.541267037,-0.454149932],
            "name":"mixamorig_RightShoulder"
        },
        {
            "children":[23],
            "translation":[3.56984442E-11,0.113870971,9.614171E-10],
            "rotation":[-0.0910232961,-0.0054635657,0.004468987,0.995823741],
            "name":"mixamorig_RightArm"
        },
        {
            "children":[24],
            "translation":[2.89217178E-10,0.09003418,-2.27101254E-10],
            "rotation":[1.379454E-07,0.000861994049,-1.14334192E-07,0.999999642],
            "name":"mixamorig_RightForeArm"
        },
        {
            "children":[25,29],
            "translation":[-1.853328E-11,0.06634275,3.805212E-11],
            "rotation":[-0.00427067326,0.0351445526,0.000150578227,0.999373138],
            "scale":[1.0,0.99999994,1.0],
            "name":"mixamorig_RightHand"
        },
        {
            "children":[26],
            "translation":[0.0231281221,0.0326697044,-1.901658E-08],
            "rotation":[0.256017238,-0.07026348,-0.2629822,0.9275552],
            "name":"mixamorig_RightHandThumb1"
        },
        {
            "children":[27],
            "translation":[-0.00256851153,0.0319190249,-4.2499565E-10],
            "rotation":[0.000895590463,0.009695492,0.171564952,0.9851247],
            "name":"mixamorig_RightHandThumb2"
        },
        {
            "children":[28],
            "translation":[0.005653758,0.020871846,1.36084283E-10],
            "rotation":[-0.000278746738,-0.00624278374,-0.218074247,0.975912154],
            "name":"mixamorig_RightHandThumb3"
        },
        {
            "translation":[-0.00308524934,0.0174333826,-3.49445473E-10],
            "name":"mixamorig_RightHandThumb4"
        },
        {
            "children":[30],
            "translation":[-3.393297E-10,0.0528850146,0.000452369452],
            "rotation":[0.00429422967,-0.00358960964,-0.005778112,0.9999677],
            "scale":[0.99999994,0.99999994,1.0],
            "name":"mixamorig_RightHandIndex1"
        },
        {
            "children":[31],
            "translation":[-0.000448363047,0.0388709456,5.832561E-12],
            "rotation":[4.04498024E-07,-3.84456E-05,0.00826028,0.9999659],
            "scale":[0.99999994,1.0,1.0],"name":"mixamorig_RightHandIndex2"
        },
        {
            "children":[32],
            "translation":[0.000136067669,0.02722205,-8.825516E-11],
            "rotation":[7.472643E-07,0.000121413454,0.00377578684,0.999992847],
            "name":"mixamorig_RightHandIndex3"
        },
        {
            "translation":[0.0003122956,0.0248641912,1.187739E-10],
            "name":"mixamorig_RightHandIndex4"
        }
    ],
    "meshes":[
        {
            "primitives":[
                {
                    "attributes":
                        {"POSITION":1,"TANGENT":2,"NORMAL":3,"TEXCOORD_0":4},
                    "indices":0,
                    "material":0
                },
                {
                    "attributes":
                        {"POSITION":6,"TANGENT":7,"NORMAL":8,"TEXCOORD_0":9},
                    "indices":5,
                    "material":1
                }
            ],
            "name":"T_POSED_BODY"
        },
        {
            "primitives":[
                {
                    "attributes":
                        {"POSITION":11,"TANGENT":12,"NORMAL":13,"TEXCOORD_0":14,"JOINTS_0":15,"JOINTS_1":16,"WEIGHTS_0":17,"WEIGHTS_1":18},
                    "indices":10,
                    "material":2
                }
            ],
            "name":"mantoman"
        }
    ],
    "accessors":[
        {
            "bufferView":0,
            "componentType":5123,
            "count":104328,
            "type":"SCALAR",
            "name":"accessorIndices"
        },
        {
            "bufferView":1,
            "componentType":5126,
            "count":20024,
            "max":[0.0408594869,0.162388384,0.03388249],
            "min":[-0.046861887,1.852847E-05,-0.0304146912],
            "type":"VEC3",
            "name":"accessorPositions"
        },
        {
            "bufferView":2,
            "componentType":5126,
            "count":20024,
            "type":"VEC4",
            "name":"accessorTangents"
        },
        {
            "bufferView":1,
            "byteOffset":240288,
            "componentType":5126,
            "count":20024,
            "type":"VEC3",
            "name":"accessorNormals"
        },
        {
            "bufferView":3,
            "componentType":5126,
            "count":20024,
            "type":"VEC2",
            "name":"accessorUVs"
        },
        {
            "bufferView":0,
            "byteOffset":208656,
            "componentType":5123,
            "count":2688,
            "type":"SCALAR",
            "name":"accessorIndices"
        },
        {
            "bufferView":1,
            "byteOffset":480576,
            "componentType":5126,
            "count":738,
            "max":[0.0339111425,0.152116224,-0.00248986878],
            "min":[-0.0339092836,0.124656968,-0.0126640769],
            "type":"VEC3","name":"accessorPositions"
        },
        {
            "bufferView":2,
            "byteOffset":320384,
            "componentType":5126,
            "count":738,
            "type":"VEC4",
            "name":"accessorTangents"
        },
        {
            "bufferView":1,
            "byteOffset":489432,
            "componentType":5126,
            "count":738,
            "type":"VEC3",
            "name":"accessorNormals"
        },
        {
            "bufferView":3,
            "byteOffset":160192,
            "componentType":5126,
            "count":738,
            "type":"VEC2",
            "name":"accessorUVs"
        },
        {
            "bufferView":0,
            "byteOffset":214032,
            "componentType":5123,
            "count":52806,
            "type":"SCALAR",
            "name":"accessorIndices"
        },
        {
            "bufferView":1
            ,"byteOffset":498288,
            "componentType":5126,
            "count":9162,
            "max":[0.3208322,0.189270079,0.17025055],
            "min":[-0.373102665,-0.189111918,-0.171466172],
            "type":"VEC3",
            "name":"accessorPositions"
        },
        {
            "bufferView":2,
            "byteOffset":332192,
            "componentType":5126,
            "count":9162,
            "type":"VEC4",
            "name":"accessorTangents"
        },
        {
            "bufferView":1,
            "byteOffset":608232,
            "componentType":5126,
            "count":9162,
            "type":"VEC3",
            "name":"accessorNormals"
        },
        {
            "bufferView":3,
            "byteOffset":166096,
            "componentType":5126,
            "count":9162,
            "type":"VEC2",
            "name":"accessorUVs"
        },
        {
            "bufferView":4,
            "componentType":5123,
            "count":9162,
            "type":"VEC4",
            "name":"accessorJoints"
        },
        {
            "bufferView":4,
            "byteOffset":73296,
            "componentType":5123,
            "count":9162,
            "type":"VEC4",
            "name":"accessorJointsExtra"
        },
        {
            "bufferView":2,
            "byteOffset":478784,
            "componentType":5126,
            "count":9162,
            "type":"VEC4",
            "name":"accessorWeights"
        },
        {
            "bufferView":2,
            "byteOffset":625376,
            "componentType":5126,
            "count":9162,
            "type":"VEC4",
            "name":"accessorWeightsExtra"
        },
        {
            "bufferView":5,
            "componentType":5126,
            "count":31,
            "type":"MAT4",
            "name":"accessorInverseBindMatrices"
        }
    ],
    "bufferViews":[
        {
            "buffer":0,
            "byteLength":319644,
            "name":"bufferViewScalar"
        },
        {
            "buffer":0,
            "byteOffset":319644,
            "byteLength":718176,
            "byteStride":12,
            "name":"bufferViewFloatVec3"
        },
        {
            "buffer":0,
            "byteOffset":1037820,
            "byteLength":771968,
            "byteStride":16,
            "name":"bufferViewFloatVec4"
        },
        {
            "buffer":0,
            "byteOffset":1809788,
            "byteLength":239392,
            "byteStride":8,
            "name":"bufferViewFloatVec2"
        },
        {
            "buffer":0,
            "byteOffset":2049180,
            "byteLength":146592,
            "byteStride":8,
            "name":"bufferViewUnsignedShortVec4"
        },
        {
            "buffer":0,
            "byteOffset":2195772,
            "byteLength":1984,
            "name":"bufferViewFloatMat4"
        }
    ],
    "buffers":[
        {
            "uri":"Mantoman_Rigged.bin",
            "byteLength":2197756
        }
    ],
    "materials":[
        {
            "pbrMetallicRoughness":
                {
                    "baseColorTexture":{"index":0},
                    "metallicFactor":0.0,
                    "roughnessFactor":0.450053632
                },
            "name":"lambert_rabbit"
        },
        {
            "pbrMetallicRoughness":
                {
                    "baseColorFactor":[1.0,0.397,0.397,1.0],
                    "metallicFactor":0.0,
                    "roughnessFactor":0.450053632
                },
            "name":"lambert_innerear"
        },
        {
            "pbrMetallicRoughness":
                {
                    "baseColorTexture":{"index":1},
                    "metallicFactor":0.0,
                    "roughnessFactor":0.240331292
                },
            "name":"MatFBXASC0462"
        }
    ],
    "textures":[
        {
            "sampler":0,
            "source":0,
            "name":"colored_tex.jpeg"
        },
        {
            "sampler":0,
            "source":1,
            "name":"mantoman_tex.jpg"
        }
    ],
    "images":[
        {
            "uri":"colored_tex.jpeg"
        },
        {
            "uri":"mantoman_tex.jpg"
        }
    ],
    "samplers":[
        {
            "magFilter":9729,
            "minFilter":9987
        }
    ],
    "skins":[
        {
            "inverseBindMatrices":19,
            "skeleton":2,
            "joints":[2,3,4,5,6,7,8,9,10,11,12,13,14,15,16,17,18,19,20,21,22,23,24,25,26,27,28,29,30,31,32],
            "name":"skeleton #0"
        }
    ]
}