{
	"asset":{
		"generator":"Khronos glTF Blender I/O v3.6.27",
		"version":"2.0"
	},
	"scene":0,
	"scenes":[
		{
			"name":"Scene",
			"nodes":[
				1,
				3
			]
		}
	],
	"nodes":[
		{
			"mesh":0,
			"name":"T_POSED_BODY.001"
		},
		{
			"children":[
				0
			],
			"name":"T_POSED_BODY",
			"scale":[
				10,
				10,
				10
			]
		},
		{
			"mesh":1,
			"name":"nose.004",
			"scale":[
				0.28839999437332153,
				0.16019998490810394,
				0.16019998490810394
			],
			"translation":[
				0,
				3.489818572998047,
				-8.574488639831543
			]
		},
		{
			"children":[
				2
			],
			"name":"MINJI_FACE1",
			"rotation":[
				0.70710688829422,
				0,
				0,
				0.7071066498756409
			],
			"scale":[
				0.10000000149011612,
				0.09999999403953552,
				0.09999999403953552
			]
		}
	],
	"materials":[
		{
			"name":"Mat.001",
			"pbrMetallicRoughness":{
				"baseColorTexture":{
					"index":0
				},
				"metallicFactor":0,
				"roughnessFactor":0.5
			}
		},
		{
			"doubleSided":true,
			"name":"lambert1.003",
			"pbrMetallicRoughness":{
				"baseColorFactor":[
					0.07500000298023224,
					0.07500000298023224,
					0.07500000298023224,
					1
				],
				"metallicFactor":0,
				"roughnessFactor":0.5527864098548889
			}
		}
	],
	"meshes":[
		{
			"name":"T_POSED_BODY.001",
			"primitives":[
				{
					"attributes":{
						"POSITION":0,
						"NORMAL":1,
						"TEXCOORD_0":2
					},
					"indices":3,
					"material":0
				}
			]
		},
		{
			"name":"Mesh.003",
			"primitives":[
				{
					"attributes":{
						"POSITION":4,
						"NORMAL":5,
						"TEXCOORD_0":6
					},
					"indices":7,
					"material":1
				}
			]
		}
	],
	"textures":[
		{
			"sampler":0,
			"source":0
		}
	],
	"images":[
		{
			"bufferView":4,
			"mimeType":"image/png",
			"name":"Image_0"
		}
	],
	"accessors":[
		{
			"bufferView":0,
			"componentType":5126,
			"count":19006,
			"max":[
				0.04424762725830078,
				0.1623883843421936,
				0.033882491290569305
			],
			"min":[
				-0.04414619877934456,
				1.852445893746335e-05,
				-0.03041469119489193
			],
			"type":"VEC3"
		},
		{
			"bufferView":1,
			"componentType":5126,
			"count":19006,
			"type":"VEC3"
		},
		{
			"bufferView":2,
			"componentType":5126,
			"count":19006,
			"type":"VEC2"
		},
		{
			"bufferView":3,
			"componentType":5123,
			"count":107028,
			"type":"SCALAR"
		},
		{
			"bufferView":5,
			"componentType":5126,
			"count":58,
			"max":[
				0.6333333253860474,
				0.5000114440917969,
				0.9813140630722046
			],
			"min":[
				-0.6333333253860474,
				-0.5,
				-0.5
			],
			"type":"VEC3"
		},
		{
			"bufferView":6,
			"componentType":5126,
			"count":58,
			"type":"VEC3"
		},
		{
			"bufferView":7,
			"componentType":5126,
			"count":58,
			"type":"VEC2"
		},
		{
			"bufferView":8,
			"componentType":5123,
			"count":132,
			"type":"SCALAR"
		}
	],
	"bufferViews":[
		{
			"buffer":0,
			"byteLength":228072,
			"byteOffset":0,
			"target":34962
		},
		{
			"buffer":0,
			"byteLength":228072,
			"byteOffset":228072,
			"target":34962
		},
		{
			"buffer":0,
			"byteLength":152048,
			"byteOffset":456144,
			"target":34962
		},
		{
			"buffer":0,
			"byteLength":214056,
			"byteOffset":608192,
			"target":34963
		},
		{
			"buffer":0,
			"byteLength":17255,
			"byteOffset":822248
		},
		{
			"buffer":0,
			"byteLength":696,
			"byteOffset":839504,
			"target":34962
		},
		{
			"buffer":0,
			"byteLength":696,
			"byteOffset":840200,
			"target":34962
		},
		{
			"buffer":0,
			"byteLength":464,
			"byteOffset":840896,
			"target":34962
		},
		{
			"buffer":0,
			"byteLength":264,
			"byteOffset":841360,
			"target":34963
		}
	],
	"samplers":[
		{
			"magFilter":9729,
			"minFilter":9987
		}
	],
	"buffers":[
		{
			"byteLength":841624,
			"uri":"data:application/octet-stream;base64,"
		}
	]
}
