{
	"asset":{
		"version":"2.0",
		"generator":"Created using the official Cinema 4D glTF Exporter 1.000x284978"
	},
	"scenes":[{
		"nodes":[0]
	}],
	"meshes":[{
		"name":"T_POSED_BODY_FIN_SUBDIV-lambert_innerear",
		"primitives":[{
			"attributes":{
				"POSITION":1,
				"NORMAL":2,
				"TEXCOORD_0":3
			},
			"indices":0,
			"material":0
		}]
	},
	{
		"name":"T_POSED_BODY_FIN_SUBDIV-lambert_rabbit",
		"primitives":[{
			"attributes":{
				"POSITION":5,
				"NORMAL":6,
				"TEXCOORD_0":7
			},
			"indices":4,
			"material":1
		}]
	}],
	"nodes":[{
		"name":"T_POSED_BODY_FIN_SUBDIV",
		"children":[1,
		2]
	},
	{
		"name":"T_POSED_BODY_FIN_SUBDIV-lambert_innerear",
		"mesh":0
	},
	{
		"name":"T_POSED_BODY_FIN_SUBDIV-lambert_rabbit",
		"mesh":1
	}],
	"accessors":[{
		"bufferView":0,
		"type":"SCALAR",
		"componentType":5123,
		"byteOffset":0,
		"count":2688,
		"min":[0],
		"max":[737]
	},
	{
		"bufferView":1,
		"type":"VEC3",
		"componentType":5126,
		"byteOffset":0,
		"count":738,
		"min":[-0.03391021490097046,
		0.126315176486969,
		-0.011296510696411133],
		"max":[0.03391021490097046,
		0.1537744402885437,
		-0.001122302026487887]
	},
	{
		"bufferView":1,
		"type":"VEC3",
		"componentType":5126,
		"byteOffset":12,
		"count":738,
		"min":[-0.9881629943847656,
		-0.9949013590812683,
		-0.4199391007423401],
		"max":[0.9881629943847656,
		0.97257000207901,
		0.9942898750305176]
	},
	{
		"bufferView":1,
		"type":"VEC2",
		"componentType":5126,
		"byteOffset":24,
		"count":738,
		"min":[0.2565048038959503,
		0.0472865104675293],
		"max":[0.6643950939178467,
		0.337765634059906]
	},
	{
		"bufferView":2,
		"type":"SCALAR",
		"componentType":5123,
		"byteOffset":0,
		"count":109584,
		"min":[0],
		"max":[21013]
	},
	{
		"bufferView":3,
		"type":"VEC3",
		"componentType":5126,
		"byteOffset":0,
		"count":21014,
		"min":[-0.046666331589221957,
		0.0016252344939857722,
		-0.029047124087810518],
		"max":[0.046666331589221957,
		0.16404658555984498,
		0.03525005653500557]
	},
	{
		"bufferView":3,
		"type":"VEC3",
		"componentType":5126,
		"byteOffset":12,
		"count":21014,
		"min":[-1.0,
		-1.0,
		-0.9999905824661255],
		"max":[1.0,
		1.0,
		0.9999885559082031]
	},
	{
		"bufferView":3,
		"type":"VEC2",
		"componentType":5126,
		"byteOffset":24,
		"count":21014,
		"min":[0.04944298416376114,
		-0.9256272912025452],
		"max":[0.9674028158187866,
		0.08735370635986328]
	}],
	"bufferViews":[{
		"buffer":0,
		"byteOffset":0,
		"byteLength":5376,
		"target":34963
	},
	{
		"buffer":0,
		"byteOffset":5376,
		"byteLength":23616,
		"target":34962,
		"byteStride":32
	},
	{
		"buffer":1,
		"byteOffset":0,
		"byteLength":219168,
		"target":34963
	},
	{
		"buffer":1,
		"byteOffset":219168,
		"byteLength":672448,
		"target":34962,
		"byteStride":32
	}],
	"buffers":[{
		"uri":"data:application/octet-stream;base64,",
		"byteLength":28992
	},
	{
		"uri":"data:application/octet-stream;base64,",
		"byteLength":891616
	}],
	"images":[{
		"uri":"data:image/jpeg;base64,"
	}],
	"samplers":[{
		"magFilter":9729,
		"minFilter":9729,
		"wrapS":10497,
		"wrapT":10497
	}],
	"textures":[{
		"sampler":0,
		"source":0
	}],
	"materials":[{
		"pbrMetallicRoughness":{
			"baseColorFactor":[0.800000011920929,
			0.3176000165581705,
			0.3176000165581705,
			1.0],
			"metallicFactor":1.0,
			"roughnessFactor":1.0
		},
		"name":"lambert_innerear",
		"emissiveFactor":[0.10489510744810105,
		0.10489510744810105,
		0.10489510744810105],
		"alphaMode":"OPAQUE",
		"doubleSided":false
	},
	{
		"pbrMetallicRoughness":{
			"baseColorTexture":{
				"index":0
			},
			"baseColorFactor":[1.0,
			1.0,
			1.0,
			1.0],
			"metallicFactor":1.0,
			"roughnessFactor":1.0
		},
		"name":"lambert_rabbit",
		"emissiveFactor":[0.1538461595773697,
		0.1538461595773697,
		0.1538461595773697],
		"alphaMode":"OPAQUE",
		"doubleSided":false
	}]
}