{
	"asset":{
		"version":"2.0",
		"generator":"Created using the official Cinema 4D glTF Exporter 1.000x284978"
	},
	"textures":[{
		"sampler":0,
		"source":0
	}],
	"scenes":[{
		"nodes":[0]
	}],
	"nodes":[{
		"name":"T_POSED_BODY",
		"translation":[0.0,
		0.0,
		0.0],
		"rotation":[0.0,
		0.0,
		0.0,
		-1.0],
		"scale":[10.0,
		10.0,
		10.0],
		"children":[1]
	},
	{
		"name":"T_POSED_BODY",
		"mesh":0
	}],
	"samplers":[{
		"magFilter":9729,
		"minFilter":9729,
		"wrapS":10497,
		"wrapT":10497
	}],
	"meshes":[{
		"name":"T_POSED_BODY",
		"primitives":[{
			"attributes":{
				"POSITION":1,
				"NORMAL":2,
				"TEXCOORD_0":3
			},
			"indices":0,
			"material":0
		}]
	}],
	"accessors":[{
		"bufferView":0,
		"type":"SCALAR",
		"componentType":5123,
		"count":107028,
		"byteOffset":0,
		"min":[0],
		"max":[18859]
	},
	{
		"bufferView":1,
		"type":"VEC3",
		"componentType":5126,
		"count":18860,
		"byteOffset":0,
		"min":[-0.04414619877934456,
		0.00001852445893746335,
		-0.03041469119489193],
		"max":[0.04424762725830078,
		0.1623883843421936,
		0.033882491290569308]
	},
	{
		"bufferView":1,
		"type":"VEC3",
		"componentType":5126,
		"count":18860,
		"byteOffset":12,
		"min":[-1.0,
		-1.0,
		-0.9999942779541016],
		"max":[1.0,
		1.0,
		0.9999885559082031]
	},
	{
		"bufferView":1,
		"type":"VEC2",
		"componentType":5126,
		"count":18860,
		"byteOffset":24,
		"min":[0.015494652092456818,
		0.008140981197357178],
		"max":[0.993503749370575,
		0.9839484691619873]
	}],
	"bufferViews":[{
		"buffer":0,
		"byteOffset":0,
		"byteLength":214056,
		"target":34963
	},
	{
		"buffer":0,
		"byteOffset":214056,
		"byteLength":603520,
		"target":34962,
		"byteStride":32
	}],
	"buffers":[{
		"uri":"data:application/octet-stream;base64,",
		"byteLength":817576
	}],
	"images":[{
		"uri":"data:image/png;base64,"
	}],
	"materials":[{
		"pbrMetallicRoughness":{
			"baseColorTexture":{
				"index":0
			},
			"baseColorFactor":[1.0,
			1.0,
			1.0,
			1.0],
			"metallicFactor":0.0,
			"roughnessFactor":0.5
		},
		"emissiveFactor":[0.0,
		0.0,
		0.0],
		"alphaMode":"OPAQUE",
		"doubleSided":false,
		"name":"Mat"
	}]
}