{
	"asset":{
		"generator":"Khronos glTF Blender I/O v3.6.27",
		"version":"2.0"
	},
	"scene":0,
	"scenes":[
		{
			"name":"Scene",
			"nodes":[
				0
			]
		}
	],
	"nodes":[
		{
			"mesh":0,
			"name":"CUSTOM_XD_eye",
			"rotation":[
				0.7071068286895752,
				0,
				0,
				0.7071068286895752
			],
			"scale":[
				0.009999999776482582,
				0.009999999776482582,
				0.009999999776482582
			]
		}
	],
	"materials":[
		{
			"doubleSided":true,
			"name":"lambert1.011",
			"pbrMetallicRoughness":{
				"baseColorFactor":[
					0.07500000298023224,
					0.07500000298023224,
					0.07500000298023224,
					1
				],
				"metallicFactor":0,
				"roughnessFactor":0.5527864098548889
			}
		}
	],
	"meshes":[
		{
			"name":"Mesh.011",
			"primitives":[
				{
					"attributes":{
						"POSITION":0,
						"NORMAL":1,
						"TEXCOORD_0":2
					},
					"indices":3,
					"material":0
				}
			]
		}
	],
	"accessors":[
		{
			"bufferView":0,
			"componentType":5126,
			"count":452,
			"max":[
				2.115978956222534,
				3.219388246536255,
				-8.346965789794922
			],
			"min":[
				-1.6687068939208984,
				2.528095006942749,
				-10.424755096435547
			],
			"type":"VEC3"
		},
		{
			"bufferView":1,
			"componentType":5126,
			"count":452,
			"type":"VEC3"
		},
		{
			"bufferView":2,
			"componentType":5126,
			"count":452,
			"type":"VEC2"
		},
		{
			"bufferView":3,
			"componentType":5123,
			"count":936,
			"type":"SCALAR"
		}
	],
	"bufferViews":[
		{
			"buffer":0,
			"byteLength":5424,
			"byteOffset":0,
			"target":34962
		},
		{
			"buffer":0,
			"byteLength":5424,
			"byteOffset":5424,
			"target":34962
		},
		{
			"buffer":0,
			"byteLength":3616,
			"byteOffset":10848,
			"target":34962
		},
		{
			"buffer":0,
			"byteLength":1872,
			"byteOffset":14464,
			"target":34963
		}
	],
	"buffers":[
		{
			"byteLength":16336,
			"uri":"data:application/octet-stream;base64,"
		}
	]
}
