{
	"asset":{
		"generator":"Khronos glTF Blender I/O v3.6.27",
		"version":"2.0"
	},
	"scene":0,
	"scenes":[
		{
			"name":"Scene",
			"nodes":[
				2
			]
		}
	],
	"nodes":[
		{
			"mesh":0,
			"name":"HYEIN_eyebrows"
		},
		{
			"mesh":1,
			"name":"HYEIN_eyes"
		},
		{
			"children":[
				0,
				1
			],
			"name":"HYEIN_FACE1",
			"rotation":[
				0.7071068286895752,
				0,
				0,
				0.7071068286895752
			],
			"scale":[
				0.009999999776482582,
				0.009999999776482582,
				0.009999999776482582
			]
		}
	],
	"materials":[
		{
			"doubleSided":true,
			"name":"lambert1.021",
			"pbrMetallicRoughness":{
				"baseColorFactor":[
					0.07500000298023224,
					0.07500000298023224,
					0.07500000298023224,
					1
				],
				"metallicFactor":0,
				"roughnessFactor":0.5527864098548889
			}
		},
		{
			"doubleSided":true,
			"emissiveFactor":[
				1,
				1,
				1
			],
			"name":"lambert4.014",
			"pbrMetallicRoughness":{
				"metallicFactor":0,
				"roughnessFactor":0.5527864098548889
			}
		}
	],
	"meshes":[
		{
			"name":"Mesh.046",
			"primitives":[
				{
					"attributes":{
						"POSITION":0,
						"NORMAL":1,
						"TEXCOORD_0":2
					},
					"indices":3,
					"material":0
				}
			]
		},
		{
			"name":"Mesh.045",
			"primitives":[
				{
					"attributes":{
						"POSITION":4,
						"NORMAL":5,
						"TEXCOORD_0":6
					},
					"indices":7,
					"material":1
				},
				{
					"attributes":{
						"POSITION":8,
						"NORMAL":9,
						"TEXCOORD_0":10
					},
					"indices":11,
					"material":0
				}
			]
		}
	],
	"accessors":[
		{
			"bufferView":0,
			"componentType":5126,
			"count":96,
			"max":[
				1.5752763748168945,
				2.9389891624450684,
				-9.915827751159668
			],
			"min":[
				-1.5752761363983154,
				2.5456254482269287,
				-10.424755096435547
			],
			"type":"VEC3"
		},
		{
			"bufferView":1,
			"componentType":5126,
			"count":96,
			"type":"VEC3"
		},
		{
			"bufferView":2,
			"componentType":5126,
			"count":96,
			"type":"VEC2"
		},
		{
			"bufferView":3,
			"componentType":5123,
			"count":216,
			"type":"SCALAR"
		},
		{
			"bufferView":4,
			"componentType":5126,
			"count":164,
			"max":[
				1.3574318885803223,
				3.149815082550049,
				-8.806997299194336
			],
			"min":[
				-1.3574318885803223,
				2.936185598373413,
				-9.166326522827148
			],
			"type":"VEC3"
		},
		{
			"bufferView":5,
			"componentType":5126,
			"count":164,
			"type":"VEC3"
		},
		{
			"bufferView":6,
			"componentType":5126,
			"count":164,
			"type":"VEC2"
		},
		{
			"bufferView":7,
			"componentType":5123,
			"count":480,
			"type":"SCALAR"
		},
		{
			"bufferView":8,
			"componentType":5126,
			"count":208,
			"max":[
				1.9005566835403442,
				3.257650136947632,
				-8.591367721557617
			],
			"min":[
				-1.900556206703186,
				2.5344934463500977,
				-9.398101806640625
			],
			"type":"VEC3"
		},
		{
			"bufferView":9,
			"componentType":5126,
			"count":208,
			"type":"VEC3"
		},
		{
			"bufferView":10,
			"componentType":5126,
			"count":208,
			"type":"VEC2"
		},
		{
			"bufferView":11,
			"componentType":5123,
			"count":528,
			"type":"SCALAR"
		}
	],
	"bufferViews":[
		{
			"buffer":0,
			"byteLength":1152,
			"byteOffset":0,
			"target":34962
		},
		{
			"buffer":0,
			"byteLength":1152,
			"byteOffset":1152,
			"target":34962
		},
		{
			"buffer":0,
			"byteLength":768,
			"byteOffset":2304,
			"target":34962
		},
		{
			"buffer":0,
			"byteLength":432,
			"byteOffset":3072,
			"target":34963
		},
		{
			"buffer":0,
			"byteLength":1968,
			"byteOffset":3504,
			"target":34962
		},
		{
			"buffer":0,
			"byteLength":1968,
			"byteOffset":5472,
			"target":34962
		},
		{
			"buffer":0,
			"byteLength":1312,
			"byteOffset":7440,
			"target":34962
		},
		{
			"buffer":0,
			"byteLength":960,
			"byteOffset":8752,
			"target":34963
		},
		{
			"buffer":0,
			"byteLength":2496,
			"byteOffset":9712,
			"target":34962
		},
		{
			"buffer":0,
			"byteLength":2496,
			"byteOffset":12208,
			"target":34962
		},
		{
			"buffer":0,
			"byteLength":1664,
			"byteOffset":14704,
			"target":34962
		},
		{
			"buffer":0,
			"byteLength":1056,
			"byteOffset":16368,
			"target":34963
		}
	],
	"buffers":[
		{
			"byteLength":17424,
			"uri":"data:application/octet-stream;base64,"
		}
	]
}
