{
	"asset":{
		"generator":"Khronos glTF Blender I/O v3.6.27",
		"version":"2.0"
	},
	"scene":0,
	"scenes":[
		{
			"name":"Scene",
			"nodes":[
				2
			]
		}
	],
	"nodes":[
		{
			"mesh":0,
			"name":"DANIEL_eyebrows"
		},
		{
			"mesh":1,
			"name":"DANIEL_eyes"
		},
		{
			"children":[
				0,
				1
			],
			"name":"DANIEL_FACE1",
			"rotation":[
				0.7071068286895752,
				0,
				0,
				0.7071068286895752
			],
			"scale":[
				0.009999999776482582,
				0.009999999776482582,
				0.009999999776482582
			]
		}
	],
	"materials":[
		{
			"doubleSided":true,
			"name":"lambert1.013",
			"pbrMetallicRoughness":{
				"baseColorFactor":[
					0.07500000298023224,
					0.07500000298023224,
					0.07500000298023224,
					1
				],
				"metallicFactor":0,
				"roughnessFactor":0.5527864098548889
			}
		},
		{
			"doubleSided":true,
			"emissiveFactor":[
				1,
				1,
				1
			],
			"name":"lambert4.006",
			"pbrMetallicRoughness":{
				"metallicFactor":0,
				"roughnessFactor":0.5527864098548889
			}
		}
	],
	"meshes":[
		{
			"name":"Mesh.013",
			"primitives":[
				{
					"attributes":{
						"POSITION":0,
						"NORMAL":1,
						"TEXCOORD_0":2
					},
					"indices":3,
					"material":0
				}
			]
		},
		{
			"name":"Mesh.014",
			"primitives":[
				{
					"attributes":{
						"POSITION":4,
						"NORMAL":5,
						"TEXCOORD_0":6
					},
					"indices":7,
					"material":0
				},
				{
					"attributes":{
						"POSITION":8,
						"NORMAL":9,
						"TEXCOORD_0":10
					},
					"indices":11,
					"material":1
				}
			]
		}
	],
	"accessors":[
		{
			"bufferView":0,
			"componentType":5126,
			"count":96,
			"max":[
				1.6543047428131104,
				2.9306020736694336,
				-9.937898635864258
			],
			"min":[
				-1.6543048620224,
				2.4668476581573486,
				-10.230276107788086
			],
			"type":"VEC3"
		},
		{
			"bufferView":1,
			"componentType":5126,
			"count":96,
			"type":"VEC3"
		},
		{
			"bufferView":2,
			"componentType":5126,
			"count":96,
			"type":"VEC2"
		},
		{
			"bufferView":3,
			"componentType":5123,
			"count":216,
			"type":"SCALAR"
		},
		{
			"bufferView":4,
			"componentType":5126,
			"count":368,
			"max":[
				1.6720576286315918,
				3.2158360481262207,
				-8.646444320678711
			],
			"min":[
				-1.6720576286315918,
				2.7261786460876465,
				-9.450250625610352
			],
			"type":"VEC3"
		},
		{
			"bufferView":5,
			"componentType":5126,
			"count":368,
			"type":"VEC3"
		},
		{
			"bufferView":6,
			"componentType":5126,
			"count":368,
			"type":"VEC2"
		},
		{
			"bufferView":7,
			"componentType":5123,
			"count":864,
			"type":"SCALAR"
		},
		{
			"bufferView":8,
			"componentType":5126,
			"count":328,
			"max":[
				1.5173413753509521,
				3.15006160736084,
				-8.810471534729004
			],
			"min":[
				-1.5173413753509521,
				2.955651044845581,
				-9.180963516235352
			],
			"type":"VEC3"
		},
		{
			"bufferView":9,
			"componentType":5126,
			"count":328,
			"type":"VEC3"
		},
		{
			"bufferView":10,
			"componentType":5126,
			"count":328,
			"type":"VEC2"
		},
		{
			"bufferView":11,
			"componentType":5123,
			"count":960,
			"type":"SCALAR"
		}
	],
	"bufferViews":[
		{
			"buffer":0,
			"byteLength":1152,
			"byteOffset":0,
			"target":34962
		},
		{
			"buffer":0,
			"byteLength":1152,
			"byteOffset":1152,
			"target":34962
		},
		{
			"buffer":0,
			"byteLength":768,
			"byteOffset":2304,
			"target":34962
		},
		{
			"buffer":0,
			"byteLength":432,
			"byteOffset":3072,
			"target":34963
		},
		{
			"buffer":0,
			"byteLength":4416,
			"byteOffset":3504,
			"target":34962
		},
		{
			"buffer":0,
			"byteLength":4416,
			"byteOffset":7920,
			"target":34962
		},
		{
			"buffer":0,
			"byteLength":2944,
			"byteOffset":12336,
			"target":34962
		},
		{
			"buffer":0,
			"byteLength":1728,
			"byteOffset":15280,
			"target":34963
		},
		{
			"buffer":0,
			"byteLength":3936,
			"byteOffset":17008,
			"target":34962
		},
		{
			"buffer":0,
			"byteLength":3936,
			"byteOffset":20944,
			"target":34962
		},
		{
			"buffer":0,
			"byteLength":2624,
			"byteOffset":24880,
			"target":34962
		},
		{
			"buffer":0,
			"byteLength":1920,
			"byteOffset":27504,
			"target":34963
		}
	],
	"buffers":[
		{
			"byteLength":29424,
			"uri":"data:application/octet-stream;base64,"
		}
	]
}
