{
	"asset":{
		"generator":"Khronos glTF Blender I/O v3.6.27",
		"version":"2.0"
	},
	"scene":0,
	"scenes":[
		{
			"name":"Scene",
			"nodes":[
				0
			]
		}
	],
	"nodes":[
		{
			"mesh":0,
			"name":"CUSTOM_arch_eye",
			"rotation":[
				0.7071068286895752,
				0,
				0,
				0.7071068286895752
			],
			"scale":[
				0.009999999776482582,
				0.009999999776482582,
				0.009999999776482582
			]
		}
	],
	"materials":[
		{
			"doubleSided":true,
			"name":"lambert1.001",
			"pbrMetallicRoughness":{
				"baseColorFactor":[
					0.07500000298023224,
					0.07500000298023224,
					0.07500000298023224,
					1
				],
				"metallicFactor":0,
				"roughnessFactor":0.5527864098548889
			}
		}
	],
	"meshes":[
		{
			"name":"Mesh.001",
			"primitives":[
				{
					"attributes":{
						"POSITION":0,
						"NORMAL":1,
						"TEXCOORD_0":2
					},
					"indices":3,
					"material":0
				}
			]
		}
	],
	"accessors":[
		{
			"bufferView":0,
			"componentType":5126,
			"count":464,
			"max":[
				1.9680240154266357,
				3.1870813369750977,
				-8.500113487243652
			],
			"min":[
				-2.0033750534057617,
				2.435030698776245,
				-10.408947944641113
			],
			"type":"VEC3"
		},
		{
			"bufferView":1,
			"componentType":5126,
			"count":464,
			"type":"VEC3"
		},
		{
			"bufferView":2,
			"componentType":5126,
			"count":464,
			"type":"VEC2"
		},
		{
			"bufferView":3,
			"componentType":5123,
			"count":984,
			"type":"SCALAR"
		}
	],
	"bufferViews":[
		{
			"buffer":0,
			"byteLength":5568,
			"byteOffset":0,
			"target":34962
		},
		{
			"buffer":0,
			"byteLength":5568,
			"byteOffset":5568,
			"target":34962
		},
		{
			"buffer":0,
			"byteLength":3712,
			"byteOffset":11136,
			"target":34962
		},
		{
			"buffer":0,
			"byteLength":1968,
			"byteOffset":14848,
			"target":34963
		}
	],
	"buffers":[
		{
			"byteLength":16816,
			"uri":"data:application/octet-stream;base64,"
		}
	]
}
