{
	"asset":{
		"generator":"Khronos glTF Blender I/O v3.6.27",
		"version":"2.0"
	},
	"scene":0,
	"scenes":[
		{
			"name":"Scene",
			"nodes":[
				2
			]
		}
	],
	"nodes":[
		{
			"mesh":0,
			"name":"DANIEL_mouth"
		},
		{
			"mesh":1,
			"name":"nose",
			"scale":[
				0.2884367108345032,
				0.16024258732795715,
				0.16024261713027954
			],
			"translation":[
				0,
				3.489818811416626,
				-8.57448959350586
			]
		},
		{
			"children":[
				0,
				1
			],
			"name":"DANIEL_FACE1.001",
			"rotation":[
				0.7071068286895752,
				0,
				0,
				0.7071068286895752
			],
			"scale":[
				0.009999999776482582,
				0.009999999776482582,
				0.009999999776482582
			]
		}
	],
	"materials":[
		{
			"doubleSided":true,
			"name":"lambert1.014",
			"pbrMetallicRoughness":{
				"baseColorFactor":[
					0.07500000298023224,
					0.07500000298023224,
					0.07500000298023224,
					1
				],
				"metallicFactor":0,
				"roughnessFactor":0.5527864098548889
			}
		},
		{
			"doubleSided":true,
			"emissiveFactor":[
				0.10489510744810104,
				0.10489510744810104,
				0.10489510744810104
			],
			"name":"lambert_innerear.006",
			"pbrMetallicRoughness":{
				"baseColorFactor":[
					1,
					0.3970000147819519,
					0.3970000147819519,
					1
				],
				"metallicFactor":0,
				"roughnessFactor":0.5527864098548889
			}
		}
	],
	"meshes":[
		{
			"name":"Mesh.020",
			"primitives":[
				{
					"attributes":{
						"POSITION":0,
						"NORMAL":1,
						"TEXCOORD_0":2
					},
					"indices":3,
					"material":0
				},
				{
					"attributes":{
						"POSITION":4,
						"NORMAL":5,
						"TEXCOORD_0":6
					},
					"indices":7,
					"material":1
				}
			]
		},
		{
			"name":"Mesh.019",
			"primitives":[
				{
					"attributes":{
						"POSITION":8,
						"NORMAL":9,
						"TEXCOORD_0":10
					},
					"indices":11,
					"material":0
				}
			]
		}
	],
	"accessors":[
		{
			"bufferView":0,
			"componentType":5126,
			"count":122,
			"max":[
				0.4516684114933014,
				3.574518918991089,
				-7.921426773071289
			],
			"min":[
				-0.4516684114933014,
				3.3899059295654297,
				-8.382469177246094
			],
			"type":"VEC3"
		},
		{
			"bufferView":1,
			"componentType":5126,
			"count":122,
			"type":"VEC3"
		},
		{
			"bufferView":2,
			"componentType":5126,
			"count":122,
			"type":"VEC2"
		},
		{
			"bufferView":3,
			"componentType":5123,
			"count":384,
			"type":"SCALAR"
		},
		{
			"bufferView":4,
			"componentType":5126,
			"count":62,
			"max":[
				0.294423907995224,
				3.5525529384613037,
				-7.9215874671936035
			],
			"min":[
				-0.294423907995224,
				3.4409799575805664,
				-8.171740531921387
			],
			"type":"VEC3"
		},
		{
			"bufferView":5,
			"componentType":5126,
			"count":62,
			"type":"VEC3"
		},
		{
			"bufferView":6,
			"componentType":5126,
			"count":62,
			"type":"VEC2"
		},
		{
			"bufferView":7,
			"componentType":5123,
			"count":168,
			"type":"SCALAR"
		},
		{
			"bufferView":8,
			"componentType":5126,
			"count":52,
			"max":[
				0.6333333253860474,
				0.5000114440917969,
				0.9813140630722046
			],
			"min":[
				-0.6333333253860474,
				-0.5,
				-0.5
			],
			"type":"VEC3"
		},
		{
			"bufferView":9,
			"componentType":5126,
			"count":52,
			"type":"VEC3"
		},
		{
			"bufferView":10,
			"componentType":5126,
			"count":52,
			"type":"VEC2"
		},
		{
			"bufferView":11,
			"componentType":5123,
			"count":132,
			"type":"SCALAR"
		}
	],
	"bufferViews":[
		{
			"buffer":0,
			"byteLength":1464,
			"byteOffset":0,
			"target":34962
		},
		{
			"buffer":0,
			"byteLength":1464,
			"byteOffset":1464,
			"target":34962
		},
		{
			"buffer":0,
			"byteLength":976,
			"byteOffset":2928,
			"target":34962
		},
		{
			"buffer":0,
			"byteLength":768,
			"byteOffset":3904,
			"target":34963
		},
		{
			"buffer":0,
			"byteLength":744,
			"byteOffset":4672,
			"target":34962
		},
		{
			"buffer":0,
			"byteLength":744,
			"byteOffset":5416,
			"target":34962
		},
		{
			"buffer":0,
			"byteLength":496,
			"byteOffset":6160,
			"target":34962
		},
		{
			"buffer":0,
			"byteLength":336,
			"byteOffset":6656,
			"target":34963
		},
		{
			"buffer":0,
			"byteLength":624,
			"byteOffset":6992,
			"target":34962
		},
		{
			"buffer":0,
			"byteLength":624,
			"byteOffset":7616,
			"target":34962
		},
		{
			"buffer":0,
			"byteLength":416,
			"byteOffset":8240,
			"target":34962
		},
		{
			"buffer":0,
			"byteLength":264,
			"byteOffset":8656,
			"target":34963
		}
	],
	"buffers":[
		{
			"byteLength":8920,
			"uri":"data:application/octet-stream;base64,"
		}
	]
}
