{
	"asset":{
		"generator":"Khronos glTF Blender I/O v3.6.27",
		"version":"2.0"
	},
	"scene":0,
	"scenes":[
		{
			"name":"Scene",
			"nodes":[
				2
			]
		}
	],
	"nodes":[
		{
			"mesh":0,
			"name":"HANI_mouth"
		},
		{
			"mesh":1,
			"name":"nose",
			"scale":[
				0.2884367108345032,
				0.16024258732795715,
				0.16024261713027954
			],
			"translation":[
				0,
				3.489818811416626,
				-8.57448959350586
			]
		},
		{
			"children":[
				0,
				1
			],
			"name":"HANI_FACE1.001",
			"rotation":[
				0.7071068286895752,
				0,
				0,
				0.7071068286895752
			],
			"scale":[
				0.009999999776482582,
				0.009999999776482582,
				0.009999999776482582
			]
		}
	],
	"materials":[
		{
			"doubleSided":true,
			"emissiveFactor":[
				0.10489510744810104,
				0.10489510744810104,
				0.10489510744810104
			],
			"name":"lambert_innerear.008",
			"pbrMetallicRoughness":{
				"baseColorFactor":[
					1,
					0.3970000147819519,
					0.3970000147819519,
					1
				],
				"metallicFactor":0,
				"roughnessFactor":0.5527864098548889
			}
		},
		{
			"doubleSided":true,
			"name":"lambert1.018",
			"pbrMetallicRoughness":{
				"baseColorFactor":[
					0.07500000298023224,
					0.07500000298023224,
					0.07500000298023224,
					1
				],
				"metallicFactor":0,
				"roughnessFactor":0.5527864098548889
			}
		}
	],
	"meshes":[
		{
			"name":"Mesh.035",
			"primitives":[
				{
					"attributes":{
						"POSITION":0,
						"NORMAL":1,
						"TEXCOORD_0":2
					},
					"indices":3,
					"material":0
				},
				{
					"attributes":{
						"POSITION":4,
						"NORMAL":5,
						"TEXCOORD_0":6
					},
					"indices":7,
					"material":1
				}
			]
		},
		{
			"name":"Mesh.036",
			"primitives":[
				{
					"attributes":{
						"POSITION":8,
						"NORMAL":9,
						"TEXCOORD_0":10
					},
					"indices":11,
					"material":1
				}
			]
		}
	],
	"accessors":[
		{
			"bufferView":0,
			"componentType":5126,
			"count":78,
			"max":[
				0.15585307776927948,
				3.6210060119628906,
				-7.898194313049316
			],
			"min":[
				-0.15405257046222687,
				3.4189188480377197,
				-8.202024459838867
			],
			"type":"VEC3"
		},
		{
			"bufferView":1,
			"componentType":5126,
			"count":78,
			"type":"VEC3"
		},
		{
			"bufferView":2,
			"componentType":5126,
			"count":78,
			"type":"VEC2"
		},
		{
			"bufferView":3,
			"componentType":5123,
			"count":240,
			"type":"SCALAR"
		},
		{
			"bufferView":4,
			"componentType":5126,
			"count":96,
			"max":[
				0.5667880773544312,
				3.549403190612793,
				-8.022198677062988
			],
			"min":[
				-0.5667880773544312,
				3.387068748474121,
				-8.351739883422852
			],
			"type":"VEC3"
		},
		{
			"bufferView":5,
			"componentType":5126,
			"count":96,
			"type":"VEC3"
		},
		{
			"bufferView":6,
			"componentType":5126,
			"count":96,
			"type":"VEC2"
		},
		{
			"bufferView":7,
			"componentType":5123,
			"count":252,
			"type":"SCALAR"
		},
		{
			"bufferView":8,
			"componentType":5126,
			"count":52,
			"max":[
				0.6333333253860474,
				0.5000114440917969,
				0.9813140630722046
			],
			"min":[
				-0.6333333253860474,
				-0.5,
				-0.5
			],
			"type":"VEC3"
		},
		{
			"bufferView":9,
			"componentType":5126,
			"count":52,
			"type":"VEC3"
		},
		{
			"bufferView":10,
			"componentType":5126,
			"count":52,
			"type":"VEC2"
		},
		{
			"bufferView":11,
			"componentType":5123,
			"count":132,
			"type":"SCALAR"
		}
	],
	"bufferViews":[
		{
			"buffer":0,
			"byteLength":936,
			"byteOffset":0,
			"target":34962
		},
		{
			"buffer":0,
			"byteLength":936,
			"byteOffset":936,
			"target":34962
		},
		{
			"buffer":0,
			"byteLength":624,
			"byteOffset":1872,
			"target":34962
		},
		{
			"buffer":0,
			"byteLength":480,
			"byteOffset":2496,
			"target":34963
		},
		{
			"buffer":0,
			"byteLength":1152,
			"byteOffset":2976,
			"target":34962
		},
		{
			"buffer":0,
			"byteLength":1152,
			"byteOffset":4128,
			"target":34962
		},
		{
			"buffer":0,
			"byteLength":768,
			"byteOffset":5280,
			"target":34962
		},
		{
			"buffer":0,
			"byteLength":504,
			"byteOffset":6048,
			"target":34963
		},
		{
			"buffer":0,
			"byteLength":624,
			"byteOffset":6552,
			"target":34962
		},
		{
			"buffer":0,
			"byteLength":624,
			"byteOffset":7176,
			"target":34962
		},
		{
			"buffer":0,
			"byteLength":416,
			"byteOffset":7800,
			"target":34962
		},
		{
			"buffer":0,
			"byteLength":264,
			"byteOffset":8216,
			"target":34963
		}
	],
	"buffers":[
		{
			"byteLength":8480,
			"uri":"data:application/octet-stream;base64,"
		}
	]
}
