{
	"asset":{
		"generator":"Khronos glTF Blender I/O v3.6.27",
		"version":"2.0"
	},
	"scene":0,
	"scenes":[
		{
			"name":"Scene",
			"nodes":[
				2
			]
		}
	],
	"nodes":[
		{
			"mesh":0,
			"name":"HANI_eyebrows"
		},
		{
			"mesh":1,
			"name":"HANI_eyes"
		},
		{
			"children":[
				0,
				1
			],
			"name":"HANI_FACE1",
			"rotation":[
				0.7071068286895752,
				0,
				0,
				0.7071068286895752
			],
			"scale":[
				0.009999999776482582,
				0.009999999776482582,
				0.009999999776482582
			]
		}
	],
	"materials":[
		{
			"doubleSided":true,
			"name":"lambert1.017",
			"pbrMetallicRoughness":{
				"baseColorFactor":[
					0.07500000298023224,
					0.07500000298023224,
					0.07500000298023224,
					1
				],
				"metallicFactor":0,
				"roughnessFactor":0.5527864098548889
			}
		},
		{
			"doubleSided":true,
			"emissiveFactor":[
				1,
				1,
				1
			],
			"name":"lambert4.010",
			"pbrMetallicRoughness":{
				"metallicFactor":0,
				"roughnessFactor":0.5527864098548889
			}
		}
	],
	"meshes":[
		{
			"name":"Mesh.029",
			"primitives":[
				{
					"attributes":{
						"POSITION":0,
						"NORMAL":1,
						"TEXCOORD_0":2
					},
					"indices":3,
					"material":0
				}
			]
		},
		{
			"name":"Mesh.030",
			"primitives":[
				{
					"attributes":{
						"POSITION":4,
						"NORMAL":5,
						"TEXCOORD_0":6
					},
					"indices":7,
					"material":0
				},
				{
					"attributes":{
						"POSITION":8,
						"NORMAL":9,
						"TEXCOORD_0":10
					},
					"indices":11,
					"material":1
				}
			]
		}
	],
	"accessors":[
		{
			"bufferView":0,
			"componentType":5126,
			"count":96,
			"max":[
				1.6812188625335693,
				2.8520021438598633,
				-10.229835510253906
			],
			"min":[
				-1.6812188625335693,
				2.4349920749664307,
				-10.596017837524414
			],
			"type":"VEC3"
		},
		{
			"bufferView":1,
			"componentType":5126,
			"count":96,
			"type":"VEC3"
		},
		{
			"bufferView":2,
			"componentType":5126,
			"count":96,
			"type":"VEC2"
		},
		{
			"bufferView":3,
			"componentType":5123,
			"count":216,
			"type":"SCALAR"
		},
		{
			"bufferView":4,
			"componentType":5126,
			"count":208,
			"max":[
				1.6092513799667358,
				3.1377527713775635,
				-8.530982971191406
			],
			"min":[
				-1.609253168106079,
				2.664517402648926,
				-9.551180839538574
			],
			"type":"VEC3"
		},
		{
			"bufferView":5,
			"componentType":5126,
			"count":208,
			"type":"VEC3"
		},
		{
			"bufferView":6,
			"componentType":5126,
			"count":208,
			"type":"VEC2"
		},
		{
			"bufferView":7,
			"componentType":5123,
			"count":528,
			"type":"SCALAR"
		},
		{
			"bufferView":8,
			"componentType":5126,
			"count":164,
			"max":[
				1.379108190536499,
				3.1174190044403076,
				-8.845553398132324
			],
			"min":[
				-1.37910795211792,
				2.958407402038574,
				-9.196928977966309
			],
			"type":"VEC3"
		},
		{
			"bufferView":9,
			"componentType":5126,
			"count":164,
			"type":"VEC3"
		},
		{
			"bufferView":10,
			"componentType":5126,
			"count":164,
			"type":"VEC2"
		},
		{
			"bufferView":11,
			"componentType":5123,
			"count":480,
			"type":"SCALAR"
		}
	],
	"bufferViews":[
		{
			"buffer":0,
			"byteLength":1152,
			"byteOffset":0,
			"target":34962
		},
		{
			"buffer":0,
			"byteLength":1152,
			"byteOffset":1152,
			"target":34962
		},
		{
			"buffer":0,
			"byteLength":768,
			"byteOffset":2304,
			"target":34962
		},
		{
			"buffer":0,
			"byteLength":432,
			"byteOffset":3072,
			"target":34963
		},
		{
			"buffer":0,
			"byteLength":2496,
			"byteOffset":3504,
			"target":34962
		},
		{
			"buffer":0,
			"byteLength":2496,
			"byteOffset":6000,
			"target":34962
		},
		{
			"buffer":0,
			"byteLength":1664,
			"byteOffset":8496,
			"target":34962
		},
		{
			"buffer":0,
			"byteLength":1056,
			"byteOffset":10160,
			"target":34963
		},
		{
			"buffer":0,
			"byteLength":1968,
			"byteOffset":11216,
			"target":34962
		},
		{
			"buffer":0,
			"byteLength":1968,
			"byteOffset":13184,
			"target":34962
		},
		{
			"buffer":0,
			"byteLength":1312,
			"byteOffset":15152,
			"target":34962
		},
		{
			"buffer":0,
			"byteLength":960,
			"byteOffset":16464,
			"target":34963
		}
	],
	"buffers":[
		{
			"byteLength":17424,
			"uri":"data:application/octet-stream;base64,"
		}
	]
}
