<svg width="320" height="45" viewBox="0 0 320 45" fill="none" xmlns="http://www.w3.org/2000/svg">
<path fill-rule="evenodd" clip-rule="evenodd" d="M53.0982 3.8396C57.5923 3.8396 61.2354 7.47199 61.2354 11.9528V23.3112C61.2354 25.5516 63.057 27.3678 65.3041 27.3678H66.5247C68.7717 27.3678 70.5933 25.5516 70.5933 23.3112V11.9528C70.5933 7.47199 74.2365 3.8396 78.7305 3.8396C83.2246 3.8396 86.8678 7.47199 86.8678 11.9528V23.3112C86.8678 34.5132 77.7599 43.5942 66.5247 43.5942H65.3041C54.0689 43.5942 44.9609 34.5132 44.9609 23.3112V11.9528C44.9609 7.47199 48.6041 3.8396 53.0982 3.8396Z" fill="black"/>
<path fill-rule="evenodd" clip-rule="evenodd" d="M48.4185 3.83954C52.9126 3.83954 56.5558 7.47193 56.5558 11.9527V23.3112C56.5558 25.5516 58.3773 27.3678 60.6244 27.3678H61.845C64.092 27.3678 65.9136 25.5516 65.9136 23.3112V11.9527C65.9136 7.47193 69.5568 3.83954 74.0509 3.83954C78.5449 3.83954 82.1881 7.47193 82.1881 11.9527V23.3112C82.1881 34.5131 73.0802 43.5941 61.845 43.5941H60.6244C49.3892 43.5941 40.2812 34.5131 40.2812 23.3112V11.9527C40.2812 7.47193 43.9244 3.83954 48.4185 3.83954Z" fill="white" stroke="black" stroke-width="0.6" stroke-linecap="round"/>
<path fill-rule="evenodd" clip-rule="evenodd" d="M125.725 10.3303C125.725 14.8111 122.081 18.4435 117.587 18.4435L109.654 18.4435C107.406 18.4435 105.585 20.2597 105.585 22.5L105.585 23.717C105.585 25.9574 107.406 27.7736 109.654 27.7736L117.587 27.7736C122.081 27.7736 125.725 31.406 125.725 35.8868C125.725 40.3676 122.081 44 117.587 44L109.654 44C98.4183 44 89.3104 34.919 89.3104 23.717L89.3104 22.5C89.3104 11.2981 98.4183 2.2171 109.654 2.2171L117.587 2.2171C122.081 2.2171 125.725 5.84949 125.725 10.3303Z" fill="black"/>
<path fill-rule="evenodd" clip-rule="evenodd" d="M121.045 10.3303C121.045 14.8111 117.402 18.4435 112.908 18.4435L104.974 18.4435C102.727 18.4435 100.905 20.2597 100.905 22.5L100.905 23.717C100.905 25.9574 102.727 27.7736 104.974 27.7736L112.908 27.7736C117.402 27.7736 121.045 31.406 121.045 35.8868C121.045 40.3676 117.402 44 112.908 44L104.974 44C93.7386 44 84.6307 34.919 84.6307 23.717L84.6307 22.5C84.6307 11.2981 93.7386 2.2171 104.974 2.2171L112.908 2.2171C117.402 2.2171 121.045 5.84949 121.045 10.3303Z" fill="white" stroke="black" stroke-width="0.6" stroke-linecap="round"/>
<path fill-rule="evenodd" clip-rule="evenodd" d="M311.051 9.11318C311.051 13.594 307.408 17.2264 302.914 17.2264L292.539 17.2264C290.291 17.2264 288.47 19.0426 288.47 21.2829L288.47 21.6886C288.47 23.929 290.291 25.7452 292.539 25.7452L295.569 25.7452C296.88 23.0154 299.676 21.13 302.914 21.13C307.408 21.13 311.051 24.7624 311.051 29.2432C311.051 36.2729 305.335 41.9715 298.285 41.9715L292.539 41.9715C281.303 41.9715 272.195 32.8906 272.195 21.6886L272.195 21.2829C272.195 10.081 281.303 0.999999 292.539 0.999999L302.914 1C307.408 1 311.051 4.63239 311.051 9.11318Z" fill="black"/>
<path fill-rule="evenodd" clip-rule="evenodd" d="M306.371 9.11318C306.371 13.594 302.728 17.2264 298.234 17.2264L287.859 17.2264C285.612 17.2264 283.79 19.0426 283.79 21.2829L283.79 21.6886C283.79 23.929 285.612 25.7452 287.859 25.7452L290.89 25.7452C292.2 23.0154 294.996 21.13 298.234 21.13C302.728 21.13 306.371 24.7624 306.371 29.2432C306.371 36.2729 300.656 41.9715 293.605 41.9715L287.859 41.9715C276.624 41.9715 267.516 32.8906 267.516 21.6886L267.516 21.2829C267.516 10.081 276.624 0.999999 287.859 0.999999L298.234 1C302.728 1 306.371 4.63239 306.371 9.11318Z" fill="white" stroke="black" stroke-width="0.6" stroke-linecap="round"/>
<path fill-rule="evenodd" clip-rule="evenodd" d="M179.022 2.82556C183.516 2.82556 187.159 6.45795 187.159 10.9387V25.3396C187.159 26.6839 188.252 27.7736 189.6 27.7736H195.703C200.197 27.7736 203.841 31.406 203.841 35.8868C203.841 40.3675 200.197 43.9999 195.703 43.9999H189.6C179.264 43.9999 170.885 35.6454 170.885 25.3396V10.9387C170.885 6.45795 174.528 2.82556 179.022 2.82556Z" fill="black"/>
<path fill-rule="evenodd" clip-rule="evenodd" d="M174.342 2.82556C178.836 2.82556 182.48 6.45795 182.48 10.9387V25.3396C182.48 26.6839 183.573 27.7736 184.921 27.7736H191.024C195.518 27.7736 199.161 31.406 199.161 35.8868C199.161 40.3675 195.518 43.9999 191.024 43.9999H184.921C174.584 43.9999 166.205 35.6454 166.205 25.3396V10.9387C166.205 6.45795 169.848 2.82556 174.342 2.82556Z" fill="white" stroke="black" stroke-width="0.6" stroke-linecap="round"/>
<path fill-rule="evenodd" clip-rule="evenodd" d="M213.604 2.2171C218.098 2.2171 221.741 5.84949 221.741 10.3303V35.2783C221.741 39.7591 218.098 43.3915 213.604 43.3915C209.11 43.3915 205.467 39.7591 205.467 35.2783V10.3303C205.467 5.84949 209.11 2.2171 213.604 2.2171Z" fill="black"/>
<path fill-rule="evenodd" clip-rule="evenodd" d="M208.924 2.2171C213.418 2.2171 217.062 5.84949 217.062 10.3303V35.2783C217.062 39.7591 213.418 43.3915 208.924 43.3915C204.43 43.3915 200.787 39.7591 200.787 35.2783V10.3303C200.787 5.84949 204.43 2.2171 208.924 2.2171Z" fill="white" stroke="black" stroke-width="0.6" stroke-linecap="round"/>
<path fill-rule="evenodd" clip-rule="evenodd" d="M262.225 2.2171C266.719 2.2171 270.363 5.84949 270.363 10.3303V34.3861C270.363 41.6991 261.729 45.6129 256.202 40.8056L241.679 28.1741V35.2783C241.679 39.7591 238.036 43.3915 233.542 43.3915C229.047 43.3915 225.404 39.7591 225.404 35.2783V11.2225C225.404 3.9095 234.038 -0.00438213 239.565 4.80294L254.088 17.4345V10.3303C254.088 5.84949 257.731 2.2171 262.225 2.2171Z" fill="black"/>
<path fill-rule="evenodd" clip-rule="evenodd" d="M257.546 2.2171C262.04 2.2171 265.683 5.84949 265.683 10.3303V34.3861C265.683 41.6991 257.049 45.6129 251.522 40.8056L236.999 28.1741V35.2783C236.999 39.7591 233.356 43.3915 228.862 43.3915C224.368 43.3915 220.725 39.7591 220.725 35.2783V11.2225C220.725 3.9095 229.358 -0.00438213 234.885 4.80294L249.408 17.4345V10.3303C249.408 5.84949 253.052 2.2171 257.546 2.2171Z" fill="white" stroke="black" stroke-width="0.6" stroke-linecap="round"/>
<path fill-rule="evenodd" clip-rule="evenodd" d="M139.147 2.2171C143.641 2.2171 147.284 5.84949 147.284 10.3303V35.1818C147.284 39.6626 143.641 43.295 139.147 43.295C134.653 43.295 131.01 39.6626 131.01 35.1818V10.3303C131.01 5.84949 134.653 2.2171 139.147 2.2171Z" fill="black"/>
<path fill-rule="evenodd" clip-rule="evenodd" d="M167.787 6.69194C170.193 10.4765 169.066 15.4892 165.271 17.888L147.979 28.8156C144.183 31.2144 139.156 30.091 136.75 26.3064C134.344 22.5218 135.471 17.5092 139.266 15.1104L156.558 4.18274C160.354 1.78394 165.381 2.90734 167.787 6.69194Z" fill="black"/>
<path fill-rule="evenodd" clip-rule="evenodd" d="M136.752 18.5008C134.346 22.2854 135.473 27.298 139.268 29.6968L156.56 40.6244C160.356 43.0232 165.383 41.8998 167.789 38.1152C170.195 34.3306 169.069 29.318 165.273 26.9192L147.981 15.9916C144.185 13.5928 139.158 14.7162 136.752 18.5008Z" fill="black"/>
<path fill-rule="evenodd" clip-rule="evenodd" d="M142.604 10.0463C142.454 5.69702 138.87 2.21704 134.471 2.21704C129.977 2.21704 126.334 5.84943 126.334 10.3302V35.1817C126.334 39.6625 129.977 43.2949 134.471 43.2949C138.965 43.2949 142.608 39.6625 142.608 35.1817V34.7627L151.884 40.6244C155.68 43.0232 160.707 41.8998 163.113 38.1152C165.519 34.3306 164.392 29.3179 160.597 26.9191L153.45 22.403L160.595 17.8879C164.391 15.4891 165.517 10.4765 163.111 6.69188C160.706 2.90728 155.678 1.78388 151.882 4.18268L142.604 10.0463Z" fill="white"/>
<path d="M142.604 10.0463L142.304 10.0567L142.322 10.5793L142.764 10.2999L142.604 10.0463ZM142.608 34.7627L142.769 34.5091L142.308 34.2182V34.7627H142.608ZM151.884 40.6244L152.044 40.3708L151.884 40.6244ZM163.113 38.1152L162.86 37.9542L163.113 38.1152ZM160.597 26.9191L160.757 26.6655L160.597 26.9191ZM153.45 22.403L153.29 22.1494L152.889 22.403L153.29 22.6566L153.45 22.403ZM160.595 17.8879L160.435 17.6343L160.595 17.8879ZM163.111 6.69188L162.858 6.85282L163.111 6.69188ZM151.882 4.18268L152.042 4.43628L151.882 4.18268ZM134.471 2.51704C138.709 2.51704 142.159 5.86916 142.304 10.0567L142.903 10.036C142.748 5.52488 139.031 1.91704 134.471 1.91704V2.51704ZM126.634 10.3302C126.634 6.01596 130.142 2.51704 134.471 2.51704V1.91704C129.812 1.91704 126.034 5.68291 126.034 10.3302H126.634ZM126.634 35.1817V10.3302H126.034V35.1817H126.634ZM134.471 42.9949C130.142 42.9949 126.634 39.496 126.634 35.1817H126.034C126.034 39.829 129.812 43.5949 134.471 43.5949V42.9949ZM142.308 35.1817C142.308 39.496 138.8 42.9949 134.471 42.9949V43.5949C139.13 43.5949 142.908 39.829 142.908 35.1817H142.308ZM142.308 34.7627V35.1817H142.908V34.7627H142.308ZM142.448 35.0163L151.724 40.878L152.044 40.3708L142.769 34.5091L142.448 35.0163ZM151.724 40.878C155.659 43.3649 160.872 42.2006 163.366 38.2761L162.86 37.9542C160.543 41.599 155.701 42.6814 152.044 40.3708L151.724 40.878ZM163.366 38.2761C165.862 34.3511 164.693 29.1528 160.757 26.6655L160.436 27.1727C164.092 29.483 165.177 34.31 162.86 37.9542L163.366 38.2761ZM160.757 26.6655L153.611 22.1494L153.29 22.6566L160.436 27.1727L160.757 26.6655ZM153.611 22.6566L160.755 18.1415L160.435 17.6343L153.29 22.1494L153.611 22.6566ZM160.755 18.1415C164.691 15.6542 165.86 10.4559 163.365 6.53093L162.858 6.85282C165.175 10.497 164.09 15.324 160.435 17.6343L160.755 18.1415ZM163.365 6.53093C160.87 2.60648 155.657 1.44212 151.722 3.92908L152.042 4.43628C155.699 2.12563 160.541 3.20809 162.858 6.85282L163.365 6.53093ZM151.722 3.92908L142.443 9.79274L142.764 10.2999L152.042 4.43628L151.722 3.92908Z" fill="black"/>
<path d="M315.38 33.4365C315.43 33.3024 315.619 33.3024 315.669 33.4365L316.61 35.9718C316.688 36.1827 316.855 36.3489 317.066 36.4268L319.608 37.3647C319.742 37.4143 319.742 37.6043 319.608 37.6539L317.066 38.5918C316.855 38.6697 316.688 38.8359 316.61 39.0468L315.669 41.5822C315.619 41.7162 315.43 41.7162 315.38 41.5822L314.439 39.0468C314.361 38.8359 314.194 38.6697 313.983 38.5918L311.441 37.6539C311.306 37.6043 311.306 37.4143 311.441 37.3647L313.983 36.4268C314.194 36.3489 314.361 36.1827 314.439 35.9718L315.38 33.4365Z" fill="black"/>
<path d="M3.66211 9.51901C3.66211 6.38246 6.20479 3.83978 9.34133 3.83978H26.293C35.5906 3.83978 43.1278 11.377 43.1278 20.6746V23.9199C43.1278 34.3377 34.6825 42.783 24.2647 42.783H9.34133C6.20479 42.783 3.66211 40.2404 3.66211 37.1038V9.51901Z" fill="black"/>
<path d="M0.3 10.736C0.3 7.76513 2.70836 5.35676 5.67922 5.35676H22.6309C31.7628 5.35676 39.1657 12.7597 39.1657 21.8916V25.1369C39.1657 35.389 30.8547 43.7 20.6026 43.7H5.67923C2.70836 43.7 0.3 41.2917 0.3 38.3208V10.736Z" fill="white" stroke="black" stroke-width="0.6"/>
<path d="M19.3867 21.0639C19.4364 20.9299 19.626 20.9299 19.6757 21.0639L20.4519 23.1551C20.5301 23.366 20.6966 23.5322 20.9077 23.6101L23.0044 24.3836C23.1388 24.4332 23.1388 24.6233 23.0044 24.6729L20.9077 25.4465C20.6966 25.5243 20.5301 25.6905 20.4519 25.9014L19.6757 27.9926C19.626 28.1266 19.4364 28.1266 19.3867 27.9926L18.6106 25.9014C18.5323 25.6905 18.3658 25.5243 18.1548 25.4465L16.058 24.6729C15.9236 24.6233 15.9236 24.4332 16.058 24.3836L18.1548 23.6101C18.3658 23.5322 18.5323 23.366 18.6106 23.1551L19.3867 21.0639Z" fill="black"/>
</svg>
